SplineFontDB: 3.2
FontName: Astra-Style-Rg
FullName: Astra-Style-Regular
FamilyName: Astra-Style-086
Weight: Book
Copyright: Copyright (c) 2026, Ezequiel Selios (ezequielselios3@gmail.com),\nwith Reserved Font Name Astra-Style-Rg.\n\nCopyright (c) 2026, Luca Echetto (lucaechetto@gmail.com).\n\nThis Font Software is licensed under the SIL Open Font License, Version 1.1.\nThis license is copied below, and is also available with a FAQ at:\nhttp://scripts.sil.org/OFL
Version: 004.003
ItalicAngle: 0
UnderlinePosition: -109
UnderlineWidth: 54
Ascent: 819
Descent: 205
InvalidEm: 0
sfntRevision: 0x00010000
LayerCount: 2
Layer: 0 1 "Atr+AOEA-s" 1
Layer: 1 1 "Anterior" 0
XUID: [1021 729 483349611 4928]
StyleMap: 0x0040
FSType: 0
OS2Version: 4
OS2_WeightWidthSlopeOnly: 0
OS2_UseTypoMetrics: 1
CreationTime: 1775009298
ModificationTime: 1776586234
PfmFamily: 17
TTFWeight: 400
TTFWidth: 5
LineGap: 99
VLineGap: 0
Panose: 2 0 5 3 0 0 0 0 0 0
OS2TypoAscent: 878
OS2TypoAOffset: 0
OS2TypoDescent: -246
OS2TypoDOffset: 0
OS2TypoLinegap: 99
OS2WinAscent: 878
OS2WinAOffset: 0
OS2WinDescent: 246
OS2WinDOffset: 0
HheadAscent: 878
HheadAOffset: 0
HheadDescent: -246
HheadDOffset: 0
OS2SubXSize: 713
OS2SubYSize: 768
OS2SubXOff: 0
OS2SubYOff: 154
OS2SupXSize: 713
OS2SupYSize: 768
OS2SupXOff: 0
OS2SupYOff: 527
OS2StrikeYSize: 54
OS2StrikeYPos: 283
OS2CapHeight: 582
OS2XHeight: 490
OS2Vendor: 'CLGR'
OS2CodePages: 00000003.00000000
OS2UnicodeRanges: 00000003.00000000.00000000.00000000
MarkAttachClasses: 1
DEI: 91125
TtTable: prep
PUSHW_1
 511
SCANCTRL
PUSHB_1
 4
SCANTYPE
EndTTInstrs
TtTable: fpgm
PUSHB_1
 0
FDEF
PUSHB_1
 0
SZP0
MPPEM
PUSHB_1
 42
LT
IF
PUSHB_1
 74
SROUND
EIF
PUSHB_1
 0
SWAP
MIAP[rnd]
RTG
PUSHB_1
 6
CALL
IF
RTDG
EIF
MPPEM
PUSHB_1
 42
LT
IF
RDTG
EIF
DUP
MDRP[rp0,rnd,grey]
PUSHB_1
 1
SZP0
MDAP[no-rnd]
RTG
ENDF
PUSHB_1
 1
FDEF
DUP
MDRP[rp0,min,white]
PUSHB_1
 12
CALL
ENDF
PUSHB_1
 2
FDEF
MPPEM
GT
IF
RCVT
SWAP
EIF
POP
ENDF
PUSHB_1
 3
FDEF
ROUND[Black]
RTG
DUP
PUSHB_1
 64
LT
IF
POP

StartChar: .notdef
Encoding: 65536 -1 0
Width: 890
GlyphClass: 1
Flags: W
LayerCount: 2
Fore
SplineSet
112 -543 m 1,0,-1
 777 -543 l 1,1,-1
 777 1461 l 1,2,-1
 112 1461 l 1,3,-1
 112 -543 l 1,0,-1
2 -654 m 1,4,-1
 2 1572 l 1,5,-1
 888 1572 l 1,6,-1
 888 -654 l 1,7,-1
 2 -654 l 1,4,-1
EndSplineSet
Validated: 1
EndChar

StartChar: exclam
Encoding: 33 33 35
Width: 252
GlyphClass: 1
Flags: W
LayerCount: 2
Fore
SplineSet
87 430 m 2,0,1
 75 650 75 650 75 669 c 128,-1,2
 75 688 75 688 80 690 c 0,3,4
 85 693 85 693 131 695 c 2,5,-1
 173 695 l 1,6,-1
 168 488 l 2,7,8
 163 278 163 278 161 255 c 2,9,-1
 156 230 l 1,10,-1
 129 230 l 1,11,-1
 96 233 l 1,12,-1
 87 430 l 2,0,1
62 121 m 0,13,14
 62 154 62 154 79 173.5 c 128,-1,15
 96 193 96 193 126 193 c 128,-1,16
 156 193 156 193 173 173 c 128,-1,17
 190 153 190 153 190 128 c 128,-1,18
 190 103 190 103 177.5 83.5 c 128,-1,19
 165 64 165 64 157.5 60.5 c 128,-1,20
 150 57 150 57 134 57 c 0,21,22
 62 59 62 59 62 121 c 0,13,14
EndSplineSet
Validated: 1
EndChar

StartChar: quotedbl
Encoding: 34 34 36
Width: 396
GlyphClass: 1
Flags: W
LayerCount: 2
Fore
SplineSet
230 549 m 1,0,-1
 335 573 l 1,1,-1
 307 338 l 1,2,-1
 255 335 l 1,3,-1
 230 549 l 1,0,-1
62 544 m 1,4,-1
 168 568 l 1,5,6
 167 568 167 568 139 333 c 1,7,-1
 87 330 l 1,8,-1
 62 544 l 1,4,-1
EndSplineSet
Validated: 5
EndChar

StartChar: numbersign
Encoding: 35 35 37
Width: 650
GlyphClass: 1
Flags: W
LayerCount: 2
Fore
SplineSet
482 710 m 1,0,-1
 521 685 l 1,1,-1
 500 545 l 1,2,-1
 588 534 l 1,3,-1
 576 466 l 1,4,-1
 482 462 l 1,5,-1
 461 351 l 1,6,-1
 543 345 l 1,7,-1
 541 283 l 1,8,-1
 451 279 l 1,9,-1
 405 58 l 1,10,-1
 351 94 l 1,11,-1
 482 710 l 1,0,-1
303 711 m 1,12,-1
 341 687 l 1,13,-1
 321 547 l 1,14,-1
 408 536 l 1,15,-1
 396 467 l 1,16,-1
 302 464 l 1,17,-1
 282 351 l 1,18,-1
 364 347 l 1,19,-1
 361 284 l 1,20,-1
 272 281 l 1,21,-1
 225 59 l 1,22,-1
 172 95 l 1,23,-1
 303 711 l 1,12,-1
62 278 m 1,24,-1
 98 342 l 1,25,-1
 185 342 l 1,26,-1
 170 271 l 1,27,-1
 62 278 l 1,24,-1
105 476 m 1,28,-1
 141 539 l 1,29,-1
 229 539 l 1,30,-1
 213 470 l 1,31,-1
 105 476 l 1,28,-1
EndSplineSet
Validated: 1
EndChar

StartChar: dollar
Encoding: 36 36 38
Width: 616
GlyphClass: 1
Flags: W
LayerCount: 2
Fore
SplineSet
122 445 m 0,0,1
 122 473 122 473 129 491.5 c 128,-1,2
 136 510 136 510 175.5 547 c 128,-1,3
 215 584 215 584 253 584 c 0,4,5
 255 584 255 584 260 585 c 1,6,-1
 260 673 l 1,7,-1
 285 673 l 1,8,-1
 285 579 l 1,9,10
 290 579 290 579 290 559 c 2,11,-1
 290 533 l 2,12,13
 290 507 290 507 286 497 c 128,-1,14
 282 487 282 487 268 483 c 0,15,16
 240 475 240 475 240 443 c 128,-1,17
 240 411 240 411 268 400 c 0,18,19
 283 392 283 392 286.5 378.5 c 128,-1,20
 290 365 290 365 290 329 c 2,21,-1
 290 269 l 1,22,-1
 265 274 l 2,23,24
 230 283 230 283 196 304 c 0,25,26
 122 350 122 350 122 445 c 0,0,1
555 461 m 2,27,28
 555 410 555 410 535 410 c 2,29,-1
 532 410 l 2,30,31
 495 413 495 413 490.5 420.5 c 128,-1,32
 486 428 486 428 486 453.5 c 128,-1,33
 486 479 486 479 481 482 c 128,-1,34
 476 485 476 485 399 493 c 2,35,-1
 325 500 l 1,36,-1
 325 589 l 1,37,-1
 325 671 l 1,38,-1
 352 671 l 1,39,-1
 352 589 l 1,40,-1
 381 589 l 2,41,42
 441 586 441 586 496 576 c 2,43,-1
 552 566 l 1,44,-1
 555 492 l 1,45,-1
 555 461 l 2,27,28
350 246 m 0,46,47
 331 254 331 254 328 261.5 c 128,-1,48
 325 269 325 269 325 310 c 128,-1,49
 325 351 325 351 327.5 360.5 c 128,-1,50
 330 370 330 370 345.5 370 c 128,-1,51
 361 370 361 370 411 346.5 c 128,-1,52
 461 323 461 323 486 291 c 128,-1,53
 511 259 511 259 511 208.5 c 128,-1,54
 511 158 511 158 476 114.5 c 128,-1,55
 441 71 441 71 376 54 c 0,56,57
 356 49 356 49 350 49 c 2,58,-1
 342 49 l 1,59,-1
 342 -39 l 1,60,-1
 322 -39 l 1,61,-1
 322 65 l 1,62,-1
 325 65 l 1,63,-1
 325 104 l 2,64,65
 327 125 327 125 330 133 c 0,66,67
 335 143 335 143 350 149 c 0,68,69
 388 164 388 164 388 197.5 c 128,-1,70
 388 231 388 231 350 246 c 0,46,47
276 45 m 1,71,-1
 263 45 l 2,72,73
 250 45 250 45 186 55.5 c 128,-1,74
 122 66 122 66 97 73 c 2,75,-1
 62 85 l 1,76,-1
 65 158 l 1,77,-1
 67 234 l 1,78,79
 67 234 67 234 93.5 234 c 128,-1,80
 120 234 120 234 124.5 230 c 128,-1,81
 129 226 129 226 129 199.5 c 128,-1,82
 129 173 129 173 146.5 161.5 c 128,-1,83
 164 150 164 150 220 142 c 2,84,-1
 287 132 l 1,85,-1
 292 91 l 2,86,87
 296 73 296 73 295.5 61.5 c 128,-1,88
 295 50 295 50 295 48 c 2,89,-1
 295 -34 l 1,90,-1
 276 -34 l 1,91,-1
 276 45 l 1,71,-1
EndSplineSet
Validated: 1
EndChar

StartChar: percent
Encoding: 37 37 39
Width: 753
GlyphClass: 1
Flags: W
LayerCount: 2
Fore
SplineSet
241 554 m 2,0,1
 241 669 241 669 197.5 669 c 128,-1,2
 154 669 154 669 154 546.5 c 128,-1,3
 154 424 154 424 200 424 c 0,4,5
 241 424 241 424 241 543 c 2,6,-1
 241 554 l 2,0,1
202 746 m 1,7,8
 328 739 328 739 334 564 c 1,9,-1
 336 535 l 1,10,11
 336 433 336 433 281 379 c 0,12,13
 246 344 246 344 208 345 c 0,14,15
 123 345 123 345 82 429 c 0,16,17
 71 452 71 452 68 468.5 c 128,-1,18
 65 485 65 485 62 534 c 2,19,-1
 62 558 l 2,20,21
 62 688 62 688 131 729 c 0,22,23
 156 745 156 745 185 746 c 2,24,-1
 202 746 l 1,7,8
494 682 m 0,25,26
 494 687 494 687 532.5 687 c 128,-1,27
 571 687 571 687 571 674.5 c 128,-1,28
 571 662 571 662 427.5 399.5 c 128,-1,29
 284 137 284 137 264 97.5 c 128,-1,30
 244 58 244 58 241 54.5 c 128,-1,31
 238 51 238 51 203.5 55.5 c 128,-1,32
 169 60 169 60 169 68 c 0,33,34
 169 83 169 83 331.5 377.5 c 128,-1,35
 494 672 494 672 494 682 c 0,25,26
598 262 m 2,36,37
 598 377 598 377 554 377 c 128,-1,38
 510 377 510 377 510 254.5 c 128,-1,39
 510 132 510 132 556 132 c 0,40,41
 597 132 597 132 598 251 c 2,42,-1
 598 262 l 2,36,37
558 454 m 1,43,44
 684 447 684 447 691 271 c 2,45,-1
 692 243 l 2,46,47
 692 141 692 141 637 87 c 0,48,49
 602 52 602 52 564 53 c 0,50,51
 479 53 479 53 438 137 c 0,52,53
 427 160 427 160 424 176 c 128,-1,54
 421 192 421 192 418 242 c 2,55,-1
 418 266 l 2,56,57
 418 396 418 396 487 437 c 0,58,59
 512 453 512 453 541 454 c 2,60,-1
 558 454 l 1,43,44
EndSplineSet
Validated: 33
EndChar

StartChar: ampersand
Encoding: 38 38 40
Width: 712
GlyphClass: 1
Flags: W
LayerCount: 2
Fore
SplineSet
438 598 m 1,0,1
 451 572 451 572 451 530.5 c 128,-1,2
 451 489 451 489 413 442 c 0,3,4
 385 402 385 402 343 379 c 1,5,-1
 406 309 l 1,6,-1
 435 288 l 1,7,-1
 481 243 l 1,8,-1
 515 322 l 1,9,-1
 620 365 l 1,10,11
 620 255 620 255 546 177 c 1,12,-1
 651 55 l 1,13,-1
 528 60 l 1,14,-1
 481 108 l 1,15,16
 398 61 398 61 271 45 c 0,17,18
 254 43 254 43 236 43 c 0,19,20
 187 43 187 43 147 65 c 1,21,-1
 116 96 l 1,22,-1
 115 96 l 2,23,24
 108 96 108 96 78 139 c 0,25,26
 75 146 75 146 68.5 175.5 c 128,-1,27
 62 205 62 205 62 226 c 128,-1,28
 62 247 62 247 72 276 c 0,29,30
 95 340 95 340 161 382 c 0,31,32
 181 394 181 394 185 393 c 1,33,34
 159 402 159 402 141 445 c 1,35,-1
 230 501 l 1,36,37
 246 455 246 455 281 453 c 2,38,-1
 285 453 l 2,39,40
 344 453 344 453 346 530 c 0,41,42
 346 540 346 540 344 549 c 1,43,-1
 438 598 l 1,0,1
356 227 m 1,44,-1
 332 252 l 1,45,-1
 251 324 l 1,46,47
 195 293 195 293 195 223 c 0,48,49
 195 197 195 197 203 166 c 1,50,-1
 223 135 l 1,51,52
 251 128 251 128 279 128 c 0,53,54
 348 128 348 128 415 173 c 1,55,-1
 356 227 l 1,44,-1
420 628 m 1,56,-1
 320 583 l 1,57,58
 304 592 304 592 279 593 c 0,59,60
 230 593 230 593 225 542 c 1,61,-1
 134 481 l 1,62,63
 125 508 125 508 125 546.5 c 128,-1,64
 125 585 125 585 149 617 c 0,65,66
 193 685 193 685 296 685 c 0,67,68
 371 685 371 685 420 628 c 1,56,-1
EndSplineSet
Validated: 1
EndChar

StartChar: quotesingle
Encoding: 39 39 41
Width: 229
GlyphClass: 1
Flags: W
LayerCount: 2
Fore
SplineSet
62 544 m 1,0,-1
 167 568 l 1,1,2
 166 568 166 568 139 333 c 1,3,-1
 87 331 l 1,4,-1
 62 544 l 1,0,-1
EndSplineSet
Validated: 5
EndChar

StartChar: parenleft
Encoding: 40 40 42
Width: 331
GlyphClass: 1
Flags: W
LayerCount: 2
Fore
SplineSet
193 22 m 1,0,1
 65 124 65 124 62 393 c 0,2,3
 62 421 62 421 65 449 c 0,4,5
 80 763 80 763 193 835 c 1,6,-1
 270 790 l 1,7,8
 168 726 168 726 156 441 c 1,9,-1
 156 386 l 2,10,11
 156 146 156 146 260 64 c 1,12,-1
 193 22 l 1,0,1
EndSplineSet
Validated: 1
EndChar

StartChar: parenright
Encoding: 41 41 43
Width: 331
GlyphClass: 1
Flags: W
LayerCount: 2
Fore
SplineSet
141 25 m 1,0,-1
 75 67 l 1,1,2
 179 149 179 149 179 389 c 0,3,4
 179 417 179 417 176 444 c 0,5,6
 164 729 164 729 62 793 c 1,7,-1
 141 838 l 1,8,9
 255 766 255 766 270 452 c 1,10,-1
 270 396 l 2,11,12
 270 127 270 127 141 25 c 1,0,-1
EndSplineSet
Validated: 1
EndChar

StartChar: asterisk
Encoding: 42 42 44
Width: 529
GlyphClass: 1
Flags: W
LayerCount: 2
Fore
SplineSet
219 493 m 128,-1,1
 219 513 219 513 231.5 525.5 c 128,-1,2
 244 538 244 538 262.5 538 c 128,-1,3
 281 538 281 538 293.5 525.5 c 128,-1,4
 306 513 306 513 306 493 c 128,-1,5
 306 473 306 473 293.5 460.5 c 128,-1,6
 281 448 281 448 262.5 448 c 128,-1,7
 244 448 244 448 231.5 460.5 c 128,-1,0
 219 473 219 473 219 493 c 128,-1,1
311 538 m 1,8,-1
 446 576 l 1,9,-1
 467 487 l 1,10,-1
 326 496 l 1,11,-1
 311 538 l 1,8,-1
314 305 m 1,12,-1
 292 437 l 1,13,-1
 323 447 l 1,14,-1
 403 346 l 1,15,-1
 314 305 l 1,12,-1
208 465 m 1,16,-1
 252 430 l 1,17,-1
 196 307 l 1,18,-1
 114 348 l 1,19,-1
 208 465 l 1,16,-1
72 578 m 1,20,-1
 193 538 l 1,21,-1
 200 475 l 1,22,-1
 62 485 l 1,23,-1
 72 578 l 1,20,-1
211 695 m 1,24,-1
 303 693 l 1,25,-1
 282 552 l 1,26,-1
 230 549 l 1,27,-1
 211 695 l 1,24,-1
EndSplineSet
Validated: 1
EndChar

StartChar: plus
Encoding: 43 43 45
Width: 527
GlyphClass: 1
Flags: W
LayerCount: 2
Fore
SplineSet
228 171 m 1,0,-1
 228 320 l 1,1,-1
 265 317 l 1,2,-1
 300 316 l 1,3,-1
 300 175 l 1,4,-1
 265 174 l 1,5,-1
 228 171 l 1,0,-1
239 599 m 1,6,-1
 305 599 l 1,7,-1
 301 445 l 1,8,-1
 218 443 l 1,9,-1
 239 599 l 1,6,-1
463 344 m 1,10,-1
 62 344 l 1,11,-1
 62 413 l 1,12,-1
 139 416 l 2,13,14
 216 418 216 418 340 420 c 2,15,-1
 466 421 l 1,16,-1
 463 344 l 1,10,-1
EndSplineSet
Validated: 1
EndChar

StartChar: comma
Encoding: 44 44 46
Width: 274
GlyphClass: 1
Flags: W
LayerCount: 2
Fore
SplineSet
200 103 m 1,0,-1
 212 15 l 1,1,-1
 160 -67 l 1,2,-1
 62 -64 l 1,3,-1
 123 10 l 1,4,-1
 113 98 l 1,5,-1
 200 103 l 1,0,-1
EndSplineSet
Validated: 1
EndChar

StartChar: hyphen
Encoding: 45 45 47
Width: 326
GlyphClass: 1
Flags: W
LayerCount: 2
Fore
SplineSet
62 401 m 1,0,-1
 265 401 l 1,1,-1
 265 325 l 1,2,-1
 62 325 l 1,3,-1
 62 401 l 1,0,-1
EndSplineSet
Validated: 1
EndChar

StartChar: period
Encoding: 46 46 48
Width: 256
GlyphClass: 1
Flags: W
LayerCount: 2
Fore
SplineSet
62 62 m 0,0,1
 61 88 61 88 80.5 106 c 128,-1,2
 100 124 100 124 127.5 124 c 128,-1,3
 155 124 155 124 175 106 c 128,-1,4
 195 88 195 88 195 61.5 c 128,-1,5
 195 35 195 35 175 17 c 128,-1,6
 155 -1 155 -1 127.5 -1 c 128,-1,7
 100 -1 100 -1 80.5 17.5 c 128,-1,8
 61 36 61 36 62 62 c 0,0,1
EndSplineSet
Validated: 33
EndChar

StartChar: slash
Encoding: 47 47 49
Width: 409
GlyphClass: 1
Flags: W
LayerCount: 2
Fore
SplineSet
62 58 m 1,0,-1
 280 677 l 1,1,-1
 347 674 l 1,2,-1
 141 56 l 1,3,-1
 62 58 l 1,0,-1
EndSplineSet
Validated: 1
EndChar

StartChar: zero
Encoding: 48 48 50
Width: 730
GlyphClass: 1
Flags: W
LayerCount: 2
Fore
SplineSet
61 276 m 0,0,1
 61 506 61 506 248 590 c 0,2,3
 291 609 291 609 315 609 c 128,-1,4
 339 609 339 609 343 601.5 c 128,-1,5
 347 594 347 594 347 554.5 c 128,-1,6
 347 515 347 515 342 504.5 c 128,-1,7
 337 494 337 494 314 485 c 0,8,9
 266 466 266 466 235.5 407.5 c 128,-1,10
 205 349 205 349 204 294.5 c 128,-1,11
 203 240 203 240 194 221.5 c 128,-1,12
 185 203 185 203 149.5 162 c 128,-1,13
 114 121 114 121 96 121 c 2,14,-1
 95 121 l 1,15,16
 81 130 81 130 71 176.5 c 128,-1,17
 61 223 61 223 61 276 c 0,0,1
521 278 m 0,18,19
 525 320 525 320 533.5 342 c 128,-1,20
 542 364 542 364 579 409 c 128,-1,21
 616 454 616 454 624.5 454 c 128,-1,22
 633 454 633 454 640 445 c 0,23,24
 670 400 670 400 670 297 c 0,25,26
 670 130 670 130 586 38 c 0,27,28
 524 -31 524 -31 426 -48 c 2,29,-1
 380 -56 l 1,30,-1
 380 4 l 2,31,32
 381 48 381 48 387.5 59 c 128,-1,33
 394 70 394 70 417 83 c 0,34,35
 508 128 508 128 521 278 c 0,18,19
164 130 m 1,36,-1
 444 471 l 1,37,38
 444 486 444 486 421.5 488.5 c 128,-1,39
 399 491 399 491 391 499 c 128,-1,40
 383 507 383 507 382 551 c 2,41,-1
 380 609 l 1,42,-1
 414 609 l 2,43,44
 449 609 449 609 510.5 578.5 c 128,-1,45
 572 548 572 548 590 524 c 2,46,-1
 612 493 l 1,47,-1
 570 448 l 2,48,49
 559 436 559 436 527.5 403 c 128,-1,50
 496 370 496 370 398 258 c 2,51,-1
 267 112 l 1,52,-1
 292 92 l 2,53,54
 317 71 317 71 328 71 c 0,55,56
 347 71 347 71 347 8 c 2,57,-1
 347 -56 l 1,58,-1
 302 -48 l 2,59,60
 213 -33 213 -33 145 37 c 2,61,-1
 112 70 l 1,62,-1
 164 130 l 1,36,-1
EndSplineSet
Validated: 1
EndChar

StartChar: one
Encoding: 49 49 51
Width: 445
GlyphClass: 1
Flags: W
LayerCount: 2
Fore
SplineSet
290 612 m 1,0,1
 309 615 309 615 316 615 c 2,2,-1
 325 615 l 1,3,4
 375 609 375 609 375 297 c 2,5,-1
 375 -15 l 1,6,-1
 233 -15 l 1,7,-1
 233 208 l 2,8,9
 233 432 233 432 226 438 c 0,10,11
 225 439 225 439 217.5 439 c 128,-1,12
 210 439 210 439 165 414.5 c 128,-1,13
 120 390 120 390 117.5 390 c 128,-1,14
 115 390 115 390 92.5 436.5 c 128,-1,15
 70 483 70 483 70 491 c 0,16,17
 70 507 70 507 125 536.5 c 128,-1,18
 180 566 180 566 235 590 c 2,19,-1
 290 612 l 1,0,1
EndSplineSet
Validated: 1
EndChar

StartChar: two
Encoding: 50 50 52
Width: 590
GlyphClass: 1
Flags: W
LayerCount: 2
Fore
SplineSet
73 -20 m 1,0,-1
 73 44 l 1,1,-1
 73 101 l 1,2,-1
 300 99 l 1,3,-1
 527 95 l 1,4,-1
 527 -21 l 1,5,-1
 300 -17 l 1,6,-1
 73 -20 l 1,0,-1
370 427 m 0,7,8
 370 451 370 451 347.5 473 c 128,-1,9
 325 495 325 495 319.5 511.5 c 128,-1,10
 314 528 314 528 314 563.5 c 128,-1,11
 314 599 314 599 318.5 607 c 128,-1,12
 323 615 323 615 345 615 c 0,13,14
 396 615 396 615 446 574 c 0,15,16
 517 516 517 516 517 434 c 0,17,18
 517 316 517 316 369 194 c 2,19,-1
 295 134 l 1,20,-1
 210 134 l 2,21,22
 130 134 130 134 130 142 c 128,-1,23
 130 150 130 150 191 204 c 0,24,25
 370 362 370 362 370 427 c 0,7,8
87 548 m 2,26,27
 109 569 109 569 158.5 592 c 128,-1,28
 208 615 208 615 234.5 615 c 128,-1,29
 261 615 261 615 265.5 607.5 c 128,-1,30
 270 600 270 600 270 557 c 128,-1,31
 270 514 270 514 264.5 505.5 c 128,-1,32
 259 497 259 497 222 485 c 128,-1,33
 185 473 185 473 165.5 451.5 c 128,-1,34
 146 430 146 430 139 430 c 0,35,36
 127 430 127 430 96 477 c 2,37,-1
 63 524 l 1,38,-1
 87 548 l 2,26,27
EndSplineSet
Validated: 1
EndChar

StartChar: three
Encoding: 51 51 53
Width: 588
GlyphClass: 1
Flags: W
LayerCount: 2
Fore
SplineSet
201 336 m 2,0,-1
 201 382 l 1,1,-1
 268 383 l 2,2,3
 306 383 306 383 335 405.5 c 128,-1,4
 364 428 364 428 364 449.5 c 128,-1,5
 364 471 364 471 342 493 c 128,-1,6
 320 515 320 515 314.5 531.5 c 128,-1,7
 309 548 309 548 309 583 c 2,8,-1
 309 638 l 1,9,-1
 347 630 l 2,10,11
 417 618 417 618 459.5 569 c 128,-1,12
 502 520 502 520 502 464 c 128,-1,13
 502 408 502 408 458 366 c 2,14,-1
 422 331 l 1,15,-1
 453 313 l 2,16,17
 486 296 486 296 505.5 257.5 c 128,-1,18
 525 219 525 219 525 177.5 c 128,-1,19
 525 136 525 136 511.5 104 c 128,-1,20
 498 72 498 72 462.5 41.5 c 128,-1,21
 427 11 427 11 388.5 0 c 128,-1,22
 350 -11 350 -11 333 -11 c 128,-1,23
 316 -11 316 -11 312.5 0 c 128,-1,24
 309 11 309 11 309 46 c 128,-1,25
 309 81 309 81 314.5 96 c 128,-1,26
 320 111 320 111 340 129 c 0,27,28
 375 157 375 157 375 186.5 c 128,-1,29
 375 216 375 216 364 231 c 0,30,31
 344 258 344 258 274 264 c 2,32,-1
 205 268 l 1,33,34
 201 321 201 321 201 336 c 2,0,-1
216 -4 m 2,35,36
 176 -3 176 -3 119.5 18 c 128,-1,37
 63 39 63 39 63 64 c 0,38,39
 63 76 63 76 81.5 120 c 128,-1,40
 100 164 100 164 105.5 164 c 128,-1,41
 111 164 111 164 140.5 145 c 128,-1,42
 170 126 170 126 219 114 c 2,43,-1
 270 101 l 1,44,-1
 270 -6 l 1,45,-1
 216 -4 l 2,35,36
79 563 m 0,46,47
 79 581 79 581 136.5 608 c 128,-1,48
 194 635 194 635 235 635 c 2,49,-1
 276 635 l 1,50,-1
 276 585 l 2,51,52
 276 547 276 547 264 532.5 c 128,-1,53
 252 518 252 518 214.5 509.5 c 128,-1,54
 177 501 177 501 165.5 486 c 128,-1,55
 154 471 154 471 145 471 c 0,56,57
 130 471 130 471 104.5 511.5 c 128,-1,58
 79 552 79 552 79 563 c 0,46,47
EndSplineSet
Validated: 1
EndChar

StartChar: four
Encoding: 52 52 54
Width: 667
GlyphClass: 1
Flags: W
LayerCount: 2
Fore
SplineSet
332 617 m 1,0,-1
 340 429 l 1,1,2
 275 336 275 336 212 238 c 1,3,-1
 273 233 l 1,4,-1
 332 227 l 1,5,6
 333 207 333 207 336.5 166 c 128,-1,7
 340 125 340 125 340 106 c 1,8,-1
 63 106 l 1,9,-1
 63 165 l 1,10,-1
 63 177 l 2,11,12
 63 214 63 214 86.5 253.5 c 128,-1,13
 110 293 110 293 260 509 c 1,14,-1
 332 617 l 1,0,-1
375 -21 m 1,15,-1
 375 635 l 1,16,-1
 522 635 l 1,17,-1
 522 233 l 1,18,-1
 604 233 l 1,19,-1
 604 106 l 1,20,-1
 522 106 l 1,21,-1
 522 -21 l 1,22,-1
 375 -21 l 1,15,-1
EndSplineSet
Validated: 1
EndChar

StartChar: five
Encoding: 53 53 55
Width: 602
GlyphClass: 1
Flags: W
LayerCount: 2
Fore
SplineSet
212 277 m 1,0,-1
 103 299 l 1,1,-1
 110 432 l 2,2,3
 118 564 118 564 124 591 c 0,4,5
 127 608 127 608 152 611 c 128,-1,6
 177 614 177 614 315 614 c 2,7,-1
 500 614 l 1,8,-1
 500 494 l 1,9,-1
 236 494 l 1,10,-1
 236 389 l 1,11,-1
 302 393 l 2,12,13
 325 394 325 394 326 394 c 0,14,15
 407 394 407 394 461 357 c 0,16,17
 539 302 539 302 539 195 c 0,18,19
 539 134 539 134 508 83 c 0,20,21
 443 -20 443 -20 275 -20 c 0,22,23
 160 -20 160 -20 89 27 c 2,24,-1
 63 45 l 1,25,-1
 83 89 l 2,26,27
 104 135 104 135 106.5 137.5 c 128,-1,28
 109 140 109 140 119 140 c 128,-1,29
 129 140 129 140 175.5 120 c 128,-1,30
 222 100 222 100 278 100 c 128,-1,31
 334 100 334 100 360.5 126 c 128,-1,32
 387 152 387 152 387 196 c 0,33,34
 387 285 387 285 275 284 c 0,35,36
 240 285 240 285 212 277 c 1,0,-1
EndSplineSet
Validated: 33
EndChar

StartChar: six
Encoding: 54 54 56
Width: 603
GlyphClass: 1
Flags: W
LayerCount: 2
Fore
SplineSet
219 265 m 0,0,1
 219 328 219 328 246.5 359.5 c 128,-1,2
 274 391 274 391 384 405 c 0,3,4
 403 408 403 408 412 408 c 1,5,-1
 414 409 l 1,6,7
 424 409 424 409 450 392 c 0,8,9
 542 334 542 334 542 211 c 0,10,11
 542 130 542 130 510 89.5 c 128,-1,12
 478 49 478 49 419 16 c 128,-1,13
 360 -17 360 -17 341 -17 c 0,14,15
 316 -17 316 -17 316.5 31.5 c 128,-1,16
 317 80 317 80 349 102 c 0,17,18
 370 118 370 118 387.5 149.5 c 128,-1,19
 405 181 405 181 405 214 c 128,-1,20
 405 247 405 247 379.5 272.5 c 128,-1,21
 354 298 354 298 318 298 c 0,22,23
 265 298 265 298 265 247 c 0,24,25
 265 209 265 209 299 203 c 0,26,27
 318 201 318 201 318 212 c 128,-1,28
 318 223 318 223 331 223 c 0,29,30
 349 223 349 223 349 201 c 2,31,-1
 348 188 l 2,32,33
 346 176 346 176 338.5 170 c 128,-1,34
 331 164 331 164 305 161 c 2,35,-1
 294 161 l 2,36,37
 219 161 219 161 219 265 c 0,0,1
470 522 m 2,38,-1
 438 526 l 1,39,40
 403 526 403 526 366 515 c 0,41,42
 281 489 281 489 234 422.5 c 128,-1,43
 187 356 187 356 187 249.5 c 128,-1,44
 187 143 187 143 257 107 c 0,45,46
 275 97 275 97 280 85.5 c 128,-1,47
 285 74 285 74 285 36 c 2,48,-1
 285 -18 l 1,49,-1
 244 -11 l 2,50,51
 148 6 148 6 91 102 c 0,52,53
 71 136 71 136 66 162 c 128,-1,54
 61 188 61 188 61 268.5 c 128,-1,55
 61 349 61 349 66 376 c 128,-1,56
 71 403 71 403 91 443 c 0,57,58
 136 530 136 530 196.5 570.5 c 128,-1,59
 257 611 257 611 365 634 c 0,60,61
 407 642 407 642 435 642 c 0,62,63
 487 642 487 642 486 565 c 0,64,65
 487 522 487 522 470 522 c 2,38,-1
EndSplineSet
Validated: 33
EndChar

StartChar: seven
Encoding: 55 55 57
Width: 597
GlyphClass: 1
Flags: W
LayerCount: 2
Fore
SplineSet
367.5 450 m 128,-1,1
 380 454 380 454 441 454 c 128,-1,2
 502 454 502 454 502 450 c 128,-1,3
 502 446 502 446 403.5 225.5 c 128,-1,4
 305 5 305 5 305 -5.5 c 128,-1,5
 305 -16 305 -16 223 -16 c 128,-1,6
 141 -16 141 -16 141 -12 c 128,-1,7
 141 -8 141 -8 233 190.5 c 128,-1,8
 325 389 325 389 340 417.5 c 128,-1,0
 355 446 355 446 367.5 450 c 128,-1,1
63 489 m 1,9,-1
 63 609 l 1,10,-1
 535 609 l 1,11,-1
 535 489 l 1,12,-1
 63 489 l 1,9,-1
EndSplineSet
Validated: 1
EndChar

StartChar: eight
Encoding: 56 56 58
Width: 547
GlyphClass: 1
Flags: W
LayerCount: 2
Fore
SplineSet
79 484 m 0,0,1
 79 573 79 573 174 626 c 0,2,3
 210 648 210 648 232 648 c 128,-1,4
 254 648 254 648 258 640 c 128,-1,5
 262 632 262 632 262 599 c 128,-1,6
 262 566 262 566 257.5 554.5 c 128,-1,7
 253 543 253 543 236 532 c 0,8,9
 201 512 201 512 201.5 476 c 128,-1,10
 202 440 202 440 233 407 c 0,11,12
 250 389 250 389 256 373.5 c 128,-1,13
 262 358 262 358 262 330 c 0,14,15
 262 283 262 283 227.5 261.5 c 128,-1,16
 193 240 193 240 193 176 c 0,17,18
 193 150 193 150 198.5 139 c 128,-1,19
 204 128 204 128 227.5 112.5 c 128,-1,20
 251 97 251 97 256.5 85.5 c 128,-1,21
 262 74 262 74 262 40 c 2,22,-1
 262 -11 l 1,23,-1
 218 -5 l 2,24,25
 147 7 147 7 104 58 c 128,-1,26
 61 109 61 109 61 175.5 c 128,-1,27
 61 242 61 242 109 296 c 2,28,-1
 149 339 l 1,29,-1
 127 359 l 2,30,31
 106 379 106 379 92.5 413.5 c 128,-1,32
 79 448 79 448 79 484 c 0,0,1
308 536 m 0,33,34
 291 536 291 536 291 601 c 0,35,36
 291 632 291 632 295 640 c 128,-1,37
 299 648 299 648 323.5 648 c 128,-1,38
 348 648 348 648 388 624 c 0,39,40
 472 579 472 579 473 476 c 0,41,42
 473 407 473 407 429 365 c 2,43,-1
 399 337 l 1,44,-1
 429 315 l 2,45,46
 487 269 487 269 487 184.5 c 128,-1,47
 487 100 487 100 446.5 53.5 c 128,-1,48
 406 7 406 7 337 -3 c 2,49,-1
 291 -11 l 1,50,-1
 291 46 l 2,51,52
 291 103 291 103 311 103 c 0,53,54
 324 103 324 103 341.5 128.5 c 128,-1,55
 359 154 359 154 359 182.5 c 128,-1,56
 359 211 359 211 340 240.5 c 128,-1,57
 321 270 321 270 308 270 c 0,58,59
 291 270 291 270 291 317 c 128,-1,60
 291 364 291 364 296 378.5 c 128,-1,61
 301 393 301 393 325.5 415.5 c 128,-1,62
 350 438 350 438 350 464.5 c 128,-1,63
 350 491 350 491 335 513.5 c 128,-1,64
 320 536 320 536 308 536 c 0,33,34
EndSplineSet
Validated: 33
EndChar

StartChar: nine
Encoding: 57 57 59
Width: 608
GlyphClass: 1
Flags: W
LayerCount: 2
Fore
SplineSet
188 102 m 0,0,1
 259 102 259 102 309 139 c 128,-1,2
 359 176 359 176 383 232 c 128,-1,3
 407 288 407 288 407 344 c 128,-1,4
 407 400 407 400 413.5 418 c 128,-1,5
 420 436 420 436 455.5 478 c 128,-1,6
 491 520 491 520 500 520 c 0,7,8
 504 520 504 520 512 509 c 0,9,10
 547 463 547 463 547 366 c 128,-1,11
 547 269 547 269 508 182 c 0,12,13
 424 1 424 1 203 -7 c 1,14,-1
 111 -13 l 1,15,-1
 111 112 l 1,16,-1
 153 105 l 2,17,18
 171 102 171 102 188 102 c 0,0,1
266 221 m 2,19,-1
 229 222 l 2,20,21
 192 222 192 222 172.5 233.5 c 128,-1,22
 153 245 153 245 153 250 c 0,23,24
 153 264 153 264 251 378 c 128,-1,25
 349 492 349 492 349 512 c 0,26,27
 349 527 349 527 301 527 c 128,-1,28
 253 527 253 527 226 500 c 128,-1,29
 199 473 199 473 199 447 c 2,30,-1
 204 386 l 2,31,32
 204 368 204 368 197.5 356.5 c 128,-1,33
 191 345 191 345 166 317 c 2,34,-1
 122 269 l 1,35,-1
 101 297 l 2,36,37
 61 346 61 346 61 426 c 0,38,39
 61 461 61 461 69 491.5 c 128,-1,40
 77 522 77 522 111.5 563.5 c 128,-1,41
 146 605 146 605 181 621 c 128,-1,42
 216 637 216 637 290.5 637 c 128,-1,43
 365 637 365 637 395.5 624 c 128,-1,44
 426 611 426 611 459 579 c 2,45,-1
 484 551 l 1,46,-1
 385 443 l 2,47,48
 286 338 286 338 286 326 c 0,49,50
 286 321 286 321 301 321 c 128,-1,51
 316 321 316 321 340 330 c 128,-1,52
 364 339 364 339 369 339 c 128,-1,53
 374 339 374 339 374 330.5 c 128,-1,54
 374 322 374 322 372 310 c 0,55,56
 362 255 362 255 338 238 c 128,-1,57
 314 221 314 221 266 221 c 2,19,-1
EndSplineSet
Validated: 1
EndChar

StartChar: colon
Encoding: 58 58 60
Width: 276
GlyphClass: 1
Flags: W
LayerCount: 2
Fore
SplineSet
75 19 m 0,0,1
 74 45 74 45 93.5 64 c 128,-1,2
 113 83 113 83 140.5 83 c 128,-1,3
 168 83 168 83 187.5 64 c 128,-1,4
 207 45 207 45 207 19 c 128,-1,5
 207 -7 207 -7 187.5 -25 c 128,-1,6
 168 -43 168 -43 140.5 -43 c 128,-1,7
 113 -43 113 -43 93.5 -25 c 128,-1,8
 74 -7 74 -7 75 19 c 0,0,1
69 372 m 0,9,10
 68 398 68 398 87.5 416.5 c 128,-1,11
 107 435 107 435 134 435 c 128,-1,12
 161 435 161 435 181 416.5 c 128,-1,13
 201 398 201 398 201 372 c 128,-1,14
 201 346 201 346 181 327.5 c 128,-1,15
 161 309 161 309 134 309 c 128,-1,16
 107 309 107 309 87.5 327.5 c 128,-1,17
 68 346 68 346 69 372 c 0,9,10
EndSplineSet
Validated: 33
EndChar

StartChar: semicolon
Encoding: 59 59 61
Width: 288
GlyphClass: 1
Flags: W
LayerCount: 2
Fore
SplineSet
89 440 m 0,0,1
 88 466 88 466 106.5 484.5 c 128,-1,2
 125 503 125 503 152.5 503 c 128,-1,3
 180 503 180 503 199.5 484.5 c 128,-1,4
 219 466 219 466 219 440 c 128,-1,5
 219 414 219 414 199.5 395.5 c 128,-1,6
 180 377 180 377 152.5 377 c 128,-1,7
 125 377 125 377 106.5 395.5 c 128,-1,8
 88 414 88 414 89 440 c 0,0,1
207 132 m 1,9,-1
 217 44 l 1,10,-1
 165 -39 l 1,11,-1
 69 -35 l 1,12,-1
 128 39 l 1,13,-1
 118 127 l 1,14,-1
 207 132 l 1,9,-1
EndSplineSet
Validated: 33
EndChar

StartChar: less
Encoding: 60 60 62
Width: 510
GlyphClass: 1
Flags: W
LayerCount: 2
Fore
SplineSet
422 570 m 0,0,1
 443 570 443 570 443 546.5 c 128,-1,2
 443 523 443 523 442 518 c 0,3,4
 434 491 434 491 278 414 c 0,5,6
 190 372 190 372 189.5 368.5 c 128,-1,7
 189 365 189 365 250 337 c 2,8,-1
 314 307 l 2,9,10
 380 277 380 277 406 268 c 2,11,-1
 431 258 l 1,12,13
 444 248 444 248 444 217 c 128,-1,14
 444 186 444 186 436 181 c 1,15,-1
 434 181 l 1,16,17
 434 179 434 179 432 179 c 0,18,19
 419 179 419 179 254.5 252 c 128,-1,20
 90 325 90 325 77 333.5 c 128,-1,21
 64 342 64 342 66 367 c 2,22,-1
 68 389 l 1,23,-1
 179 449 l 2,24,25
 308 516 308 516 353.5 543 c 128,-1,26
 399 570 399 570 422 570 c 0,0,1
EndSplineSet
Validated: 33
EndChar

StartChar: equal
Encoding: 61 61 63
Width: 591
GlyphClass: 1
Flags: W
LayerCount: 2
Fore
SplineSet
66 368 m 1,0,-1
 524 368 l 1,1,-1
 524 262 l 1,2,-1
 66 262 l 1,3,-1
 66 368 l 1,0,-1
64 496 m 1,4,-1
 527 496 l 1,5,-1
 527 401 l 1,6,-1
 64 401 l 1,7,-1
 64 496 l 1,4,-1
EndSplineSet
Validated: 1
EndChar

StartChar: greater
Encoding: 62 62 64
Width: 510
GlyphClass: 1
Flags: W
LayerCount: 2
Fore
SplineSet
87 502 m 0,0,1
 111 502 111 502 156.5 474.5 c 128,-1,2
 202 447 202 447 330 380 c 2,3,-1
 442 323 l 1,4,-1
 444 299 l 2,5,6
 445 274 445 274 432 265.5 c 128,-1,7
 419 257 419 257 255.5 184.5 c 128,-1,8
 92 112 92 112 78 112 c 0,9,10
 77 112 77 112 76 114 c 2,11,-1
 74 114 l 1,12,13
 66 119 66 119 66 149.5 c 128,-1,14
 66 180 66 180 79 190 c 2,15,-1
 104 201 l 2,16,17
 130 212 130 212 196 241 c 2,18,-1
 260 269 l 2,19,20
 321 297 321 297 320.5 301 c 128,-1,21
 320 305 320 305 232 347 c 0,22,23
 76 424 76 424 68 451 c 0,24,25
 67 456 67 456 66.5 479 c 128,-1,26
 66 502 66 502 87 502 c 0,0,1
EndSplineSet
Validated: 33
EndChar

StartChar: question
Encoding: 63 63 65
Width: 488
GlyphClass: 1
Flags: W
LayerCount: 2
Fore
SplineSet
86 651 m 2,0,1
 132 688 132 688 239 688 c 0,2,3
 375 688 375 688 410 601 c 0,4,5
 423 571 423 571 422.5 524 c 128,-1,6
 422 477 422 477 410 455 c 128,-1,7
 398 433 398 433 345.5 383.5 c 128,-1,8
 293 334 293 334 279.5 315.5 c 128,-1,9
 266 297 266 297 261.5 267.5 c 128,-1,10
 257 238 257 238 250.5 230.5 c 128,-1,11
 244 223 244 223 217.5 223 c 128,-1,12
 191 223 191 223 183.5 230.5 c 128,-1,13
 176 238 176 238 176 276.5 c 128,-1,14
 176 315 176 315 194.5 347 c 128,-1,15
 213 379 213 379 261 422.5 c 128,-1,16
 309 466 309 466 309 473 c 128,-1,17
 309 480 309 480 321.5 493.5 c 128,-1,18
 334 507 334 507 334 513.5 c 128,-1,19
 334 520 334 520 326.5 543 c 128,-1,20
 319 566 319 566 313 573.5 c 128,-1,21
 307 581 307 581 284.5 590 c 128,-1,22
 262 599 262 599 227 599 c 128,-1,23
 192 599 192 599 163.5 582.5 c 128,-1,24
 135 566 135 566 124 566 c 0,25,26
 101 566 101 566 77 612 c 2,27,-1
 66 633 l 1,28,-1
 86 651 l 2,0,1
268 67 m 1,29,30
 245 49 245 49 240 48 c 128,-1,31
 235 47 235 47 213.5 49.5 c 128,-1,32
 192 52 192 52 181 57 c 0,33,34
 157 67 157 67 157 106.5 c 128,-1,35
 157 146 157 146 175 165.5 c 128,-1,36
 193 185 193 185 221 185 c 128,-1,37
 249 185 249 185 267.5 164.5 c 128,-1,38
 286 144 286 144 286 117 c 128,-1,39
 286 90 286 90 268 67 c 1,29,30
EndSplineSet
Validated: 33
EndChar

StartChar: at
Encoding: 64 64 66
Width: 796
GlyphClass: 1
Flags: W
LayerCount: 2
Fore
SplineSet
358 482 m 1,0,-1
 376 416 l 1,1,-1
 341 321 l 1,2,-1
 414 316 l 1,3,-1
 424 268 l 1,4,-1
 263 268 l 1,5,-1
 358 482 l 1,0,-1
373 503 m 1,6,-1
 418 501 l 1,7,8
 417 490 417 490 417 480 c 0,9,10
 417 352 417 352 606 268 c 0,11,12
 614 265 614 265 621 265 c 0,13,14
 659 265 659 265 659 380.5 c 128,-1,15
 659 496 659 496 582.5 574 c 128,-1,16
 506 652 506 652 396.5 652 c 128,-1,17
 287 652 287 652 209 574 c 128,-1,18
 131 496 131 496 131 383.5 c 128,-1,19
 131 271 131 271 208.5 193 c 128,-1,20
 286 115 286 115 384.5 115 c 128,-1,21
 483 115 483 115 552 167 c 1,22,-1
 598 121 l 1,23,24
 511 58 511 58 397 58 c 0,25,26
 261 58 261 58 161 155 c 128,-1,27
 61 252 61 252 61 390.5 c 128,-1,28
 61 529 61 529 159.5 625.5 c 128,-1,29
 258 722 258 722 396.5 722 c 128,-1,30
 535 722 535 722 635 625 c 128,-1,31
 735 528 735 528 735 390 c 0,32,33
 735 177 735 177 672 177 c 0,34,35
 666 177 666 177 658 180 c 0,36,37
 372 272 372 272 373 483 c 0,38,39
 373 493 373 493 373 503 c 1,6,-1
EndSplineSet
Validated: 33
EndChar

StartChar: A
Encoding: 65 65 67
Width: 750
GlyphClass: 1
Flags: W
LayerCount: 2
Fore
SplineSet
688 -18 m 0,0,1
 688 -31 688 -31 654.5 -31.5 c 128,-1,2
 621 -32 621 -32 606 -30 c 2,3,-1
 540 -27 l 1,4,-1
 506 72 l 1,5,6
 318 589 318 589 318 600 c 0,7,8
 318 604 318 604 346.5 604 c 128,-1,9
 375 604 375 604 387 602 c 2,10,-1
 459 600 l 1,11,-1
 479 550 l 2,12,13
 558 359 558 359 623 181.5 c 128,-1,14
 688 4 688 4 688 -18 c 0,0,1
264 -32 m 2,15,16
 62 -32 62 -32 62 -22.5 c 128,-1,17
 62 -13 62 -13 163 256 c 128,-1,18
 264 525 264 525 270 546 c 128,-1,19
 276 567 276 567 286 567 c 1,20,21
 294 560 294 560 323 475 c 2,22,-1
 350 388 l 1,23,-1
 301 250 l 2,24,25
 253 119 253 119 253 102.5 c 128,-1,26
 253 86 253 86 271 82 c 128,-1,27
 289 78 289 78 354.5 78 c 128,-1,28
 420 78 420 78 433 68 c 128,-1,29
 446 58 446 58 464 -5 c 1,30,-1
 469 -32 l 1,31,-1
 264 -32 l 2,15,16
EndSplineSet
Validated: 33
EndChar

StartChar: B
Encoding: 66 66 68
Width: 622
GlyphClass: 1
Flags: W
LayerCount: 2
Fore
SplineSet
61 -28 m 1,0,-1
 61 596 l 1,1,-1
 201 596 l 1,2,-1
 201 -28 l 1,3,-1
 61 -28 l 1,0,-1
242 540 m 1,4,-1
 242 564 l 2,5,6
 242 589 242 589 255 597.5 c 128,-1,7
 268 606 268 606 307.5 606 c 128,-1,8
 347 606 347 606 394 597 c 128,-1,9
 441 588 441 588 468.5 571 c 128,-1,10
 496 554 496 554 514.5 517 c 128,-1,11
 533 480 533 480 533 437 c 0,12,13
 533 367 533 367 482 338 c 0,14,15
 467 330 467 330 467 323.5 c 128,-1,16
 467 317 467 317 488 297 c 0,17,18
 561 231 561 231 561 171 c 0,19,20
 561 156 561 156 556 133 c 0,21,22
 541 60 541 60 487.5 26 c 128,-1,23
 434 -8 434 -8 330 -15 c 2,24,-1
 243 -20 l 1,25,-1
 247 38 l 1,26,-1
 249 96 l 1,27,-1
 309 101 l 2,28,29
 365 106 365 106 385 118 c 0,30,31
 415 136 415 136 414 190 c 0,32,33
 414 202 414 202 394.5 221.5 c 128,-1,34
 375 241 375 241 358 246.5 c 128,-1,35
 341 252 341 252 304 252 c 2,36,-1
 244 252 l 1,37,-1
 244 360 l 1,38,-1
 290 360 l 2,39,40
 385 360 385 360 385 430 c 0,41,42
 385 463 385 463 364.5 478 c 128,-1,43
 344 493 344 493 296 493 c 2,44,-1
 247 493 l 1,45,-1
 242 540 l 1,4,-1
EndSplineSet
Validated: 33
EndChar

StartChar: C
Encoding: 67 67 69
Width: 649
GlyphClass: 1
Flags: W
LayerCount: 2
Fore
SplineSet
435 116 m 2,0,1
 481 124 481 124 503 140.5 c 128,-1,2
 525 157 525 157 531 157 c 0,3,4
 544 157 544 157 566 109 c 128,-1,5
 588 61 588 61 588 52 c 0,6,7
 588 36 588 36 537 15 c 128,-1,8
 486 -6 486 -6 440 -12 c 2,9,-1
 382 -19 l 1,10,-1
 385 44 l 1,11,-1
 389 109 l 1,12,-1
 435 116 l 2,0,1
384 513 m 1,13,-1
 384 633 l 1,14,-1
 445 627 l 2,15,16
 489 624 489 624 538.5 605.5 c 128,-1,17
 588 587 588 587 588 572 c 0,18,19
 588 561 588 561 564 515 c 128,-1,20
 540 469 540 469 527 469 c 0,21,22
 520 469 520 469 488 484.5 c 128,-1,23
 456 500 456 500 425 505 c 2,24,-1
 384 513 l 1,13,-1
243 607 m 0,25,26
 291 630 291 630 317 630 c 128,-1,27
 343 630 343 630 346.5 621.5 c 128,-1,28
 350 613 350 613 350 570.5 c 128,-1,29
 350 528 350 528 344.5 517.5 c 128,-1,30
 339 507 339 507 313 493 c 0,31,32
 209 436 209 436 209 309.5 c 128,-1,33
 209 183 209 183 313 122 c 0,34,35
 334 111 334 111 342 102 c 128,-1,36
 350 93 350 93 350 56.5 c 128,-1,37
 350 20 350 20 342.5 3.5 c 128,-1,38
 335 -13 335 -13 317.5 -13 c 128,-1,39
 300 -13 300 -13 264 1 c 0,40,41
 139 49 139 49 84 165 c 0,42,43
 61 216 61 216 61 285 c 0,44,45
 61 423 61 423 104.5 493.5 c 128,-1,46
 148 564 148 564 243 607 c 0,25,26
EndSplineSet
Validated: 1
EndChar

StartChar: D
Encoding: 68 68 70
Width: 681
GlyphClass: 1
Flags: W
LayerCount: 2
Fore
SplineSet
206 545 m 1,0,-1
 204 236 l 1,1,-1
 201 -18 l 1,2,-1
 61 -18 l 1,3,-1
 61 608 l 1,4,-1
 206 601 l 1,5,-1
 206 545 l 1,0,-1
244 489 m 1,6,-1
 244 610 l 1,7,-1
 324 605 l 2,8,9
 464 595 464 595 542.5 514.5 c 128,-1,10
 621 434 621 434 621 299 c 0,11,12
 621 124 621 124 501 45 c 0,13,14
 456 17 456 17 394 -0.5 c 128,-1,15
 332 -18 332 -18 285 -18 c 2,16,-1
 244 -18 l 1,17,-1
 244 98 l 1,18,-1
 301 106 l 2,19,20
 389 118 389 118 426 163 c 128,-1,21
 463 208 463 208 464 295 c 128,-1,22
 465 382 465 382 430 428 c 0,23,24
 385 489 385 489 296 489 c 2,25,-1
 244 489 l 1,6,-1
EndSplineSet
Validated: 33
EndChar

StartChar: E
Encoding: 69 69 71
Width: 546
GlyphClass: 1
Flags: W
LayerCount: 2
Fore
SplineSet
63 485 m 1,0,-1
 63 604 l 1,1,-1
 471 604 l 1,2,-1
 471 485 l 1,3,-1
 63 485 l 1,0,-1
63 238 m 1,4,-1
 63 366 l 1,5,-1
 471 366 l 1,6,-1
 471 238 l 1,7,-1
 63 238 l 1,4,-1
63 -21 m 1,8,-1
 63 108 l 1,9,-1
 483 108 l 1,10,-1
 483 -21 l 1,11,-1
 63 -21 l 1,8,-1
EndSplineSet
Validated: 1
EndChar

StartChar: F
Encoding: 70 70 72
Width: 552
GlyphClass: 1
Flags: W
LayerCount: 2
Fore
SplineSet
64 -16 m 1,0,-1
 60 619 l 1,1,-1
 493 619 l 1,2,3
 490 580 490 580 486 495 c 1,4,5
 440 495 440 495 349 492.5 c 128,-1,6
 258 490 258 490 211 488 c 1,7,-1
 211 362 l 1,8,-1
 333 358 l 1,9,-1
 454 355 l 1,10,11
 454 337 454 337 456.5 299 c 128,-1,12
 459 261 459 261 461 243 c 1,13,-1
 338 240 l 1,14,-1
 216 237 l 1,15,-1
 213 117 l 1,16,-1
 215 -16 l 1,17,-1
 64 -16 l 1,0,-1
EndSplineSet
Validated: 1
EndChar

StartChar: G
Encoding: 71 71 73
Width: 718
GlyphClass: 1
Flags: W
LayerCount: 2
Fore
SplineSet
345 653 m 2,0,1
 359 653 359 653 363 642 c 128,-1,2
 367 631 367 631 367 585.5 c 128,-1,3
 367 540 367 540 362 530 c 128,-1,4
 357 520 357 520 322.5 507.5 c 128,-1,5
 288 495 288 495 255.5 452 c 128,-1,6
 223 409 223 409 222 321 c 2,7,-1
 222 315 l 2,8,9
 222 174 222 174 319 129 c 2,10,-1
 367 107 l 1,11,-1
 367 -25 l 1,12,-1
 325 -18 l 2,13,14
 243 -3 243 -3 174 55 c 0,15,16
 61 149 61 149 61 311 c 0,17,18
 61 554 61 554 276 636 c 0,19,20
 320 653 320 653 340 653 c 2,21,-1
 345 653 l 2,0,1
411 533 m 1,22,-1
 411 658 l 1,23,-1
 485 651 l 2,24,25
 546 646 546 646 592 627 c 128,-1,26
 638 608 638 608 638 589 c 0,27,28
 638 574 638 574 614.5 529.5 c 128,-1,29
 591 485 591 485 582 485 c 0,30,31
 577 485 577 485 544 500 c 128,-1,32
 511 515 511 515 460 525 c 2,33,-1
 411 533 l 1,22,-1
411 98 m 1,34,35
 496 118 496 118 513 123 c 1,36,-1
 513 249 l 1,37,-1
 378 249 l 1,38,-1
 378 362 l 1,39,40
 424 361 424 361 516 358.5 c 128,-1,41
 608 356 608 356 654 354 c 1,42,-1
 657 200 l 1,43,-1
 657 133 l 2,44,45
 657 67 657 67 653.5 53 c 128,-1,46
 650 39 650 39 630.5 26.5 c 128,-1,47
 611 14 611 14 544 -4.5 c 128,-1,48
 477 -23 477 -23 448.5 -23 c 128,-1,49
 420 -23 420 -23 415.5 -14.5 c 128,-1,50
 411 -6 411 -6 411 38 c 2,51,-1
 411 98 l 1,34,35
EndSplineSet
Validated: 1
EndChar

StartChar: H
Encoding: 72 72 74
Width: 664
GlyphClass: 1
Flags: W
LayerCount: 2
Fore
SplineSet
600 614 m 1,0,-1
 601 -17 l 1,1,-1
 455 -17 l 1,2,-1
 448 255 l 1,3,-1
 395 259 l 2,4,5
 389 259 389 259 377 260 c 0,6,7
 367 260 367 260 345 260 c 0,8,9
 332 260 332 260 307 259 c 0,10,11
 295 258 295 258 272 255 c 2,12,-1
 204 247 l 1,13,-1
 204 -11 l 1,14,-1
 63 -11 l 1,15,-1
 63 619 l 1,16,-1
 203 619 l 1,17,-1
 207 497 l 1,18,-1
 209 375 l 1,19,-1
 448 375 l 1,20,-1
 455 620 l 1,21,-1
 600 614 l 1,0,-1
EndSplineSet
Validated: 1
EndChar

StartChar: I
Encoding: 73 73 75
Width: 430
GlyphClass: 1
Flags: W
LayerCount: 2
Fore
SplineSet
298 505 m 1,0,-1
 293 77 l 1,1,-1
 331 77 l 2,2,3
 358 77 358 77 362.5 71.5 c 128,-1,4
 367 66 367 66 367 36 c 2,5,-1
 367 28 l 1,6,-1
 367 -20 l 1,7,-1
 63 -20 l 1,8,-1
 68 26 l 2,9,10
 71 58 71 58 76 65.5 c 128,-1,11
 81 73 81 73 102 77 c 2,12,-1
 135 82 l 1,13,-1
 140 290 l 1,14,-1
 140 498 l 1,15,-1
 102 505 l 2,16,17
 74 511 74 511 70 518 c 128,-1,18
 66 525 66 525 66 560 c 2,19,-1
 66 609 l 1,20,-1
 367 609 l 1,21,-1
 367 561 l 2,22,23
 367 526 367 526 362 519 c 128,-1,24
 357 512 357 512 332 509 c 2,25,-1
 298 505 l 1,0,-1
EndSplineSet
Validated: 1
EndChar

StartChar: J
Encoding: 74 74 76
Width: 403
GlyphClass: 1
Flags: W
LayerCount: 2
Fore
SplineSet
113 -32 m 1,0,-1
 140 -32 l 2,1,2
 166 -32 166 -32 181.5 -14 c 128,-1,3
 197 4 197 4 200.5 24 c 128,-1,4
 204 44 204 44 204 106 c 128,-1,5
 204 168 204 168 200 324 c 2,6,-1
 192 633 l 1,7,-1
 333 633 l 1,8,-1
 338 305 l 2,9,10
 341 116 341 116 341 77 c 0,11,12
 341 -33 341 -33 322 -75 c 128,-1,13
 303 -117 303 -117 268.5 -137.5 c 128,-1,14
 234 -158 234 -158 172 -158 c 2,15,-1
 150 -158 l 1,16,-1
 71 -153 l 1,17,-1
 68 -92 l 1,18,-1
 63 -30 l 1,19,-1
 113 -32 l 1,0,-1
EndSplineSet
Validated: 1
EndChar

StartChar: K
Encoding: 75 75 77
Width: 670
GlyphClass: 1
Flags: W
LayerCount: 2
Fore
SplineSet
342 482 m 2,0,-1
 437 610 l 1,1,-1
 516 610 l 2,2,3
 595 610 595 610 595 604 c 128,-1,4
 595 598 595 598 536 518.5 c 128,-1,5
 477 439 477 439 414 365 c 1,6,-1
 380 321 l 1,7,-1
 493 160 l 2,8,9
 608 -4 608 -4 608 -12.5 c 128,-1,10
 608 -21 608 -21 521 -21 c 2,11,-1
 437 -21 l 1,12,-1
 342 121 l 2,13,14
 288 201 288 201 267 240 c 128,-1,15
 246 279 246 279 246 310 c 128,-1,16
 246 341 246 341 266.5 373.5 c 128,-1,17
 287 406 287 406 342 482 c 2,0,-1
63 -21 m 1,18,-1
 63 610 l 1,19,-1
 204 610 l 1,20,-1
 204 -6 l 2,21,22
 204 -14 204 -14 135 -19 c 2,23,-1
 63 -21 l 1,18,-1
EndSplineSet
Validated: 1
EndChar

StartChar: L
Encoding: 76 76 78
Width: 533
GlyphClass: 1
Flags: W
LayerCount: 2
Fore
SplineSet
60 -17 m 1,0,-1
 60 103 l 1,1,-1
 474 103 l 1,2,-1
 474 -17 l 1,3,-1
 60 -17 l 1,0,-1
60 146 m 1,4,-1
 60 612 l 1,5,-1
 213 612 l 1,6,-1
 213 146 l 1,7,-1
 60 146 l 1,4,-1
EndSplineSet
Validated: 1
EndChar

StartChar: M
Encoding: 77 77 79
Width: 864
GlyphClass: 1
Flags: W
LayerCount: 2
Fore
SplineSet
261 275 m 2,0,1
 143 589 143 589 142 602 c 0,2,3
 142 608 142 608 166 608 c 128,-1,4
 190 608 190 608 207 607 c 2,5,-1
 274 602 l 1,6,-1
 351 400 l 1,7,8
 422 201 422 201 432 192 c 1,9,-1
 435 192 l 2,10,11
 443 192 443 192 509.5 380.5 c 128,-1,12
 576 569 576 569 586 569 c 128,-1,13
 596 569 596 569 596 421 c 2,14,-1
 596 277 l 1,15,16
 578 228 578 228 542.5 130 c 128,-1,17
 507 32 507 32 489 -16 c 1,18,-1
 430 -19 l 1,19,-1
 372 -22 l 1,20,-1
 261 275 l 2,0,1
759 584 m 2,21,-1
 801 -1 l 2,22,23
 801 -14 801 -14 788.5 -17.5 c 128,-1,24
 776 -21 776 -21 732 -21 c 2,25,-1
 663 -21 l 1,26,-1
 658 63 l 2,27,28
 652 143 652 143 640 335.5 c 128,-1,29
 628 528 628 528 628 568 c 2,30,-1
 628 609 l 1,31,-1
 694 609 l 2,32,33
 739 609 739 609 749 605.5 c 128,-1,34
 759 602 759 602 759 584 c 2,21,-1
219 277 m 1,35,36
 211 180 211 180 202 -21 c 1,37,-1
 133 -21 l 2,38,39
 86 -21 86 -21 74.5 -17.5 c 128,-1,40
 63 -14 63 -14 63 6.5 c 128,-1,41
 63 27 63 27 80.5 241.5 c 128,-1,42
 98 456 98 456 104.5 495.5 c 128,-1,43
 111 535 111 535 116 535 c 1,44,-1
 116 535 l 1,45,46
 127 529 127 529 172 402 c 2,47,-1
 219 277 l 1,35,36
EndSplineSet
Validated: 5
EndChar

StartChar: N
Encoding: 78 78 80
Width: 670
GlyphClass: 1
Flags: W
LayerCount: 2
Fore
SplineSet
78 593 m 1,0,-1
 76 594 l 1,1,-1
 76 597 l 2,2,3
 76 609 76 609 147 609 c 2,4,-1
 224 609 l 1,5,-1
 352 400 l 2,6,7
 408 308 408 308 508 147 c 128,-1,8
 608 -14 608 -14 608 -17.5 c 128,-1,9
 608 -21 608 -21 528 -21 c 2,10,-1
 449 -21 l 1,11,-1
 266 279 l 2,12,13
 96 555 96 555 78 593 c 1,0,-1
472 431 m 2,14,15
 468 497 468 497 467.5 546.5 c 128,-1,16
 467 596 467 596 474.5 602.5 c 128,-1,17
 482 609 482 609 543 609 c 2,18,-1
 608 609 l 1,19,-1
 608 336 l 2,20,21
 608 65 608 65 600 65 c 0,22,23
 595 65 595 65 538 167 c 2,24,-1
 479 267 l 1,25,-1
 472 431 l 2,14,15
63 250 m 2,26,27
 63 521 63 521 71 521 c 0,28,29
 73 521 73 521 132 422 c 2,30,-1
 191 321 l 1,31,-1
 194 152 l 1,32,-1
 196 -16 l 1,33,-1
 130 -19 l 1,34,-1
 63 -22 l 1,35,-1
 63 250 l 2,26,27
EndSplineSet
Validated: 33
EndChar

StartChar: O
Encoding: 79 79 81
Width: 760
GlyphClass: 1
Flags: W
LayerCount: 2
Fore
SplineSet
61 293 m 1,0,-1
 62 318 l 2,1,2
 72 533 72 533 283 605 c 0,3,4
 316 618 316 618 333 618 c 128,-1,5
 350 618 350 618 355 605.5 c 128,-1,6
 360 593 360 593 362 559 c 2,7,-1
 364 503 l 1,8,-1
 317 483 l 1,9,10
 237 443 237 443 223 382 c 0,11,12
 217 357 217 357 217 300 c 128,-1,13
 217 243 217 243 222 220 c 128,-1,14
 227 197 227 197 244 172 c 0,15,16
 294 101 294 101 387.5 101 c 128,-1,17
 481 101 481 101 524 187 c 0,18,19
 547 236 547 236 547 300.5 c 128,-1,20
 547 365 547 365 512.5 423.5 c 128,-1,21
 478 482 478 482 432 490 c 0,22,23
 410 496 410 496 403 509.5 c 128,-1,24
 396 523 396 523 396 542 c 2,25,-1
 397 573 l 2,26,27
 398 605 398 605 401 613 c 0,28,29
 406 620 406 620 414 620 c 128,-1,30
 422 620 422 620 430.5 621 c 128,-1,31
 439 622 439 622 467 613 c 0,32,33
 552 588 552 588 607 533 c 128,-1,34
 662 478 662 478 681 422.5 c 128,-1,35
 700 367 700 367 700 285 c 128,-1,36
 700 203 700 203 657 126 c 0,37,38
 577 -22 577 -22 380 -22 c 2,39,-1
 362 -22 l 2,40,41
 291 -22 291 -22 225 9 c 0,42,43
 61 86 61 86 61 293 c 1,0,-1
436 347.5 m 128,-1,45
 460 323 460 323 460 293.5 c 128,-1,46
 460 264 460 264 438.5 241.5 c 128,-1,47
 417 219 417 219 381 219 c 128,-1,48
 345 219 345 219 323.5 245.5 c 128,-1,49
 302 272 302 272 302 299 c 128,-1,50
 302 326 302 326 328.5 349 c 128,-1,51
 355 372 355 372 383.5 372 c 128,-1,44
 412 372 412 372 436 347.5 c 128,-1,45
EndSplineSet
Validated: 33
EndChar

StartChar: P
Encoding: 80 80 82
Width: 647
GlyphClass: 1
Flags: W
LayerCount: 2
Fore
SplineSet
315 297 m 2,0,1
 363 302 363 302 389.5 326 c 128,-1,2
 416 350 416 350 416 381 c 128,-1,3
 416 412 416 412 405 436.5 c 128,-1,4
 394 461 394 461 375 471 c 128,-1,5
 356 481 356 481 314.5 483 c 128,-1,6
 273 485 273 485 265.5 495 c 128,-1,7
 258 505 258 505 258 540.5 c 128,-1,8
 258 576 258 576 263 584 c 0,9,10
 269 601 269 601 313 601 c 128,-1,11
 357 601 357 601 411 586 c 0,12,13
 516 558 516 558 547 489 c 0,14,15
 562 451 562 451 562 399 c 0,16,17
 562 297 562 297 504.5 243.5 c 128,-1,18
 447 190 447 190 337 185 c 2,19,-1
 264 183 l 1,20,-1
 264 292 l 1,21,-1
 315 297 l 2,0,1
221 596 m 1,22,-1
 226 -17 l 1,23,-1
 85 -17 l 1,24,-1
 85 602 l 1,25,-1
 221 596 l 1,22,-1
EndSplineSet
Validated: 1
EndChar

StartChar: Q
Encoding: 81 81 83
Width: 762
GlyphClass: 1
Flags: W
LayerCount: 2
Fore
SplineSet
554.999023438 350 m 6,0,1
 552.999023438 394 552.999023438 394 545.499023438 416 c 132,-1,2
 537.999023438 438 537.999023438 438 515.499023438 469.5 c 132,-1,3
 492.999023438 501 492.999023438 501 466.999023438 515.5 c 132,-1,4
 440.999023438 530 440.999023438 530 396.999023438 530 c 132,-1,5
 352.999023438 530 352.999023438 530 334.999023438 525 c 132,-1,6
 316.999023438 520 316.999023438 520 281.499023438 489 c 132,-1,7
 245.999023438 458 245.999023438 458 233.499023438 427.5 c 132,-1,8
 220.999023438 397 220.999023438 397 220.999023438 338 c 4,9,10
 220.999023438 235 220.999023438 235 264.499023438 184 c 132,-1,11
 307.999023438 133 307.999023438 133 387.999023438 133 c 132,-1,12
 467.999023438 133 467.999023438 133 511.499023438 184 c 132,-1,13
 554.999023438 235 554.999023438 235 554.999023438 328 c 6,14,-1
 554.999023438 350 l 6,0,1
708.999023438 336 m 5,15,-1
 706.999023438 308 l 6,16,17
 698.999023438 170 698.999023438 170 608.999023438 88 c 6,18,-1
 566.999023438 49 l 5,19,-1
 626.999023438 -25 l 6,20,21
 682.999023438 -92 682.999023438 -92 682.499023438 -100 c 132,-1,22
 681.999023438 -108 681.999023438 -108 625.499023438 -108 c 132,-1,23
 568.999023438 -108 568.999023438 -108 560.999023438 -107 c 4,24,25
 522.999023438 -104 522.999023438 -104 486.999023438 -53 c 6,26,-1
 447.999023438 0 l 5,27,-1
 369.999023438 6 l 6,28,29
 210.999023438 19 210.999023438 19 125.999023438 133 c 4,30,31
 67.9990234375 210 67.9990234375 210 67.9990234375 329 c 132,-1,32
 67.9990234375 448 67.9990234375 448 132.999023438 533 c 4,33,34
 220.999023438 650 220.999023438 650 376.999023438 650 c 4,35,36
 454.999023438 650 454.999023438 650 524.499023438 622 c 132,-1,37
 593.999023438 594 593.999023438 594 637.999023438 542 c 4,38,39
 708.999023438 461 708.999023438 461 708.999023438 336 c 5,15,-1
391.999023438 252 m 4,40,41
 353.999023438 252 353.999023438 252 332.999023438 273.5 c 132,-1,42
 311.999023438 295 311.999023438 295 311.999023438 327 c 132,-1,43
 311.999023438 359 311.999023438 359 337.999023438 381.5 c 132,-1,44
 363.999023438 404 363.999023438 404 390.999023438 404 c 132,-1,45
 417.999023438 404 417.999023438 404 438.499023438 384 c 132,-1,46
 458.999023438 364 458.999023438 364 458.999023438 324 c 4,47,48
 459.999023438 252 459.999023438 252 391.999023438 252 c 4,40,41
EndSplineSet
EndChar

StartChar: R
Encoding: 82 82 84
Width: 643
GlyphClass: 1
Flags: W
LayerCount: 2
Fore
SplineSet
508 522 m 0,0,1
 529 502 529 502 537.5 483.5 c 128,-1,2
 546 465 546 465 546 416 c 0,3,4
 546 306 546 306 477 253 c 0,5,6
 452 235 452 235 452 220 c 128,-1,7
 452 205 452 205 517 96 c 128,-1,8
 582 -13 582 -13 582 -17 c 128,-1,9
 582 -21 582 -21 500 -21 c 2,10,-1
 414 -21 l 1,11,-1
 357 86 l 2,12,13
 300 193 300 193 268 199 c 0,14,15
 259 200 259 200 255.5 209.5 c 128,-1,16
 252 219 252 219 252 255 c 2,17,-1
 252 309 l 1,18,-1
 310 315 l 2,19,20
 360 320 360 320 379 338 c 128,-1,21
 398 356 398 356 398 396.5 c 128,-1,22
 398 437 398 437 379 454.5 c 128,-1,23
 360 472 360 472 310 477 c 2,24,-1
 252 483 l 1,25,-1
 248 526 l 2,26,27
 247 533 247 533 247 552.5 c 128,-1,28
 247 572 247 572 249 580 c 0,29,30
 255 597 255 597 296 597 c 0,31,32
 432 597 432 597 508 522 c 0,0,1
61 280 m 2,33,34
 61 584 61 584 71 593 c 0,35,36
 74 596 74 596 102 596 c 128,-1,37
 130 596 130 596 143 595 c 2,38,-1
 207 591 l 1,39,-1
 211 285 l 1,40,-1
 214 -21 l 1,41,-1
 61 -21 l 1,42,-1
 61 280 l 2,33,34
EndSplineSet
Validated: 1
EndChar

StartChar: S
Encoding: 83 83 85
Width: 720
GlyphClass: 1
Flags: W
LayerCount: 2
Fore
SplineSet
131 445 m 0,0,1
 131 481 131 481 140.5 502 c 128,-1,2
 150 523 150 523 189.5 559 c 128,-1,3
 229 595 229 595 294 611 c 0,4,5
 311 615 311 615 320.5 615 c 128,-1,6
 330 615 330 615 333.5 603.5 c 128,-1,7
 337 592 337 592 337 556.5 c 128,-1,8
 337 521 337 521 332.5 508.5 c 128,-1,9
 328 496 328 496 311 491 c 0,10,11
 278 481 278 481 277.5 444 c 128,-1,12
 277 407 277 407 310 391 c 0,13,14
 328 381 328 381 332.5 366 c 128,-1,15
 337 351 337 351 337 307 c 2,16,-1
 337 235 l 1,17,-1
 307 241 l 2,18,19
 264 251 264 251 222 277 c 0,20,21
 131 333 131 333 131 445 c 0,0,1
660 501 m 1,22,-1
 660 465 l 2,23,24
 660 430 660 430 654.5 417.5 c 128,-1,25
 649 405 649 405 634 405 c 0,26,27
 590 405 590 405 580 420 c 0,28,29
 576 427 576 427 576 456 c 128,-1,30
 576 485 576 485 569.5 489.5 c 128,-1,31
 563 494 563 494 470 504 c 2,32,-1
 380 511 l 1,33,-1
 380 617 l 1,34,-1
 448 617 l 2,35,36
 520 615 520 615 587 602 c 2,37,-1
 657 590 l 1,38,-1
 660 501 l 1,22,-1
411 206 m 0,39,40
 389 216 389 216 384.5 228 c 128,-1,41
 380 240 380 240 380 287 c 128,-1,42
 380 334 380 334 383 345 c 128,-1,43
 386 356 386 356 408 356 c 128,-1,44
 430 356 430 356 487.5 327 c 128,-1,45
 545 298 545 298 575.5 261 c 128,-1,46
 606 224 606 224 606 163.5 c 128,-1,47
 606 103 606 103 565.5 51.5 c 128,-1,48
 525 0 525 0 443 -22 c 0,49,50
 417 -28 417 -28 404 -28.5 c 128,-1,51
 391 -29 391 -29 385.5 -24.5 c 128,-1,52
 380 -20 380 -20 380 22 c 128,-1,53
 380 64 380 64 385 74 c 128,-1,54
 390 84 390 84 410 91 c 0,55,56
 455 109 455 109 455 148.5 c 128,-1,57
 455 188 455 188 411 206 c 0,39,40
66 192 m 2,58,59
 66 193 66 193 98 193 c 128,-1,60
 130 193 130 193 135.5 188 c 128,-1,61
 141 183 141 183 141 152 c 128,-1,62
 141 121 141 121 162.5 107 c 128,-1,63
 184 93 184 93 254 83 c 2,64,-1
 335 70 l 1,65,-1
 340 22 l 2,66,67
 344 -2 344 -2 344.5 -16 c 128,-1,68
 345 -30 345 -30 342.5 -31.5 c 128,-1,69
 340 -33 340 -33 318 -33 c 128,-1,70
 296 -33 296 -33 214.5 -21 c 128,-1,71
 133 -9 133 -9 102 1 c 2,72,-1
 61 14 l 1,73,-1
 64 101 l 1,74,-1
 66 192 l 2,58,59
EndSplineSet
Validated: 33
EndChar

StartChar: T
Encoding: 84 84 86
Width: 665
GlyphClass: 1
Flags: W
LayerCount: 2
Fore
SplineSet
83 592 m 1,0,-1
 585 596 l 1,1,-1
 580 478 l 1,2,-1
 80 477 l 1,3,-1
 83 592 l 1,0,-1
411 440 m 1,4,-1
 406 -22 l 1,5,-1
 265 -22 l 1,6,-1
 260 209 l 1,7,-1
 258 440 l 1,8,-1
 411 440 l 1,4,-1
EndSplineSet
Validated: 1
EndChar

StartChar: U
Encoding: 85 85 87
Width: 654
GlyphClass: 1
Flags: W
LayerCount: 2
Fore
SplineSet
61 410 m 2,0,-1
 61 617 l 1,1,-1
 135 615 l 1,2,-1
 207 611 l 1,3,-1
 213 394 l 2,4,5
 215 269 215 269 220 219.5 c 128,-1,6
 225 170 225 170 236.5 149 c 128,-1,7
 248 128 248 128 274 116.5 c 128,-1,8
 300 105 300 105 305 93.5 c 128,-1,9
 310 82 310 82 310 41.5 c 128,-1,10
 310 1 310 1 307.5 -11 c 128,-1,11
 305 -23 305 -23 292.5 -23 c 128,-1,12
 280 -23 280 -23 254 -15 c 0,13,14
 174 8 174 8 130.5 54.5 c 128,-1,15
 87 101 87 101 74 154.5 c 128,-1,16
 61 208 61 208 61 410 c 2,0,-1
452 403 m 2,17,-1
 452 617 l 1,18,-1
 593 617 l 1,19,-1
 593 387 l 2,20,21
 593 193 593 193 580.5 136.5 c 128,-1,22
 568 80 568 80 511 32 c 0,23,24
 486 12 486 12 463 1.5 c 128,-1,25
 440 -9 440 -9 395 -18 c 2,26,-1
 354 -25 l 1,27,-1
 354 37 l 2,28,29
 354 82 354 82 359.5 94 c 128,-1,30
 365 106 365 106 390 117 c 128,-1,31
 415 128 415 128 425 138 c 0,32,33
 448 162 448 162 450 270 c 0,34,35
 452 306 452 306 452 403 c 2,17,-1
EndSplineSet
Validated: 1
EndChar

StartChar: V
Encoding: 86 86 88
Width: 716
GlyphClass: 1
Flags: W
LayerCount: 2
Fore
SplineSet
245 65 m 2,0,1
 235 92 235 92 197 202 c 128,-1,2
 159 312 159 312 109.5 447 c 128,-1,3
 60 582 60 582 60 594.5 c 128,-1,4
 60 607 60 607 126.5 607 c 128,-1,5
 193 607 193 607 200 604 c 0,6,7
 215 593 215 593 315.5 297 c 128,-1,8
 416 1 416 1 416 -13.5 c 128,-1,9
 416 -28 416 -28 347 -28 c 2,10,-1
 280 -28 l 1,11,-1
 245 65 l 2,0,1
508 596 m 0,12,13
 511 606 511 606 580 606 c 128,-1,14
 649 606 649 606 652.5 602 c 128,-1,15
 656 598 656 598 656 589.5 c 128,-1,16
 656 581 656 581 646 554 c 128,-1,17
 636 527 636 527 559.5 315 c 128,-1,18
 483 103 483 103 468.5 64.5 c 128,-1,19
 454 26 454 26 449 26 c 0,20,21
 441 26 441 26 414 114 c 2,22,-1
 384 205 l 1,23,-1
 444 392 l 2,24,25
 505 593 505 593 508 596 c 0,12,13
EndSplineSet
Validated: 1
EndChar

StartChar: W
Encoding: 87 87 89
Width: 976
GlyphClass: 1
Flags: W
LayerCount: 2
Fore
SplineSet
357 1 m 0,0,1
 357 -19 357 -19 272 -19 c 0,2,3
 241 -19 241 -19 234.5 -12.5 c 128,-1,4
 228 -6 228 -6 150.5 270 c 128,-1,5
 73 546 73 546 65 586 c 2,6,-1
 60 615 l 1,7,-1
 132 615 l 2,8,9
 180 615 180 615 193 611 c 128,-1,10
 206 607 206 607 213.5 589 c 128,-1,11
 221 571 221 571 289 293.5 c 128,-1,12
 357 16 357 16 357 1 c 0,0,1
394 42 m 2,13,14
 386 42 386 42 364 131.5 c 128,-1,15
 342 221 342 221 342 250 c 128,-1,16
 342 279 342 279 383 441 c 128,-1,17
 424 603 424 603 446 610 c 0,18,19
 454 612 454 612 510 612 c 2,20,-1
 562 610 l 1,21,-1
 587 523 l 1,22,23
 731 -13 731 -13 731 -17 c 128,-1,24
 731 -21 731 -21 678.5 -21 c 128,-1,25
 626 -21 626 -21 613 -17 c 128,-1,26
 600 -13 600 -13 592 15 c 0,27,28
 500 370 500 370 493 370 c 1,29,30
 492 375 492 375 477 335.5 c 128,-1,31
 462 296 462 296 433 172.5 c 128,-1,32
 404 49 404 49 396 42 c 1,33,-1
 394 42 l 2,13,14
792 610 m 0,34,35
 801 616 801 616 859 616 c 128,-1,36
 917 616 917 616 917 601 c 0,37,38
 916 583 916 583 843.5 307.5 c 128,-1,39
 771 32 771 32 763.5 32 c 128,-1,40
 756 32 756 32 726 147 c 2,41,-1
 698 255 l 1,42,-1
 738 426 l 2,43,44
 777 599 777 599 792 610 c 0,34,35
EndSplineSet
Validated: 33
EndChar

StartChar: X
Encoding: 88 88 90
Width: 709
GlyphClass: 1
Flags: W
LayerCount: 2
Fore
SplineSet
279 285 m 2,0,1
 72 595 72 595 72 602 c 0,2,3
 72 612 72 612 148 612 c 2,4,-1
 229 612 l 1,5,-1
 378 388 l 2,6,7
 550 131 550 131 570 101 c 0,8,9
 650 -11 650 -11 650 -64 c 1,10,11
 650 -24 650 -24 566 -24 c 2,12,-1
 485 -24 l 1,13,-1
 279 285 l 2,0,1
434 535 m 2,14,-1
 482 612 l 1,15,-1
 554 612 l 1,16,17
 673 596 673 596 633 554 c 0,18,19
 553 471 553 471 550 467 c 0,20,21
 467 343 467 343 455 343 c 0,22,23
 449 343 449 343 419 390 c 256,24,25
 389 437 389 437 389 448 c 0,26,27
 389 461 389 461 434 535 c 2,14,-1
153 132 m 2,28,-1
 244 268 l 1,29,-1
 261 244 l 2,30,31
 318 162 318 162 319 152 c 0,32,33
 319 141 319 141 266 58 c 2,34,-1
 214 -24 l 1,35,-1
 138 -24 l 2,36,37
 59 -24 59 -24 60 -15 c 0,38,39
 60 -5 60 -5 153 132 c 2,28,-1
EndSplineSet
Validated: 33
EndChar

StartChar: Y
Encoding: 89 89 91
Width: 704
GlyphClass: 1
Flags: W
LayerCount: 2
Fore
SplineSet
115 613 m 2,0,-1
 144 613 l 1,1,-1
 218 610 l 1,2,3
 308 444 308 444 419 243 c 1,4,-1
 419 -21 l 1,5,-1
 279 -21 l 1,6,-1
 279 99 l 1,7,-1
 279 129 l 2,8,9
 279 205 279 205 262.5 245 c 128,-1,10
 246 285 246 285 153 440.5 c 128,-1,11
 60 596 60 596 60 606 c 0,12,13
 61 613 61 613 115 613 c 2,0,-1
424 495 m 2,14,15
 478 592 478 592 488.5 604 c 128,-1,16
 499 616 499 616 572 616 c 128,-1,17
 645 616 645 616 645 604.5 c 128,-1,18
 645 593 645 593 549.5 441 c 128,-1,19
 454 289 454 289 445 289 c 0,20,21
 443 289 443 289 430 305.5 c 128,-1,22
 417 322 417 322 404 345 c 2,23,-1
 374 399 l 1,24,-1
 424 495 l 2,14,15
EndSplineSet
Validated: 1
EndChar

StartChar: Z
Encoding: 90 90 92
Width: 615
GlyphClass: 1
Flags: W
LayerCount: 2
Fore
SplineSet
193 94 m 2,0,1
 382 99 382 99 455 99 c 128,-1,2
 528 99 528 99 541.5 92.5 c 128,-1,3
 555 86 555 86 555 29 c 2,4,-1
 555 -29 l 1,5,-1
 60 -29 l 1,6,-1
 60 89 l 1,7,-1
 193 94 l 2,0,1
513 450 m 0,8,9
 513 440 513 440 395.5 295 c 128,-1,10
 278 150 278 150 259.5 136 c 128,-1,11
 241 122 241 122 170.5 122 c 128,-1,12
 100 122 100 122 100 130 c 128,-1,13
 100 138 100 138 207.5 276 c 128,-1,14
 315 414 315 414 341 435 c 128,-1,15
 367 456 367 456 440 456 c 128,-1,16
 513 456 513 456 513 450 c 0,8,9
73 539 m 2,17,18
 73 592 73 592 79 598.5 c 128,-1,19
 85 605 85 605 248 605 c 2,20,-1
 313 605 l 1,21,-1
 540 601 l 1,22,-1
 543 546 l 1,23,-1
 545 488 l 1,24,-1
 73 488 l 1,25,-1
 73 539 l 2,17,18
EndSplineSet
Validated: 1
EndChar

StartChar: bracketleft
Encoding: 91 91 93
Width: 342
GlyphClass: 1
Flags: W
LayerCount: 2
Fore
SplineSet
150 816 m 1,0,-1
 274 818 l 1,1,-1
 274 722 l 1,2,-1
 150 721 l 1,3,-1
 150 146 l 1,4,-1
 266 146 l 1,5,-1
 266 65 l 1,6,-1
 150 65 l 1,7,-1
 68 65 l 1,8,-1
 68 146 l 1,9,-1
 68 720 l 1,10,-1
 68 816 l 1,11,-1
 68 816 l 1,12,-1
 150 816 l 1,0,-1
EndSplineSet
Validated: 5
EndChar

StartChar: backslash
Encoding: 92 92 94
Width: 452
GlyphClass: 1
Flags: W
LayerCount: 2
Fore
SplineSet
298 25 m 0,0,1
 293 25 293 25 180 325 c 128,-1,2
 67 625 67 625 67 633.5 c 128,-1,3
 67 642 67 642 76 642 c 128,-1,4
 85 642 85 642 129 620 c 2,5,-1
 163 604 l 1,6,-1
 274 306 l 2,7,8
 386 7 386 7 385 -6 c 0,9,10
 385 -9 385 -9 372 -9 c 128,-1,11
 359 -9 359 -9 329 8 c 128,-1,12
 299 25 299 25 298 25 c 0,0,1
EndSplineSet
Validated: 33
EndChar

StartChar: bracketright
Encoding: 93 93 95
Width: 342
GlyphClass: 1
Flags: W
LayerCount: 2
Fore
SplineSet
192 816 m 1,0,-1
 274 816 l 1,1,-1
 274 816 l 1,2,-1
 274 720 l 1,3,-1
 274 146 l 1,4,-1
 274 65 l 1,5,-1
 192 65 l 1,6,-1
 76 65 l 1,7,-1
 76 146 l 1,8,-1
 192 146 l 1,9,-1
 192 721 l 1,10,-1
 68 722 l 1,11,-1
 68 818 l 1,12,-1
 192 816 l 1,0,-1
EndSplineSet
Validated: 5
EndChar

StartChar: asciicircum
Encoding: 94 94 96
Width: 424
GlyphClass: 2
Flags: W
LayerCount: 2
Fore
SplineSet
206 516 m 1,0,-1
 357 381 l 1,1,-1
 346 329 l 1,2,-1
 205 444 l 1,3,-1
 78 321 l 1,4,-1
 67 382 l 1,5,-1
 206 516 l 1,0,-1
EndSplineSet
Validated: 1
EndChar

StartChar: underscore
Encoding: 95 95 97
Width: 541
GlyphClass: 1
Flags: W
LayerCount: 2
Fore
SplineSet
65 99 m 1,0,-1
 476 99 l 1,1,-1
 476 14 l 1,2,-1
 65 14 l 1,3,-1
 65 99 l 1,0,-1
EndSplineSet
Validated: 1
EndChar

StartChar: grave
Encoding: 96 96 98
Width: 289
GlyphClass: 2
Flags: W
LayerCount: 2
Fore
SplineSet
169 489 m 1,0,-1
 129 495 l 1,1,2
 69 525 69 525 69 631 c 0,3,4
 69 649 69 649 69 669 c 1,5,-1
 149 722 l 1,6,7
 148 708 148 708 149 695 c 0,8,9
 149 565 149 565 220 553 c 1,10,-1
 208 513 l 1,11,-1
 169 489 l 1,0,-1
EndSplineSet
Validated: 1
EndChar

StartChar: a
Encoding: 97 97 99
Width: 647
VWidth: 1241
GlyphClass: 1
Flags: W
LayerCount: 2
Fore
SplineSet
20.75 25.2001953125 m 6,0,1
 23.169921875 40.9296875 23.169921875 40.9296875 102.424804688 222.4296875 c 132,-1,2
 181.6796875 403.9296875 181.6796875 403.9296875 187.729492188 415.424804688 c 132,-1,3
 193.779296875 426.919921875 193.779296875 426.919921875 198.620117188 426.919921875 c 4,4,5
 211.9296875 426.919921875 211.9296875 426.919921875 233.709960938 355.529296875 c 6,6,-1
 251.859375 293.8203125 l 5,7,-1
 217.979492188 210.330078125 l 6,8,9
 181.6796875 130.470703125 181.6796875 130.470703125 181.6796875 118.370117188 c 4,10,11
 181.6796875 99.009765625 181.6796875 99.009765625 254.279296875 99.009765625 c 6,12,-1
 323.25 99.009765625 l 5,13,-1
 335.349609375 55.4501953125 l 6,14,15
 341.400390625 30.0400390625 341.400390625 30.0400390625 341.400390625 17.9404296875 c 132,-1,16
 341.400390625 5.8408203125 341.400390625 5.8408203125 338.375 2.8154296875 c 132,-1,17
 335.349609375 -0.2099609375 335.349609375 -0.2099609375 173.209960938 -0.2099609375 c 6,18,-1
 14.7001953125 -0.2099609375 l 5,19,-1
 20.75 25.2001953125 l 6,0,1
230.080078125 478.950195312 m 4,20,21
 230.080078125 486.209960938 230.080078125 486.209960938 293 486.209960938 c 6,22,-1
 361.970703125 486.209960938 l 5,23,-1
 380.120117188 446.279296875 l 6,24,25
 383.75 432.970703125 383.75 432.970703125 477.525390625 224.245117188 c 132,-1,26
 571.299804688 15.5205078125 571.299804688 15.5205078125 571.299804688 8.865234375 c 132,-1,27
 571.299804688 2.2099609375 571.299804688 2.2099609375 526.529296875 2.2099609375 c 6,28,-1
 490.229492188 2.2099609375 l 5,29,-1
 410.370117188 3.419921875 l 5,30,-1
 326.879882812 221.220703125 l 6,31,32
 230.080078125 465.640625 230.080078125 465.640625 230.080078125 478.950195312 c 4,20,21
EndSplineSet
Validated: 1
EndChar

StartChar: b
Encoding: 98 98 100
Width: 564
VWidth: 1227
GlyphClass: 1
Flags: W
LayerCount: 2
Fore
SplineSet
160.560546875 574.90625 m 6,0,1
 164.013671875 540.870117188 164.013671875 540.870117188 164.013671875 306.0390625 c 128,-1,2
 164.013671875 71.205078125 164.013671875 71.205078125 146.75 22.421875 c 4,3,4
 138.693359375 -2.53515625 138.693359375 -2.53515625 104.166015625 -3.6689453125 c 6,5,-1
 28.208984375 -3.6689453125 l 5,6,-1
 28.208984375 300.365234375 l 2,7,8
 28.208984375 602.1328125 28.208984375 602.1328125 20.1533203125 623.6875 c 5,9,-1
 20.1533203125 627.091796875 l 6,10,11
 20.1533203125 639.569335938 20.1533203125 639.569335938 83.451171875 639.569335938 c 6,12,-1
 152.50390625 639.569335938 l 5,13,-1
 160.560546875 574.90625 l 6,0,1
490.862304688 235.701171875 m 2,14,-1
 489.7109375 209.609375 l 1,15,16
 480.504882812 113.1796875 480.504882812 113.1796875 422.38671875 50.216796875 c 128,-1,17
 364.265625 -12.7451171875 364.265625 -12.7451171875 284.856445312 -12.7451171875 c 4,18,19
 261.837890625 -12.7451171875 261.837890625 -12.7451171875 237.66796875 -7.072265625 c 132,-1,20
 213.500976562 -1.400390625 213.500976562 -1.400390625 206.596679688 6.5400390625 c 132,-1,21
 199.689453125 14.4814453125 199.689453125 14.4814453125 198.540039062 50.7841796875 c 2,22,-1
 196.236328125 99.56640625 l 1,23,-1
 237.66796875 99.56640625 l 2,24,25
 283.704101562 99.56640625 283.704101562 99.56640625 318.23046875 133.600585938 c 0,26,27
 333.192382812 149.483398438 333.192382812 149.483398438 338.372070312 164.797851562 c 128,-1,28
 343.549804688 180.112304688 343.549804688 180.112304688 343.549804688 220.953125 c 128,-1,29
 343.549804688 261.794921875 343.549804688 261.794921875 338.946289062 279.946289062 c 128,-1,30
 334.342773438 298.09765625 334.342773438 298.09765625 317.080078125 316.81640625 c 128,-1,31
 299.81640625 335.533203125 299.81640625 335.533203125 285.4296875 342.340820312 c 128,-1,32
 271.043945312 349.1484375 271.043945312 349.1484375 242.272460938 349.1484375 c 2,33,-1
 196.236328125 349.1484375 l 1,34,-1
 198.540039062 393.391601562 l 2,35,36
 201.991210938 422.887695312 201.991210938 422.887695312 207.74609375 432.53125 c 128,-1,37
 213.500976562 442.174804688 213.500976562 442.174804688 242.272460938 450.68359375 c 128,-1,38
 271.043945312 459.19140625 271.043945312 459.19140625 311.325195312 459.19140625 c 0,39,40
 403.39453125 459.19140625 403.39453125 459.19140625 456.3359375 368.432617188 c 0,41,42
 490.862304688 307.172851562 490.862304688 307.172851562 490.862304688 235.701171875 c 2,14,-1
EndSplineSet
Validated: 1
EndChar

StartChar: c
Encoding: 99 99 101
Width: 497
VWidth: 1249
GlyphClass: 1
Flags: W
LayerCount: 2
Fore
SplineSet
62.021484375 338.580078125 m 4,0,1
 128.693359375 454.067382812 128.693359375 454.067382812 279.27734375 454.067382812 c 4,2,3
 326.40625 454.067382812 326.40625 454.067382812 374.686523438 442.633789062 c 132,-1,4
 422.96484375 431.19921875 422.96484375 431.19921875 422.96484375 407.185546875 c 4,5,6
 422.96484375 395.752929688 422.96484375 395.752929688 406.296875 357.446289062 c 132,-1,7
 389.62890625 319.140625 389.62890625 319.140625 375.8359375 319.140625 c 4,8,9
 373.53515625 319.140625 373.53515625 319.140625 349.971679688 329.431640625 c 132,-1,10
 326.40625 339.72265625 326.40625 339.72265625 278.127929688 339.72265625 c 132,-1,11
 229.84765625 339.72265625 229.84765625 339.72265625 199.9609375 305.991210938 c 132,-1,12
 170.07421875 272.259765625 170.07421875 272.259765625 170.07421875 212.80078125 c 132,-1,13
 170.07421875 153.33984375 170.07421875 153.33984375 201.110351562 115.034179688 c 132,-1,14
 232.1484375 76.7294921875 232.1484375 76.7294921875 273.529296875 76.7294921875 c 132,-1,15
 314.911132812 76.7294921875 314.911132812 76.7294921875 348.24609375 93.880859375 c 6,16,-1
 387.331054688 114.462890625 l 5,17,-1
 410.321289062 76.7294921875 l 6,18,19
 425.263671875 48.142578125 425.263671875 48.142578125 425.263671875 33.2783203125 c 4,20,21
 425.263671875 8.1220703125 425.263671875 8.1220703125 379.858398438 -14.17578125 c 132,-1,22
 334.453125 -36.4716796875 334.453125 -36.4716796875 272.380859375 -36.4716796875 c 132,-1,23
 210.306640625 -36.4716796875 210.306640625 -36.4716796875 152.256835938 -10.1728515625 c 132,-1,24
 94.2080078125 16.126953125 94.2080078125 16.126953125 60.2978515625 75.5849609375 c 132,-1,25
 26.38671875 135.044921875 26.38671875 135.044921875 26.38671875 205.939453125 c 132,-1,26
 26.38671875 276.833984375 26.38671875 276.833984375 62.021484375 338.580078125 c 4,0,1
EndSplineSet
Validated: 1
EndChar

StartChar: d
Encoding: 100 100 102
Width: 525
VWidth: 1231
GlyphClass: 1
Flags: W
LayerCount: 2
Fore
SplineSet
23.7919921875 212.328125 m 4,0,1
 23.7919921875 297.391601562 23.7919921875 297.391601562 83.7529296875 363.427734375 c 4,2,3
 122.217773438 404.83984375 122.217773438 404.83984375 153.330078125 415.47265625 c 132,-1,4
 184.442382812 426.10546875 184.442382812 426.10546875 222.907226562 426.10546875 c 132,-1,5
 261.375 426.10546875 261.375 426.10546875 271.555664062 421.62890625 c 4,6,7
 288.52734375 416.032226562 288.52734375 416.032226562 289.090820312 379.65625 c 132,-1,8
 289.658203125 343.28125 289.658203125 343.28125 284.565429688 337.684570312 c 132,-1,9
 279.475585938 332.087890625 279.475585938 332.087890625 257.981445312 328.73046875 c 4,10,11
 157.2890625 315.299804688 157.2890625 315.299804688 157.2890625 214.567382812 c 4,12,13
 157.2890625 159.723632812 157.2890625 159.723632812 185.0078125 123.909179688 c 132,-1,14
 212.7265625 88.0908203125 212.7265625 88.0908203125 255.716796875 88.0908203125 c 4,15,16
 277.212890625 88.0908203125 277.212890625 88.0908203125 286.830078125 79.697265625 c 132,-1,17
 296.446289062 71.3037109375 296.446289062 71.3037109375 296.446289062 47.7998046875 c 4,18,19
 296.446289062 -9.2822265625 296.446289062 -9.2822265625 218.381835938 -9.2822265625 c 4,20,21
 114.298828125 -9.2822265625 114.298828125 -9.2822265625 54.337890625 100.40234375 c 4,22,23
 23.7919921875 157.485351562 23.7919921875 157.485351562 23.7919921875 212.328125 c 4,0,1
322.467773438 319.77734375 m 4,24,25
 321.3359375 319.77734375 321.3359375 319.77734375 320.770507812 449.609375 c 132,-1,26
 320.203125 579.442382812 320.203125 579.442382812 324.165039062 590.07421875 c 132,-1,27
 328.124023438 600.708007812 328.124023438 600.708007812 366.590820312 600.708007812 c 6,28,-1
 390.348632812 600.708007812 l 5,29,-1
 452.571289062 597.350585938 l 5,30,-1
 452.571289062 -4.8046875 l 5,31,-1
 403.922851562 -8.1640625 l 5,32,-1
 382.428710938 -8.1640625 l 6,33,34
 358.671875 -8.1640625 358.671875 -8.1640625 348.48828125 13.1015625 c 4,35,36
 324.729492188 62.349609375 324.729492188 62.349609375 322.467773438 319.77734375 c 4,24,25
EndSplineSet
Validated: 33
EndChar

StartChar: e
Encoding: 101 101 103
Width: 540
VWidth: 1241
GlyphClass: 1
Flags: W
LayerCount: 2
Fore
SplineSet
156.272460938 257.879882812 m 4,0,1
 154.372070312 257.879882812 154.372070312 257.879882812 157.22265625 224.76171875 c 132,-1,2
 160.0703125 191.64453125 160.0703125 191.64453125 167.670898438 176.059570312 c 132,-1,3
 175.268554688 160.474609375 175.268554688 160.474609375 202.33984375 135.635742188 c 132,-1,4
 229.411132812 110.797851562 229.411132812 110.797851562 275.478515625 110.797851562 c 132,-1,5
 321.545898438 110.797851562 321.545898438 110.797851562 355.740234375 125.89453125 c 132,-1,6
 389.935546875 140.993164062 389.935546875 140.993164062 398.482421875 140.993164062 c 132,-1,7
 407.033203125 140.993164062 407.033203125 140.993164062 411.305664062 134.174804688 c 132,-1,8
 415.581054688 127.356445312 415.581054688 127.356445312 426.029296875 100.5703125 c 132,-1,9
 436.4765625 73.783203125 436.4765625 73.783203125 436.4765625 64.04296875 c 132,-1,10
 436.4765625 54.3037109375 436.4765625 54.3037109375 423.178710938 42.6142578125 c 4,11,12
 377.586914062 3.65234375 377.586914062 3.65234375 270.252929688 3.65234375 c 4,13,14
 122.077148438 3.65234375 122.077148438 3.65234375 58.4375 102.03125 c 4,15,16
 22.3427734375 157.551757812 22.3427734375 157.551757812 22.3427734375 249.11328125 c 132,-1,17
 22.3427734375 340.673828125 22.3427734375 340.673828125 83.1337890625 410.805664062 c 132,-1,18
 143.923828125 480.936523438 143.923828125 480.936523438 243.181640625 480.936523438 c 132,-1,19
 342.44140625 480.936523438 342.44140625 480.936523438 396.107421875 431.260742188 c 132,-1,20
 449.775390625 381.583984375 449.775390625 381.583984375 462.124023438 269.567382812 c 6,21,-1
 467.821289062 206.254882812 l 5,22,-1
 197.115234375 206.254882812 l 5,23,-1
 197.115234375 290.998046875 l 5,24,-1
 264.555664062 290.998046875 l 6,25,26
 330.09375 290.998046875 330.09375 290.998046875 330.09375 321.192382812 c 4,27,28
 330.09375 338.725585938 330.09375 338.725585938 306.822265625 358.694335938 c 132,-1,29
 283.551757812 378.66015625 283.551757812 378.66015625 257.905273438 378.66015625 c 4,30,31
 158.171875 377.6875 158.171875 377.6875 156.272460938 257.879882812 c 4,0,1
EndSplineSet
Validated: 33
EndChar

StartChar: f
Encoding: 102 102 104
Width: 446
VWidth: 1231
GlyphClass: 1
Flags: W
LayerCount: 2
Fore
SplineSet
102.887695312 -7.3984375 m 5,0,-1
 94.2001953125 289.517578125 l 5,1,-1
 61.619140625 291.586914062 l 6,2,3
 38.814453125 292.620117188 38.814453125 292.620117188 34.470703125 299.862304688 c 132,-1,4
 30.1259765625 307.104492188 30.1259765625 307.104492188 30.1259765625 342.795898438 c 132,-1,5
 30.1259765625 378.48828125 30.1259765625 378.48828125 34.470703125 384.6953125 c 132,-1,6
 38.814453125 390.903320312 38.814453125 390.903320312 61.619140625 392.97265625 c 4,7,8
 103.973632812 398.145507812 103.973632812 398.145507812 104.517578125 447.802734375 c 132,-1,9
 105.059570312 497.4609375 105.059570312 497.4609375 132.208007812 532.635742188 c 4,10,11
 177.819335938 595.744140625 177.819335938 595.744140625 277.728515625 595.744140625 c 4,12,13
 312.48046875 595.744140625 312.48046875 595.744140625 338.000976562 587.983398438 c 132,-1,14
 363.522460938 580.225585938 363.522460938 580.225585938 368.951171875 575.5703125 c 132,-1,15
 374.380859375 570.9140625 374.380859375 570.9140625 374.380859375 559.017578125 c 132,-1,16
 374.380859375 547.119140625 374.380859375 547.119140625 367.321289062 519.704101562 c 132,-1,17
 360.262695312 492.2890625 360.262695312 492.2890625 349.403320312 489.184570312 c 6,18,-1
 336.372070312 487.116210938 l 5,19,-1
 320.083007812 488.151367188 l 6,20,21
 309.223632812 488.151367188 309.223632812 488.151367188 303.791992188 489.184570312 c 6,22,-1
 297.27734375 489.184570312 l 6,23,24
 236.462890625 489.184570312 236.462890625 489.184570312 236.462890625 426.077148438 c 4,25,26
 236.462890625 406.421875 236.462890625 406.421875 242.977539062 400.21484375 c 132,-1,27
 249.494140625 394.005859375 249.494140625 394.005859375 288.588867188 392.97265625 c 6,28,-1
 341.802734375 390.903320312 l 5,29,-1
 343.973632812 341.244140625 l 5,30,-1
 347.231445312 290.55078125 l 5,31,-1
 236.462890625 290.55078125 l 5,32,-1
 234.290039062 -9.4677734375 l 5,33,-1
 169.131835938 -9.4677734375 l 5,34,-1
 102.887695312 -7.3984375 l 5,0,-1
EndSplineSet
Validated: 1
EndChar

StartChar: g
Encoding: 103 103 105
Width: 569
VWidth: 1260
GlyphClass: 1
Flags: W
LayerCount: 2
Fore
SplineSet
235.2265625 -200.6328125 m 6,0,1
 151.267578125 -200.6328125 151.267578125 -200.6328125 115.489257812 -187.893554688 c 132,-1,2
 79.7099609375 -175.153320312 79.7099609375 -175.153320312 73.033203125 -169.2734375 c 132,-1,3
 66.353515625 -163.393554688 66.353515625 -163.393554688 66.353515625 -154.083984375 c 132,-1,4
 66.353515625 -144.774414062 66.353515625 -144.774414062 69.693359375 -106.5546875 c 132,-1,5
 73.033203125 -68.3349609375 73.033203125 -68.3349609375 76.373046875 -64.4169921875 c 132,-1,6
 79.7099609375 -60.49609375 79.7099609375 -60.49609375 90.205078125 -60.49609375 c 132,-1,7
 100.700195312 -60.49609375 100.700195312 -60.49609375 136.956054688 -73.724609375 c 132,-1,8
 173.2109375 -86.955078125 173.2109375 -86.955078125 221.870117188 -86.955078125 c 4,9,10
 309.645507812 -86.955078125 309.645507812 -86.955078125 334.451171875 -37.955078125 c 4,11,12
 346.854492188 -13.45703125 346.854492188 -13.45703125 351.1484375 37.9931640625 c 132,-1,13
 355.44140625 89.4404296875 355.44140625 89.4404296875 355.44140625 283.4765625 c 132,-1,14
 355.44140625 477.512695312 355.44140625 477.512695312 386.92578125 491.232421875 c 4,15,16
 398.375976562 497.11328125 398.375976562 497.11328125 440.35546875 498.091796875 c 6,17,-1
 496.646484375 498.091796875 l 5,18,-1
 496.646484375 257.998046875 l 6,19,20
 496.646484375 14.9619140625 496.646484375 14.9619140625 480.42578125 -58.5361328125 c 4,21,22
 447.98828125 -201.612304688 447.98828125 -201.612304688 241.904296875 -200.6328125 c 6,23,-1
 235.2265625 -200.6328125 l 6,0,1
26.283203125 327.575195312 m 4,24,25
 50.134765625 443.212890625 50.134765625 443.212890625 130.278320312 484.373046875 c 4,26,27
 172.2578125 505.932617188 172.2578125 505.932617188 239.51953125 505.932617188 c 132,-1,28
 306.784179688 505.932617188 306.784179688 505.932617188 316.32421875 496.133789062 c 132,-1,29
 325.865234375 486.33203125 325.865234375 486.33203125 325.865234375 464.283203125 c 132,-1,30
 325.865234375 442.233398438 325.865234375 442.233398438 324.911132812 433.4140625 c 6,31,-1
 320.139648438 385.39453125 l 5,32,-1
 277.206054688 392.254882812 l 6,33,34
 258.125 395.193359375 258.125 395.193359375 244.290039062 395.193359375 c 132,-1,35
 230.45703125 395.193359375 230.45703125 395.193359375 205.173828125 369.225585938 c 132,-1,36
 179.889648438 343.255859375 179.889648438 343.255859375 174.642578125 326.595703125 c 132,-1,37
 169.395507812 309.935546875 169.395507812 309.935546875 169.395507812 270.737304688 c 132,-1,38
 169.395507812 231.537109375 169.395507812 231.537109375 174.166015625 212.918945312 c 132,-1,39
 178.935546875 194.297851562 178.935546875 194.297851562 197.064453125 172.25 c 132,-1,40
 215.19140625 150.19921875 215.19140625 150.19921875 229.025390625 143.33984375 c 132,-1,41
 242.859375 136.479492188 242.859375 136.479492188 273.390625 136.479492188 c 6,42,-1
 322.049804688 136.479492188 l 5,43,-1
 322.049804688 93.3603515625 l 6,44,45
 322.049804688 47.3017578125 322.049804688 47.3017578125 299.626953125 34.5615234375 c 132,-1,46
 277.206054688 21.8232421875 277.206054688 21.8232421875 234.271484375 21.8232421875 c 4,47,48
 104.515625 21.8232421875 104.515625 21.8232421875 48.2265625 132.559570312 c 4,49,50
 19.603515625 189.3984375 19.603515625 189.3984375 19.603515625 260.936523438 c 4,51,52
 19.603515625 292.295898438 19.603515625 292.295898438 26.283203125 327.575195312 c 4,24,25
EndSplineSet
Validated: 33
EndChar

StartChar: h
Encoding: 104 104 106
Width: 540
VWidth: 1227
GlyphClass: 1
Flags: W
LayerCount: 2
Fore
SplineSet
24.7802734375 431.290039062 m 6,0,1
 24.7802734375 612.790039062 24.7802734375 612.790039062 29.015625 624.284179688 c 132,-1,2
 33.25 635.779296875 33.25 635.779296875 76.8095703125 635.779296875 c 6,3,-1
 98.5908203125 635.779296875 l 5,4,-1
 166.349609375 632.150390625 l 5,5,-1
 166.349609375 -7.9404296875 l 5,6,-1
 28.4091796875 -7.9404296875 l 5,7,-1
 24.7802734375 301.8203125 l 5,8,-1
 24.7802734375 431.290039062 l 6,0,1
255.890625 332.0703125 m 5,9,-1
 213.540039062 326.020507812 l 6,10,11
 203.859375 326.020507812 203.859375 326.020507812 202.650390625 333.884765625 c 132,-1,12
 201.440429688 341.75 201.440429688 341.75 201.440429688 370.790039062 c 132,-1,13
 201.440429688 399.830078125 201.440429688 399.830078125 206.884765625 409.509765625 c 132,-1,14
 212.330078125 419.190429688 212.330078125 419.190429688 237.740234375 432.5 c 132,-1,15
 263.150390625 445.809570312 263.150390625 445.809570312 313.970703125 445.809570312 c 132,-1,16
 364.790039062 445.809570312 364.790039062 445.809570312 403.509765625 417.979492188 c 132,-1,17
 442.229492188 390.150390625 442.229492188 390.150390625 453.724609375 344.169921875 c 132,-1,18
 465.220703125 298.190429688 465.220703125 298.190429688 465.220703125 157.830078125 c 6,19,-1
 465.220703125 -12.7802734375 l 5,20,-1
 327.279296875 -12.7802734375 l 5,21,-1
 327.279296875 127.580078125 l 6,22,23
 327.279296875 270.359375 327.279296875 270.359375 313.365234375 301.215820312 c 132,-1,24
 299.450195312 332.0703125 299.450195312 332.0703125 255.890625 332.0703125 c 5,9,-1
EndSplineSet
Validated: 1
EndChar

StartChar: i
Encoding: 105 105 107
Width: 277
VWidth: 1231
GlyphClass: 1
Flags: W
LayerCount: 2
Fore
SplineSet
202.229492188 533.265625 m 0,0,1
 202.229492188 463.084960938 202.229492188 463.084960938 126 463.084960938 c 128,-1,2
 49.7705078125 463.084960938 49.7705078125 463.084960938 49.7705078125 533.265625 c 0,3,4
 49.7705078125 571.984375 49.7705078125 571.984375 72.154296875 590.134765625 c 128,-1,5
 94.5400390625 608.284179688 94.5400390625 608.284179688 127.815429688 608.284179688 c 128,-1,6
 161.090820312 608.284179688 161.090820312 608.284179688 181.659179688 588.924804688 c 128,-1,7
 202.229492188 569.565429688 202.229492188 569.565429688 202.229492188 533.265625 c 0,0,1
69.1298828125 223.504882812 m 2,8,9
 70.3408203125 417.104492188 70.3408203125 417.104492188 71.5498046875 417.104492188 c 0,10,11
 73.9697265625 420.734375 73.9697265625 420.734375 105.4296875 421.9453125 c 2,12,-1
 128.419921875 421.9453125 l 1,13,-1
 181.659179688 419.525390625 l 1,14,-1
 186.5 -17.2841796875 l 1,15,-1
 66.7099609375 -17.2841796875 l 1,16,-1
 69.1298828125 223.504882812 l 2,8,9
EndSplineSet
Validated: 1
EndChar

StartChar: j
Encoding: 106 106 108
Width: 354
VWidth: 1239
GlyphClass: 1
Flags: W
LayerCount: 2
Fore
SplineSet
138.115234375 246.845703125 m 2,0,-1
 140.534179688 434.395507812 l 1,1,-1
 266.375 434.395507812 l 1,2,-1
 263.955078125 228.6953125 l 2,3,4
 263.955078125 193.604492188 263.955078125 193.604492188 261.534179688 14.525390625 c 0,5,6
 260.325195312 -76.224609375 260.325195312 -76.224609375 197.404296875 -111.315429688 c 0,7,8
 164.734375 -129.465820312 164.734375 -129.465820312 107.865234375 -129.465820312 c 2,9,-1
 42.525390625 -129.465820312 l 1,10,-1
 42.525390625 -79.8544921875 l 2,11,12
 42.525390625 -43.5546875 42.525390625 -43.5546875 47.365234375 -36.900390625 c 128,-1,13
 52.205078125 -30.2451171875 52.205078125 -30.2451171875 76.404296875 -27.220703125 c 0,14,15
 104.234375 -24.1953125 104.234375 -24.1953125 110.284179688 -19.3544921875 c 0,16,17
 126.015625 -7.2548828125 126.015625 -7.2548828125 129.040039062 23.599609375 c 0,18,19
 136.904296875 111.325195312 136.904296875 111.325195312 138.115234375 246.845703125 c 2,0,-1
278.474609375 560.234375 m 4,20,21
 278.474609375 488.845703125 278.474609375 488.845703125 202.245117188 488.845703125 c 132,-1,22
 126.015625 488.845703125 126.015625 488.845703125 126.015625 560.234375 c 4,23,24
 126.015625 598.955078125 126.015625 598.955078125 148.400390625 617.709960938 c 132,-1,25
 170.784179688 636.465820312 170.784179688 636.465820312 203.455078125 636.465820312 c 132,-1,26
 236.125 636.465820312 236.125 636.465820312 257.299804688 616.5 c 132,-1,27
 278.474609375 596.534179688 278.474609375 596.534179688 278.474609375 560.234375 c 4,20,21
EndSplineSet
Validated: 1
EndChar

StartChar: k
Encoding: 107 107 109
Width: 557
VWidth: 1242
GlyphClass: 1
Flags: W
LayerCount: 2
Fore
SplineSet
265.205078125 88.6455078125 m 2,0,1
 214.384765625 166.084960938 214.384765625 166.084960938 202.284179688 192.705078125 c 128,-1,2
 190.184570312 219.325195312 190.184570312 219.325195312 190.184570312 259.254882812 c 128,-1,3
 190.184570312 299.184570312 190.184570312 299.184570312 205.309570312 327.620117188 c 128,-1,4
 220.434570312 356.0546875 220.434570312 356.0546875 278.515625 424.419921875 c 128,-1,5
 336.595703125 492.784179688 336.595703125 492.784179688 350.509765625 499.440429688 c 128,-1,6
 364.424804688 506.095703125 364.424804688 506.095703125 418.270507812 506.095703125 c 128,-1,7
 472.115234375 506.095703125 472.115234375 506.095703125 472.115234375 493.995117188 c 128,-1,8
 472.115234375 481.895507812 472.115234375 481.895507812 386.809570312 381.465820312 c 128,-1,9
 301.504882812 281.034179688 301.504882812 281.034179688 301.504882812 265.909179688 c 128,-1,10
 301.504882812 250.784179688 301.504882812 250.784179688 391.650390625 118.895507812 c 128,-1,11
 481.794921875 -12.9951171875 481.794921875 -12.9951171875 481.794921875 -19.044921875 c 128,-1,12
 481.794921875 -25.095703125 481.794921875 -25.095703125 412.825195312 -25.095703125 c 2,13,-1
 340.224609375 -25.095703125 l 1,14,-1
 265.205078125 88.6455078125 l 2,0,1
23.205078125 233.845703125 m 2,15,16
 23.205078125 493.995117188 23.205078125 493.995117188 35.3046875 503.674804688 c 0,17,18
 38.9345703125 506.095703125 38.9345703125 506.095703125 72.8154296875 506.095703125 c 128,-1,19
 106.6953125 506.095703125 106.6953125 506.095703125 124.845703125 500.044921875 c 2,20,-1
 147.834960938 493.995117188 l 1,21,-1
 147.834960938 -25.095703125 l 1,22,-1
 23.205078125 -25.095703125 l 1,23,-1
 23.205078125 233.845703125 l 2,15,16
EndSplineSet
Validated: 1
EndChar

StartChar: l
Encoding: 108 108 110
Width: 506
VWidth: 1233
GlyphClass: 1
Flags: W
LayerCount: 2
Fore
SplineSet
24.310546875 -5.611328125 m 5,0,-1
 24.310546875 575.770507812 l 5,1,-1
 161.40234375 575.770507812 l 5,2,-1
 161.40234375 -5.611328125 l 5,3,-1
 24.310546875 -5.611328125 l 5,0,-1
223.9609375 -5.611328125 m 5,4,-1
 223.9609375 93.8037109375 l 5,5,-1
 435.587890625 93.8037109375 l 5,6,-1
 435.587890625 -5.611328125 l 5,7,-1
 223.9609375 -5.611328125 l 5,4,-1
EndSplineSet
Validated: 1
EndChar

StartChar: m
Encoding: 109 109 111
Width: 698
VWidth: 1243
GlyphClass: 1
Flags: W
LayerCount: 2
Fore
SplineSet
21.234375 49.2978515625 m 6,0,1
 27.1640625 85.234375 27.1640625 85.234375 41.986328125 246.950195312 c 132,-1,2
 56.8095703125 408.66796875 56.8095703125 408.66796875 62.7392578125 408.66796875 c 132,-1,3
 68.6669921875 408.66796875 68.6669921875 408.66796875 87.6396484375 359.663085938 c 4,4,5
 148.116210938 218.092773438 148.116210938 218.092773438 148.116210938 113.548828125 c 4,6,7
 148.116210938 77.611328125 148.116210938 77.611328125 140.408203125 46.5751953125 c 132,-1,8
 132.700195312 15.5380859375 132.700195312 15.5380859375 123.807617188 10.09375 c 132,-1,9
 114.913085938 4.6484375 114.913085938 4.6484375 74.5966796875 4.6484375 c 6,10,-1
 15.3076171875 4.6484375 l 5,11,-1
 21.234375 49.2978515625 l 6,0,1
582.119140625 451.137695312 m 6,12,-1
 617.692382812 43.853515625 l 5,13,-1
 617.692382812 4.6484375 l 5,14,-1
 506.227539062 4.6484375 l 5,15,-1
 496.7421875 60.1875 l 6,16,17
 484.883789062 126.616210938 484.883789062 126.616210938 482.51171875 292.143554688 c 5,18,-1
 473.024414062 469.651367188 l 5,19,-1
 526.38671875 469.651367188 l 6,20,21
 560.775390625 469.651367188 560.775390625 469.651367188 571.447265625 465.840820312 c 132,-1,22
 582.119140625 462.028320312 582.119140625 462.028320312 582.119140625 451.137695312 c 6,12,-1
132.700195312 467.473632812 m 6,23,-1
 194.362304688 464.206054688 l 5,24,-1
 247.724609375 325.903320312 l 6,25,26
 305.828125 183.244140625 305.828125 183.244140625 308.79296875 177.254882812 c 132,-1,27
 311.7578125 171.265625 311.7578125 171.265625 315.314453125 171.265625 c 4,28,29
 324.799804688 171.265625 324.799804688 171.265625 347.330078125 225.715820312 c 132,-1,30
 369.860351562 280.165039062 369.860351562 280.165039062 399.505859375 347.68359375 c 6,31,-1
 438.63671875 442.42578125 l 5,32,-1
 446.938476562 342.23828125 l 6,33,34
 450.49609375 299.767578125 450.49609375 299.767578125 450.49609375 264.375 c 132,-1,35
 450.49609375 228.983398438 450.49609375 228.983398438 414.920898438 124.438476562 c 6,36,-1
 373.418945312 4.6484375 l 5,37,-1
 321.2421875 4.6484375 l 6,38,39
 271.439453125 4.6484375 271.439453125 4.6484375 263.731445312 18.2607421875 c 132,-1,40
 256.0234375 31.8740234375 256.0234375 31.8740234375 168.275390625 245.317382812 c 132,-1,41
 80.525390625 458.76171875 80.525390625 458.76171875 80.525390625 466.384765625 c 4,42,43
 80.525390625 469.651367188 80.525390625 469.651367188 91.197265625 469.106445312 c 132,-1,44
 101.870117188 468.5625 101.870117188 468.5625 132.700195312 467.473632812 c 6,23,-1
EndSplineSet
Validated: 1
EndChar

StartChar: n
Encoding: 110 110 112
Width: 471
VWidth: 1245
GlyphClass: 1
Flags: W
LayerCount: 2
Fore
SplineSet
308.083984375 216 m 5,0,-1
 308.083984375 445.778320312 l 5,1,-1
 396.390625 445.778320312 l 5,2,-1
 396.390625 262.826171875 l 6,3,4
 396.390625 110.366210938 396.390625 110.366210938 379.159179688 111.456054688 c 4,5,6
 375.9296875 111.456054688 375.9296875 111.456054688 372.69921875 116.356445312 c 132,-1,7
 369.467773438 121.256835938 369.467773438 121.256835938 347.928710938 153.92578125 c 6,8,-1
 308.083984375 216 l 5,0,-1
196.0859375 175.70703125 m 6,9,10
 89.4736328125 351.03515625 89.4736328125 351.03515625 65.7822265625 385.338867188 c 132,-1,11
 42.08984375 419.641601562 42.08984375 419.641601562 42.08984375 427.266601562 c 132,-1,12
 42.08984375 434.888671875 42.08984375 434.888671875 83.5517578125 434.888671875 c 132,-1,13
 125.009765625 434.888671875 125.009765625 434.888671875 135.241210938 429.98828125 c 132,-1,14
 145.471679688 425.086914062 145.471679688 425.086914062 169.702148438 392.416015625 c 132,-1,15
 193.932617188 359.747070312 193.932617188 359.747070312 295.162109375 193.673828125 c 132,-1,16
 396.390625 27.6025390625 396.390625 27.6025390625 396.390625 15.623046875 c 4,17,18
 396.390625 9.0888671875 396.390625 9.0888671875 361.928710938 9.0888671875 c 6,19,-1
 345.776367188 9.0888671875 l 5,20,-1
 295.162109375 11.2666015625 l 5,21,-1
 196.0859375 175.70703125 l 6,9,10
31.3203125 186.595703125 m 6,22,23
 31.3203125 365.19140625 31.3203125 365.19140625 45.3203125 365.19140625 c 4,24,25
 52.859375 365.19140625 52.859375 365.19140625 89.4736328125 300.94140625 c 6,26,-1
 130.396484375 234.51171875 l 5,27,-1
 130.396484375 5.822265625 l 5,28,-1
 31.3203125 5.822265625 l 5,29,-1
 31.3203125 186.595703125 l 6,22,23
EndSplineSet
Validated: 33
EndChar

StartChar: o
Encoding: 111 111 113
Width: 606
VWidth: 1239
GlyphClass: 1
Flags: W
LayerCount: 2
Fore
SplineSet
169.962890625 492.36328125 m 4,0,1
 205.829101562 508.202148438 205.829101562 508.202148438 226.120117188 508.66796875 c 132,-1,2
 246.412109375 509.133789062 246.412109375 509.133789062 251.129882812 500.748046875 c 132,-1,3
 255.849609375 492.36328125 255.849609375 492.36328125 255.849609375 463.013671875 c 132,-1,4
 255.849609375 433.665039062 255.849609375 433.665039062 249.71484375 423.416992188 c 132,-1,5
 243.580078125 413.168945312 243.580078125 413.168945312 226.592773438 406.646484375 c 4,6,7
 185.064453125 388.944335938 185.064453125 388.944335938 158.638671875 344.6875 c 132,-1,8
 132.212890625 300.43359375 132.212890625 300.43359375 130.32421875 259.4375 c 4,9,10
 132.212890625 222.169921875 132.212890625 222.169921875 150.143554688 185.3671875 c 132,-1,11
 168.076171875 148.565429688 168.076171875 148.565429688 197.333984375 125.739257812 c 132,-1,12
 226.592773438 102.912109375 226.592773438 102.912109375 277.557617188 102.912109375 c 132,-1,13
 328.521484375 102.912109375 328.521484375 102.912109375 360.612304688 125.2734375 c 4,14,15
 416.294921875 160.678710938 416.294921875 160.678710938 416.294921875 246.39453125 c 4,16,17
 416.294921875 367.514648438 416.294921875 367.514648438 325.690429688 404.783203125 c 4,18,19
 303.0390625 413.168945312 303.0390625 413.168945312 296.904296875 423.416992188 c 132,-1,20
 290.770507812 433.665039062 290.770507812 433.665039062 290.770507812 464.877929688 c 132,-1,21
 290.770507812 496.088867188 290.770507812 496.088867188 295.016601562 502.612304688 c 132,-1,22
 299.264648438 509.133789062 299.264648438 509.133789062 329.9375 509.133789062 c 132,-1,23
 360.612304688 509.133789062 360.612304688 509.133789062 410.161132812 480.715820312 c 132,-1,24
 459.709960938 452.299804688 459.709960938 452.299804688 496.518554688 402.454101562 c 132,-1,25
 533.327148438 352.608398438 533.327148438 352.608398438 533.327148438 230.556640625 c 4,26,27
 533.327148438 205.400390625 533.327148438 205.400390625 530.494140625 192.356445312 c 4,28,29
 509.731445312 101.98046875 509.731445312 101.98046875 442.249023438 51.6689453125 c 132,-1,30
 374.768554688 1.3564453125 374.768554688 1.3564453125 270.006835938 1.3564453125 c 5,31,32
 270.006835938 3.220703125 270.006835938 3.220703125 267.174804688 2.2890625 c 4,33,34
 159.583007812 2.2890625 159.583007812 2.2890625 87.853515625 71.701171875 c 132,-1,35
 16.1240234375 141.111328125 16.1240234375 141.111328125 16.1240234375 254.780273438 c 4,36,37
 15.1796875 421.553710938 15.1796875 421.553710938 169.962890625 492.36328125 c 4,0,1
279.4453125 197.013671875 m 4,38,39
 223.759765625 197.013671875 223.759765625 197.013671875 222.81640625 262.232421875 c 4,40,41
 222.81640625 290.184570312 222.81640625 290.184570312 240.748046875 303.693359375 c 132,-1,42
 258.680664062 317.203125 258.680664062 317.203125 277.557617188 316.272460938 c 132,-1,43
 296.432617188 315.33984375 296.432617188 315.33984375 315.30859375 297.637695312 c 132,-1,44
 334.184570312 279.936523438 334.184570312 279.936523438 334.184570312 256.642578125 c 132,-1,45
 334.184570312 233.350585938 334.184570312 233.350585938 318.612304688 215.18359375 c 132,-1,46
 303.0390625 197.013671875 303.0390625 197.013671875 279.4453125 197.013671875 c 4,38,39
EndSplineSet
Validated: 33
EndChar

StartChar: p
Encoding: 112 112 114
Width: 621
VWidth: 1264
GlyphClass: 1
Flags: W
LayerCount: 2
Fore
SplineSet
87.4404296875 -205.559570312 m 5,0,-1
 87.4404296875 480.938476562 l 5,1,-1
 222.518554688 480.938476562 l 5,2,-1
 222.518554688 -205.559570312 l 5,3,-1
 87.4404296875 -205.559570312 l 5,0,-1
256.841796875 343.637695312 m 5,4,-1
 256.841796875 480.938476562 l 5,5,-1
 308.879882812 480.938476562 l 6,6,7
 418.493164062 480.938476562 418.493164062 480.938476562 477.727539062 423.625 c 132,-1,8
 536.963867188 366.3125 536.963867188 366.3125 536.963867188 181.145507812 c 4,9,10
 536.963867188 52.6640625 536.963867188 52.6640625 335.454101562 32.5107421875 c 6,11,-1
 256.841796875 24.953125 l 5,12,-1
 256.841796875 152.173828125 l 5,13,-1
 307.7734375 152.173828125 l 5,14,-1
 308.879882812 152.173828125 l 6,15,16
 405.20703125 152.173828125 405.20703125 152.173828125 405.20703125 252.944335938 c 4,17,18
 405.20703125 300.8125 405.20703125 300.8125 384.16796875 322.224609375 c 4,19,20
 360.91796875 343.637695312 360.91796875 343.637695312 312.202148438 343.637695312 c 6,21,-1
 256.841796875 343.637695312 l 5,4,-1
EndSplineSet
Validated: 1
EndChar

StartChar: q
Encoding: 113 113 115
Width: 629
VWidth: 1244
GlyphClass: 1
Flags: W
LayerCount: 2
Fore
SplineSet
137.383789062 503.040039062 m 4,0,1
 187.598632812 535.709960938 187.598632812 535.709960938 219.05859375 535.709960938 c 132,-1,2
 250.51953125 535.709960938 250.51953125 535.709960938 255.963867188 528.450195312 c 4,3,4
 260.19921875 521.190429688 260.19921875 521.190429688 260.803710938 489.729492188 c 4,5,6
 260.19921875 458.270507812 260.19921875 458.270507812 254.75390625 446.169921875 c 4,7,8
 248.098632812 434.0703125 248.098632812 434.0703125 216.033203125 418.9453125 c 4,9,10
 182.758789062 403.8203125 182.758789062 403.8203125 160.978515625 363.890625 c 132,-1,11
 139.19921875 323.959960938 139.19921875 323.959960938 138.594726562 264.669921875 c 4,12,13
 139.19921875 205.379882812 139.19921875 205.379882812 182.758789062 162.424804688 c 132,-1,14
 226.319335938 119.469726562 226.319335938 119.469726562 266.853515625 119.469726562 c 4,15,16
 360.62890625 119.469726562 360.62890625 119.469726562 399.954101562 196.909179688 c 4,17,18
 419.918945312 236.840820312 419.918945312 236.840820312 420.524414062 284.634765625 c 4,19,20
 419.918945312 332.4296875 419.918945312 332.4296875 398.138671875 372.359375 c 132,-1,21
 376.358398438 412.290039062 376.358398438 412.290039062 343.083984375 424.390625 c 4,22,23
 306.833007812 438.381835938 306.833007812 438.381835938 304.36328125 447.984375 c 4,24,25
 298.313476562 474.202148438 298.313476562 474.202148438 298.313476562 490.940429688 c 6,26,-1
 298.313476562 539.340820312 l 5,27,-1
 350.344726562 533.290039062 l 6,28,29
 425.969726562 524.8203125 425.969726562 524.8203125 488.283203125 447.379882812 c 4,30,31
 556.649414062 362.6796875 556.649414062 362.6796875 556.043945312 262.25 c 4,32,33
 555.438476562 175.129882812 555.438476562 175.129882812 472.553710938 91.640625 c 6,34,-1
 435.043945312 54.1298828125 l 5,35,-1
 479.813476562 -5.1591796875 l 6,36,37
 523.978515625 -63.240234375 523.978515625 -63.240234375 523.374023438 -68.6845703125 c 4,38,39
 523.978515625 -75.3408203125 523.978515625 -75.3408203125 465.899414062 -75.3408203125 c 132,-1,40
 407.819335938 -75.3408203125 407.819335938 -75.3408203125 393.298828125 -68.6845703125 c 132,-1,41
 378.779296875 -62.0302734375 378.779296875 -62.0302734375 357.603515625 -34.8046875 c 4,42,43
 337.638671875 -7.580078125 337.638671875 -7.580078125 321.908203125 1.4951171875 c 132,-1,44
 306.178710938 10.5703125 306.178710938 10.5703125 272.904296875 10.5703125 c 4,45,46
 165.819335938 10.5703125 165.819335938 10.5703125 90.1943359375 92.2451171875 c 4,47,48
 13.3583984375 173.919921875 13.3583984375 173.919921875 13.9638671875 280.400390625 c 4,49,50
 13.3583984375 421.970703125 13.3583984375 421.970703125 137.383789062 503.040039062 c 4,0,1
EndSplineSet
Validated: 33
EndChar

StartChar: r
Encoding: 114 114 116
Width: 546
VWidth: 1239
GlyphClass: 1
Flags: W
LayerCount: 2
Fore
SplineSet
187.491210938 409.360351562 m 5,0,-1
 187.491210938 507.37109375 l 5,1,-1
 261.810546875 503.450195312 l 6,2,3
 353.202148438 495.609375 353.202148438 495.609375 396.38671875 460.815429688 c 132,-1,4
 439.571289062 426.021484375 439.571289062 426.021484375 439.571289062 352.0234375 c 132,-1,5
 439.571289062 278.02734375 439.571289062 278.02734375 377.3046875 229.022460938 c 4,6,7
 357.21875 213.340820312 357.21875 213.340820312 357.21875 205.009765625 c 132,-1,8
 357.21875 196.678710938 357.21875 196.678710938 363.244140625 187.857421875 c 132,-1,9
 369.271484375 179.037109375 369.271484375 179.037109375 427.520507812 77.10546875 c 6,10,-1
 473.716796875 -5.22265625 l 5,11,-1
 329.098632812 -5.22265625 l 5,12,-1
 301.983398438 56.5244140625 l 6,13,14
 245.741210938 176.096679688 245.741210938 176.096679688 207.577148438 175.116210938 c 4,15,16
 187.491210938 175.116210938 187.491210938 175.116210938 187.491210938 223.141601562 c 6,17,-1
 187.491210938 269.20703125 l 5,18,-1
 236.703125 278.02734375 l 6,19,20
 320.05859375 291.748046875 320.05859375 291.748046875 320.05859375 345.654296875 c 4,21,22
 320.05859375 376.037109375 320.05859375 376.037109375 294.952148438 392.698242188 c 132,-1,23
 269.844726562 409.360351562 269.844726562 409.360351562 229.672851562 409.360351562 c 6,24,-1
 187.491210938 409.360351562 l 5,0,-1
27.80859375 343.693359375 m 6,25,-1
 21.7822265625 504.4296875 l 5,26,-1
 155.35546875 504.4296875 l 5,27,-1
 155.35546875 274.106445312 l 6,28,29
 155.35546875 49.6630859375 155.35546875 49.6630859375 159.873046875 32.51171875 c 132,-1,30
 164.393554688 15.3603515625 164.393554688 15.3603515625 164.393554688 10.458984375 c 4,31,32
 164.393554688 -2.28125 164.393554688 -2.28125 153.346679688 -3.7509765625 c 132,-1,33
 142.298828125 -5.22265625 142.298828125 -5.22265625 102.126953125 -5.22265625 c 6,34,-1
 34.8388671875 -5.22265625 l 5,35,-1
 34.8388671875 87.8876953125 l 6,36,37
 34.8388671875 196.678710938 34.8388671875 196.678710938 27.80859375 343.693359375 c 6,25,-1
EndSplineSet
Validated: 33
EndChar

StartChar: s
Encoding: 115 115 117
Width: 534
VWidth: 1241
GlyphClass: 1
Flags: W
LayerCount: 2
Fore
SplineSet
30.28125 50.771484375 m 132,-1,1
 22.978515625 59.076171875 22.978515625 59.076171875 22.978515625 95.986328125 c 4,2,3
 22.978515625 176.263671875 22.978515625 176.263671875 54.0146484375 176.263671875 c 4,4,5
 72.2705078125 176.263671875 72.2705078125 176.263671875 84.59375 147.659179688 c 132,-1,6
 96.916015625 119.053710938 96.916015625 119.053710938 106.95703125 111.672851562 c 132,-1,7
 116.999023438 104.290039062 116.999023438 104.290039062 164.923828125 97.8310546875 c 132,-1,8
 212.846679688 91.373046875 212.846679688 91.373046875 222.4296875 84.451171875 c 132,-1,9
 232.014648438 77.53125 232.014648438 77.53125 232.014648438 42.466796875 c 6,10,-1
 232.014648438 0.9423828125 l 5,11,-1
 176.333984375 9.2470703125 l 6,12,13
 127.953125 13.8623046875 127.953125 13.8623046875 82.76953125 28.1640625 c 132,-1,0
 37.5830078125 42.466796875 37.5830078125 42.466796875 30.28125 50.771484375 c 132,-1,1
273.09375 5.556640625 m 4,14,15
 260.3125 5.556640625 260.3125 5.556640625 260.3125 41.5439453125 c 132,-1,16
 260.3125 77.53125 260.3125 77.53125 266.247070312 86.7587890625 c 132,-1,17
 272.178710938 95.986328125 272.178710938 95.986328125 284.959960938 101.521484375 c 4,18,19
 313.2578125 114.440429688 313.2578125 114.440429688 313.2578125 145.352539062 c 132,-1,20
 313.2578125 176.263671875 313.2578125 176.263671875 285.872070312 187.336914062 c 4,21,22
 270.354492188 194.719726562 270.354492188 194.719726562 265.333007812 206.25390625 c 132,-1,23
 260.3125 217.7890625 260.3125 217.7890625 260.3125 260.234375 c 132,-1,24
 260.3125 302.681640625 260.3125 302.681640625 273.546875 302.681640625 c 132,-1,25
 286.784179688 302.681640625 286.784179688 302.681640625 316.90625 287.916992188 c 4,26,27
 427.359375 234.397460938 427.359375 234.397460938 427.359375 153.196289062 c 4,28,29
 427.359375 57.23046875 427.359375 57.23046875 301.388671875 12.9384765625 c 4,30,31
 278.569335938 5.556640625 278.569335938 5.556640625 273.09375 5.556640625 c 4,14,15
311.430664062 405.10546875 m 6,32,-1
 260.3125 405.10546875 l 5,33,-1
 260.3125 485.385742188 l 5,34,-1
 316.90625 485.385742188 l 6,35,36
 369.8515625 485.385742188 369.8515625 485.385742188 415.493164062 475.235351562 c 6,37,-1
 461.134765625 463.239257812 l 5,38,-1
 458.395507812 417.1015625 l 6,39,40
 456.569335938 343.28125 456.569335938 343.28125 438.313476562 344.205078125 c 4,41,42
 433.75 344.205078125 433.75 344.205078125 424.620117188 347.896484375 c 4,43,44
 400.888671875 357.124023438 400.888671875 357.124023438 401.80078125 374.655273438 c 4,45,46
 401.80078125 405.10546875 401.80078125 405.10546875 311.430664062 405.10546875 c 6,32,-1
232.014648438 447.552734375 m 132,-1,48
 232.014648438 411.565429688 232.014648438 411.565429688 197.327148438 382.9609375 c 4,49,50
 184.547851562 370.963867188 184.547851562 370.963867188 184.547851562 365.428710938 c 132,-1,51
 184.547851562 359.890625 184.547851562 359.890625 198.698242188 337.745117188 c 132,-1,52
 212.846679688 315.599609375 212.846679688 315.599609375 222.4296875 315.599609375 c 132,-1,53
 232.014648438 315.599609375 232.014648438 315.599609375 232.014648438 267.616210938 c 132,-1,54
 232.014648438 219.634765625 232.014648438 219.634765625 227.908203125 216.403320312 c 132,-1,55
 223.80078125 213.173828125 223.80078125 213.173828125 213.758789062 213.173828125 c 132,-1,56
 203.716796875 213.173828125 203.716796875 213.173828125 160.358398438 233.936523438 c 132,-1,57
 116.999023438 254.698242188 116.999023438 254.698242188 95.546875 279.612304688 c 132,-1,58
 74.095703125 304.526367188 74.095703125 304.526367188 74.095703125 351.584960938 c 132,-1,59
 74.095703125 398.646484375 74.095703125 398.646484375 97.830078125 425.868164062 c 132,-1,60
 121.564453125 453.087890625 121.564453125 453.087890625 162.640625 468.313476562 c 132,-1,61
 203.716796875 483.540039062 203.716796875 483.540039062 213.758789062 483.540039062 c 4,62,47
 232.014648438 483.540039062 232.014648438 483.540039062 232.014648438 447.552734375 c 132,-1,48
EndSplineSet
Validated: 33
EndChar

StartChar: t
Encoding: 116 116 118
Width: 558
VWidth: 1241
GlyphClass: 1
Flags: W
LayerCount: 2
Fore
SplineSet
69.466796875 495.33203125 m 5,0,-1
 436.53125 495.33203125 l 5,1,-1
 436.53125 391.150390625 l 5,2,3
 437.487304688 391.150390625 437.487304688 391.150390625 69.466796875 391.150390625 c 5,4,-1
 69.466796875 495.33203125 l 5,0,-1
197.556640625 2.2080078125 m 5,5,-1
 197.556640625 344.517578125 l 5,6,-1
 296.969726562 344.517578125 l 5,7,-1
 296.969726562 2.2080078125 l 5,8,-1
 197.556640625 2.2080078125 l 5,5,-1
EndSplineSet
Validated: 33
EndChar

StartChar: u
Encoding: 117 117 119
Width: 531
VWidth: 1239
GlyphClass: 1
Flags: W
LayerCount: 2
Fore
SplineSet
338.677734375 338.823242188 m 6,0,-1
 341.671875 515.634765625 l 5,1,-1
 458.467773438 515.634765625 l 5,2,-1
 452.479492188 325.689453125 l 6,3,4
 449.484375 180.19921875 449.484375 180.19921875 447.487304688 152.413085938 c 132,-1,5
 445.490234375 124.629882812 445.490234375 124.629882812 426.5234375 95.3291015625 c 4,6,7
 384.598632812 23.5947265625 384.598632812 23.5947265625 290.76171875 4.3974609375 c 6,8,-1
 255.823242188 -1.6640625 l 5,9,-1
 255.823242188 49.8642578125 l 6,10,11
 255.823242188 104.422851562 255.823242188 104.422851562 279.782226562 112.504882812 c 4,12,13
 293.755859375 115.53515625 293.755859375 115.53515625 312.224609375 134.732421875 c 132,-1,14
 330.692382812 153.9296875 330.692382812 153.9296875 333.1875 180.704101562 c 132,-1,15
 335.68359375 207.477539062 335.68359375 207.477539062 338.677734375 338.823242188 c 6,0,-1
23.2314453125 345.896484375 m 6,16,-1
 23.2314453125 515.634765625 l 5,17,-1
 136.034179688 515.634765625 l 5,18,-1
 142.021484375 340.84375 l 6,19,20
 144.018554688 201.416015625 144.018554688 201.416015625 152.505859375 165.04296875 c 132,-1,21
 160.990234375 128.670898438 160.990234375 128.670898438 183.94921875 118.061523438 c 132,-1,22
 206.908203125 107.453125 206.908203125 107.453125 211.401367188 95.833984375 c 132,-1,23
 215.893554688 84.2158203125 215.893554688 84.2158203125 215.893554688 49.8642578125 c 6,24,-1
 215.893554688 -1.6640625 l 5,25,-1
 185.946289062 2.376953125 l 5,26,27
 70.1494140625 25.6162109375 70.1494140625 25.6162109375 42.1962890625 117.556640625 c 4,28,29
 23.2314453125 179.188476562 23.2314453125 179.188476562 23.2314453125 345.896484375 c 6,16,-1
EndSplineSet
Validated: 1
EndChar

StartChar: v
Encoding: 118 118 120
Width: 542
VWidth: 1242
GlyphClass: 1
Flags: W
LayerCount: 2
Fore
SplineSet
163.387695312 73.2578125 m 4,0,1
 154.15625 97.8359375 154.15625 97.8359375 87.501953125 274.798828125 c 132,-1,2
 20.845703125 451.760742188 20.845703125 451.760742188 20.845703125 461.591796875 c 132,-1,3
 20.845703125 471.423828125 20.845703125 471.423828125 73.1455078125 471.423828125 c 132,-1,4
 125.444335938 471.423828125 125.444335938 471.423828125 138.262695312 456.676757812 c 132,-1,5
 151.081054688 441.9296875 151.081054688 441.9296875 220.8125 231.541015625 c 132,-1,6
 290.545898438 21.1533203125 290.545898438 21.1533203125 290.545898438 13.287109375 c 132,-1,7
 290.545898438 5.421875 290.545898438 5.421875 250.551757812 5.421875 c 4,8,9
 192.098632812 5.421875 192.098632812 5.421875 163.387695312 73.2578125 c 4,0,1
306.952148438 308.224609375 m 6,10,11
 344.89453125 433.081054688 344.89453125 433.081054688 355.6640625 453.236328125 c 132,-1,12
 366.430664062 473.390625 366.430664062 473.390625 419.2421875 473.390625 c 132,-1,13
 472.055664062 473.390625 472.055664062 473.390625 472.055664062 462.575195312 c 132,-1,14
 472.055664062 451.760742188 472.055664062 451.760742188 398.732421875 254.645507812 c 132,-1,15
 325.41015625 57.5283203125 325.41015625 57.5283203125 316.181640625 48.6796875 c 5,16,17
 302.850585938 48.6796875 302.850585938 48.6796875 287.467773438 112.583007812 c 6,18,-1
 267.984375 187.299804688 l 5,19,-1
 306.952148438 308.224609375 l 6,10,11
EndSplineSet
Validated: 1
EndChar

StartChar: w
Encoding: 119 119 121
Width: 731
VWidth: 1243
GlyphClass: 1
Flags: W
LayerCount: 2
Fore
SplineSet
526.883789062 55.955078125 m 4,0,1
 521.922851562 55.955078125 521.922851562 55.955078125 505.55078125 122.5703125 c 132,-1,2
 489.1796875 189.1875 489.1796875 189.1875 489.1796875 206.889648438 c 132,-1,3
 489.1796875 224.591796875 489.1796875 224.591796875 510.51171875 312.63671875 c 132,-1,4
 531.84375 400.68359375 531.84375 400.68359375 540.774414062 421.645507812 c 132,-1,5
 549.704101562 442.610351562 549.704101562 442.610351562 566.5703125 449.59765625 c 132,-1,6
 583.439453125 456.584960938 583.439453125 456.584960938 624.120117188 456.584960938 c 6,7,-1
 659.837890625 456.584960938 l 5,8,-1
 648.924804688 426.770507812 l 6,9,10
 643.962890625 406.2734375 643.962890625 406.2734375 590.879882812 231.11328125 c 132,-1,11
 537.797851562 55.955078125 537.797851562 55.955078125 526.883789062 55.955078125 c 4,0,1
114.127929688 81.109375 m 6,12,13
 90.3154296875 151.919921875 90.3154296875 151.919921875 82.376953125 179.870117188 c 132,-1,14
 74.439453125 207.821289062 74.439453125 207.821289062 38.7197265625 320.556640625 c 132,-1,15
 3.001953125 433.291992188 3.001953125 433.291992188 3.001953125 440.74609375 c 132,-1,16
 3.001953125 448.200195312 3.001953125 448.200195312 58.5654296875 448.200195312 c 6,17,-1
 114.127929688 448.200195312 l 5,18,-1
 126.03515625 408.137695312 l 6,19,20
 133.971679688 381.119140625 133.971679688 381.119140625 173.1640625 243.2265625 c 132,-1,21
 212.35546875 105.3359375 212.35546875 105.3359375 221.287109375 72.7255859375 c 6,22,-1
 234.18359375 12.1650390625 l 5,23,-1
 134.963867188 12.1650390625 l 5,24,-1
 114.127929688 81.109375 l 6,12,13
309.591796875 222.728515625 m 6,25,26
 260.973632812 49.43359375 260.973632812 49.43359375 255.021484375 49.43359375 c 132,-1,27
 249.068359375 49.43359375 249.068359375 49.43359375 232.19921875 118.377929688 c 132,-1,28
 215.333007812 187.32421875 215.333007812 187.32421875 215.333007812 214.34375 c 132,-1,29
 215.333007812 241.36328125 215.333007812 241.36328125 241.625976562 323.352539062 c 132,-1,30
 267.919921875 405.341796875 267.919921875 405.341796875 267.919921875 408.137695312 c 6,31,-1
 276.849609375 448.200195312 l 5,32,-1
 331.419921875 448.200195312 l 6,33,34
 384.999023438 448.200195312 384.999023438 448.200195312 395.913085938 419.31640625 c 4,35,36
 400.875 406.2734375 400.875 406.2734375 455.4453125 212.48046875 c 132,-1,37
 510.015625 18.6865234375 510.015625 18.6865234375 510.015625 15.42578125 c 132,-1,38
 510.015625 12.1650390625 510.015625 12.1650390625 465.3671875 12.1650390625 c 132,-1,39
 420.717773438 12.1650390625 420.717773438 12.1650390625 412.284179688 17.7548828125 c 132,-1,40
 403.8515625 23.3447265625 403.8515625 23.3447265625 370.116210938 152.8515625 c 132,-1,41
 336.380859375 282.358398438 336.380859375 282.358398438 327.451171875 279.5625 c 6,42,-1
 325.466796875 279.5625 l 5,43,-1
 309.591796875 222.728515625 l 6,25,26
EndSplineSet
Validated: 33
EndChar

StartChar: x
Encoding: 120 120 122
Width: 490
VWidth: 1247
GlyphClass: 1
Flags: W
LayerCount: 2
Fore
SplineSet
173.401367188 204.462890625 m 5,0,1
 35.6083984375 404.353515625 35.6083984375 404.353515625 32.958984375 412.82421875 c 4,2,3
 31.19140625 420.448242188 31.19140625 420.448242188 61.224609375 420.448242188 c 6,4,-1
 85.9560546875 420.448242188 l 5,5,-1
 143.372070312 417.059570312 l 5,6,-1
 280.28125 219.708984375 l 6,7,8
 418.077148438 21.5107421875 418.077148438 21.5107421875 418.077148438 15.1591796875 c 132,-1,9
 418.077148438 8.806640625 418.077148438 8.806640625 361.544921875 8.806640625 c 6,10,-1
 304.131835938 8.806640625 l 5,11,-1
 173.401367188 204.462890625 l 5,0,1
276.748046875 374.709960938 m 6,12,-1
 309.4296875 421.293945312 l 5,13,-1
 418.9609375 421.293945312 l 5,14,-1
 403.060546875 399.272460938 l 6,15,16
 397.759765625 392.497070312 397.759765625 392.497070312 339.462890625 306.103515625 c 6,17,-1
 293.532226562 239.189453125 l 5,18,-1
 268.797851562 274.763671875 l 6,19,20
 245.833984375 308.64453125 245.833984375 308.64453125 245.833984375 316.69140625 c 132,-1,21
 245.833984375 324.737304688 245.833984375 324.737304688 276.748046875 374.709960938 c 6,12,-1
25.890625 15.5810546875 m 4,22,23
 25.890625 27.439453125 25.890625 27.439453125 82.8642578125 108.328125 c 132,-1,24
 139.838867188 189.216796875 139.838867188 189.216796875 146.905273438 189.216796875 c 132,-1,25
 153.970703125 189.216796875 153.970703125 189.216796875 178.703125 153.643554688 c 6,26,-1
 203.434570312 118.916015625 l 5,27,-1
 131.888671875 13.041015625 l 5,28,-1
 77.1240234375 9.6533203125 l 6,29,30
 63.873046875 8.806640625 63.873046875 8.806640625 44.8818359375 8.806640625 c 132,-1,31
 25.890625 8.806640625 25.890625 8.806640625 25.890625 15.5810546875 c 4,22,23
EndSplineSet
Validated: 1
EndChar

StartChar: y
Encoding: 121 121 123
Width: 518
VWidth: 1247
GlyphClass: 1
Flags: W
LayerCount: 2
Fore
SplineSet
312 0 m 5,0,-1
 199.833007812 0 l 5,1,-1
 191.419921875 185.541015625 l 5,2,-1
 113.836914062 314.967773438 l 6,3,4
 32.517578125 450.73046875 32.517578125 450.73046875 32.517578125 453.897460938 c 132,-1,5
 32.517578125 457.064453125 32.517578125 457.064453125 93.2744140625 457.064453125 c 6,6,-1
 151.2265625 457.064453125 l 5,7,8
 223.201171875 331.258789062 223.201171875 331.258789062 310.129882812 173.775390625 c 5,9,-1
 312 0 l 5,0,-1
269.9375 296.865234375 m 5,10,11
 301.717773438 349.361328125 301.717773438 349.361328125 358.735351562 457.064453125 c 5,12,-1
 413.883789062 457.064453125 l 6,13,14
 469.967773438 457.064453125 469.967773438 457.064453125 469.500976562 448.467773438 c 132,-1,15
 469.033203125 439.869140625 469.033203125 439.869140625 396.592773438 328.091796875 c 132,-1,16
 324.150390625 216.314453125 324.150390625 216.314453125 316.673828125 214.50390625 c 4,17,18
 313.869140625 214.50390625 313.869140625 214.50390625 304.522460938 233.509765625 c 132,-1,19
 295.17578125 252.517578125 295.17578125 252.517578125 289.567382812 258.853515625 c 6,20,-1
 269.9375 296.865234375 l 5,10,11
EndSplineSet
EndChar

StartChar: z
Encoding: 122 122 124
Width: 460
VWidth: 1243
GlyphClass: 1
Flags: W
LayerCount: 2
Fore
SplineSet
40.5927734375 374.318359375 m 5,0,-1
 40.5927734375 461.171875 l 5,1,-1
 378.086914062 461.171875 l 5,2,-1
 378.086914062 374.318359375 l 5,3,-1
 40.5927734375 374.318359375 l 5,0,-1
256.69921875 351.037109375 m 4,4,5
 264.975585938 353.72265625 264.975585938 353.72265625 311.875 353.72265625 c 132,-1,6
 358.774414062 353.72265625 358.774414062 353.72265625 358.774414062 348.798828125 c 132,-1,7
 358.774414062 343.873046875 358.774414062 343.873046875 267.734375 232.844726562 c 6,8,-1
 176.694335938 122.709960938 l 5,9,-1
 48.8701171875 122.709960938 l 5,10,-1
 139.91015625 232.844726562 l 6,11,12
 230.951171875 345.665039062 230.951171875 345.665039062 256.69921875 351.037109375 c 4,4,5
28.638671875 6.30859375 m 5,13,-1
 28.638671875 103.01171875 l 5,14,-1
 390.041015625 103.01171875 l 5,15,-1
 390.041015625 6.30859375 l 5,16,-1
 28.638671875 6.30859375 l 5,13,-1
EndSplineSet
Validated: 1
EndChar

StartChar: braceleft
Encoding: 123 123 125
Width: 425
GlyphClass: 1
Flags: W
LayerCount: 2
Fore
SplineSet
323 160 m 128,-1,1
 349 155 349 155 356.5 146.5 c 128,-1,2
 364 138 364 138 364 110.5 c 128,-1,3
 364 83 364 83 355.5 74.5 c 128,-1,4
 347 66 347 66 316 66 c 128,-1,5
 285 66 285 66 246 86 c 0,6,7
 182 121 182 121 175 170 c 0,8,9
 173 190 173 190 168 275 c 128,-1,10
 163 360 163 360 154.5 377.5 c 128,-1,11
 146 395 146 395 112.5 400 c 128,-1,12
 79 405 79 405 70.5 415 c 128,-1,13
 62 425 62 425 62 452.5 c 128,-1,14
 62 480 62 480 70 487.5 c 128,-1,15
 78 495 78 495 109.5 500 c 128,-1,16
 141 505 141 505 150.5 568 c 128,-1,17
 160 631 160 631 162.5 671.5 c 128,-1,18
 165 712 165 712 175 735 c 0,19,20
 195 786 195 786 245 812 c 0,21,22
 280 829 280 829 314.5 828.5 c 128,-1,23
 349 828 349 828 356.5 820 c 128,-1,24
 364 812 364 812 364 786 c 0,25,26
 364 740 364 740 338 740 c 0,27,28
 327 740 327 740 305 734 c 128,-1,29
 283 728 283 728 275 711 c 128,-1,30
 267 694 267 694 267 611 c 2,31,-1
 267 549 l 2,32,33
 267 500 267 500 231 470 c 2,34,-1
 208 450 l 1,35,-1
 231 428 l 2,36,37
 252 408 252 408 259.5 393.5 c 128,-1,38
 267 379 267 379 267 339 c 2,39,-1
 267 313 l 1,40,41
 267 313 267 313 265 284 c 0,42,43
 265 204 265 204 282 183 c 0,44,0
 297 165 297 165 323 160 c 128,-1,1
EndSplineSet
Validated: 33
EndChar

StartChar: bar
Encoding: 124 124 126
Width: 213
GlyphClass: 1
Flags: W
LayerCount: 2
Fore
SplineSet
151 37 m 2,0,1
 151 -40 151 -40 144.5 -49.5 c 128,-1,2
 138 -59 138 -59 108 -59 c 128,-1,3
 78 -59 78 -59 75 -55 c 0,4,5
 62 -42 62 -42 62 377.5 c 128,-1,6
 62 797 62 797 74 810 c 0,7,8
 77 813 77 813 107.5 813.5 c 128,-1,9
 138 814 138 814 143 809 c 0,10,11
 151 798 151 798 151 623 c 2,12,-1
 151 492 l 1,13,-1
 151 174 l 1,14,-1
 151 75 l 1,15,-1
 151 37 l 2,0,1
EndSplineSet
Validated: 33
EndChar

StartChar: braceright
Encoding: 125 125 127
Width: 425
GlyphClass: 1
Flags: W
LayerCount: 2
Fore
SplineSet
102.5 156 m 128,-1,1
 129 161 129 161 143.5 179 c 128,-1,2
 158 197 158 197 160 280 c 0,3,4
 159 283 159 283 158 288 c 2,5,-1
 158 331 l 2,6,7
 158 375 158 375 165.5 389 c 128,-1,8
 173 403 173 403 194 423 c 2,9,-1
 218 446 l 1,10,-1
 194 466 l 2,11,12
 158 496 158 496 158 545 c 2,13,-1
 158 606 l 2,14,15
 158 689 158 689 150 706.5 c 128,-1,16
 142 724 142 724 120.5 729.5 c 128,-1,17
 99 735 99 735 88 735 c 0,18,19
 62 735 62 735 62 782 c 0,20,21
 62 808 62 808 69 816 c 128,-1,22
 76 824 76 824 111 824 c 128,-1,23
 146 824 146 824 180 807 c 0,24,25
 231 782 231 782 251 730 c 0,26,27
 260 707 260 707 262.5 667 c 128,-1,28
 265 627 265 627 275 563.5 c 128,-1,29
 285 500 285 500 316 495 c 128,-1,30
 347 490 347 490 355.5 483 c 128,-1,31
 364 476 364 476 364 448 c 128,-1,32
 364 420 364 420 355 410 c 128,-1,33
 346 400 346 400 313 395.5 c 128,-1,34
 280 391 280 391 271 373.5 c 128,-1,35
 262 356 262 356 257 270.5 c 128,-1,36
 252 185 252 185 250 166 c 0,37,38
 244 117 244 117 180 82 c 0,39,40
 141 62 141 62 109.5 62 c 128,-1,41
 78 62 78 62 70 70.5 c 128,-1,42
 62 79 62 79 62 106.5 c 128,-1,43
 62 134 62 134 69 142.5 c 128,-1,0
 76 151 76 151 102.5 156 c 128,-1,1
EndSplineSet
Validated: 1
EndChar

StartChar: asciitilde
Encoding: 126 126 128
Width: 411
GlyphClass: 2
Flags: W
LayerCount: 2
Fore
SplineSet
185 430 m 1,0,-1
 218 376 l 1,1,-1
 350 399 l 1,2,-1
 350 333 l 1,3,-1
 218 312 l 1,4,-1
 185 365 l 1,5,-1
 62 333 l 1,6,-1
 62 399 l 1,7,-1
 180 429 l 1,8,-1
 185 430 l 1,0,-1
EndSplineSet
Validated: 1
EndChar

StartChar: exclamdown
Encoding: 161 161 163
Width: 265
GlyphClass: 1
Flags: W
LayerCount: 2
Fore
SplineSet
65 576 m 256,0,1
 65 602 65 602 84.5 621 c 128,-1,2
 104 640 104 640 131.5 640 c 128,-1,3
 159 640 159 640 178.5 621 c 128,-1,4
 198 602 198 602 198 576 c 128,-1,5
 198 550 198 550 178.5 531.5 c 128,-1,6
 159 513 159 513 131.5 513 c 128,-1,7
 104 513 104 513 84.5 531.5 c 128,-1,8
 65 550 65 550 65 576 c 256,0,1
96 474 m 1,9,-1
 167 474 l 1,10,-1
 204 52 l 1,11,-1
 62 57 l 1,12,-1
 96 474 l 1,9,-1
EndSplineSet
Validated: 1
EndChar

StartChar: cent
Encoding: 162 162 164
Width: 451
GlyphClass: 2
Flags: W
LayerCount: 2
Fore
SplineSet
295 126 m 2,0,1
 323 131 323 131 337 141 c 128,-1,2
 351 151 351 151 355 151 c 0,3,4
 362 151 362 151 376 121 c 128,-1,5
 390 91 390 91 390 85 c 0,6,7
 390 75 390 75 358 62 c 128,-1,8
 326 49 326 49 298 46 c 2,9,-1
 262 41 l 1,10,-1
 264 80 l 1,11,-1
 266 121 l 1,12,-1
 295 126 l 2,0,1
262 376 m 1,13,-1
 262 451 l 1,14,-1
 302 448 l 2,15,16
 330 445 330 445 360 434 c 128,-1,17
 390 423 390 423 390 415 c 128,-1,18
 390 407 390 407 375 377.5 c 128,-1,19
 360 348 360 348 354 348 c 128,-1,20
 348 348 348 348 328 357.5 c 128,-1,21
 308 367 308 367 288 371 c 2,22,-1
 262 376 l 1,13,-1
242 88 m 0,23,24
 242 44 242 44 221 44 c 0,25,26
 210 44 210 44 188 53 c 0,27,28
 110 83 110 83 77 157 c 0,29,30
 62 189 62 189 62 234 c 0,31,32
 62 384 62 384 178 437 c 0,33,34
 205 450 205 450 221 449.5 c 128,-1,35
 237 449 237 449 239.5 444 c 128,-1,36
 242 439 242 439 242 412.5 c 128,-1,37
 242 386 242 386 238.5 379 c 128,-1,38
 235 372 235 372 219 364 c 0,39,40
 153 328 153 328 153.5 247.5 c 128,-1,41
 154 167 154 167 219 129 c 0,42,43
 232 122 232 122 237 118 c 0,44,45
 242 110 242 110 242 88 c 0,23,24
228 474 m 1,46,-1
 228 559 l 1,47,-1
 265 559 l 1,48,-1
 265 474 l 1,49,-1
 228 474 l 1,46,-1
226 -56 m 1,50,-1
 226 31 l 1,51,-1
 264 31 l 1,52,-1
 264 -56 l 1,53,-1
 226 -56 l 1,50,-1
EndSplineSet
Validated: 33
EndChar

StartChar: sterling
Encoding: 163 163 165
Width: 523
GlyphClass: 2
Flags: W
LayerCount: 2
Fore
SplineSet
262 455 m 1,0,-1
 392 453 l 1,1,-1
 391 371 l 1,2,-1
 262 373 l 1,3,-1
 262 455 l 1,0,-1
65 370 m 1,4,-1
 65 455 l 1,5,-1
 131 455 l 1,6,-1
 131 370 l 1,7,-1
 65 370 l 1,4,-1
263 606 m 2,8,-1
 252 713 l 1,9,-1
 265 713 l 2,10,11
 326 713 326 713 341 683 c 0,12,13
 346 675 346 675 346 666 c 0,14,15
 346 635 346 635 282 611 c 0,16,17
 263 604 263 604 263 606 c 2,8,-1
263 154 m 1,18,-1
 461 152 l 1,19,-1
 461 58 l 1,20,-1
 262 59 l 1,21,-1
 263 154 l 1,18,-1
62 156 m 1,22,-1
 94 154 l 1,23,-1
 99 154 l 2,24,25
 127 154 127 154 140 170.5 c 128,-1,26
 153 187 153 187 153 245 c 128,-1,27
 153 303 153 303 150 468 c 2,28,-1
 145 652 l 2,29,30
 145 696 145 696 230 716 c 1,31,-1
 237 586 l 1,32,33
 240 395 240 395 241 332 c 2,34,-1
 241 187 l 1,35,-1
 240 59 l 1,36,-1
 117 59 l 1,37,-1
 66 62 l 1,38,-1
 65 109 l 1,39,-1
 62 156 l 1,22,-1
EndSplineSet
Validated: 1
EndChar

StartChar: currency
Encoding: 164 164 166
Width: 415
GlyphClass: 2
Flags: W
LayerCount: 2
Fore
SplineSet
226 652 m 1,0,-1
 226 670 l 1,1,2
 260 665 260 665 289 639 c 128,-1,3
 318 613 318 613 318 580 c 0,4,5
 318 520 318 520 290.5 493 c 128,-1,6
 263 466 263 466 229 460 c 1,7,-1
 227 478 l 1,8,9
 255 483 255 483 276 504 c 128,-1,10
 297 525 297 525 301 561 c 1,11,-1
 301 571 l 2,12,13
 301 608 301 608 267 634 c 0,14,15
 250 648 250 648 226 652 c 1,0,-1
193 460 m 1,16,17
 104 482 104 482 104 567 c 0,18,19
 104 619 104 619 150 652 c 0,20,21
 170 667 170 667 194 670 c 1,22,-1
 195 652 l 1,23,24
 178 652 178 652 151 629 c 128,-1,25
 124 606 124 606 124 563 c 128,-1,26
 124 520 124 520 157 494 c 0,27,28
 173 481 173 481 193 478 c 1,29,-1
 193 460 l 1,16,17
105 665 m 1,30,-1
 62 713 l 1,31,-1
 81 729 l 1,32,-1
 124 681 l 1,33,-1
 105 665 l 1,30,-1
111 473 m 1,34,-1
 129 462 l 1,35,-1
 81 394 l 1,36,-1
 65 405 l 1,37,-1
 111 473 l 1,34,-1
331 389 m 1,38,-1
 293 453 l 1,39,-1
 316 466 l 1,40,-1
 354 402 l 1,41,-1
 331 389 l 1,38,-1
324 739 m 1,42,-1
 346 724 l 1,43,-1
 306 663 l 1,44,-1
 282 677 l 1,45,-1
 324 739 l 1,42,-1
EndSplineSet
Validated: 1
EndChar

StartChar: yen
Encoding: 165 165 167
Width: 636
GlyphClass: 2
Flags: W
LayerCount: 2
Fore
SplineSet
111 607 m 2,0,-1
 137 607 l 1,1,-1
 206 604 l 1,2,3
 288 458 288 458 387 281 c 1,4,-1
 387 276 l 1,5,-1
 448 276 l 1,6,-1
 448 208 l 1,7,-1
 387 208 l 1,8,-1
 387 185 l 1,9,-1
 446 185 l 1,10,-1
 446 108 l 1,11,-1
 387 108 l 1,12,-1
 387 49 l 1,13,-1
 260 49 l 1,14,-1
 260 108 l 1,15,-1
 204 108 l 1,16,-1
 204 185 l 1,17,-1
 260 185 l 1,18,19
 260 197 260 197 260 208 c 1,20,-1
 201 208 l 1,21,-1
 201 276 l 1,22,-1
 249 276 l 1,23,24
 238 310 238 310 150 451 c 128,-1,25
 62 592 62 592 62 599.5 c 128,-1,26
 62 607 62 607 111 607 c 2,0,-1
393 502 m 2,27,28
 443 594 443 594 448 597 c 0,29,30
 467 607 467 607 521 599 c 0,31,32
 547 596 547 596 575 593 c 1,33,34
 568 536 568 536 502 440 c 0,35,36
 421 321 421 321 411 320 c 0,37,38
 402 320 402 320 375 371 c 2,39,-1
 347 419 l 1,40,-1
 393 502 l 2,27,28
EndSplineSet
Validated: 33
EndChar

StartChar: brokenbar
Encoding: 166 166 168
Width: 181
GlyphClass: 2
Flags: W
LayerCount: 2
Fore
SplineSet
62 348 m 1,0,-1
 120 348 l 1,1,-1
 120 9 l 1,2,-1
 62 9 l 1,3,-1
 62 348 l 1,0,-1
62 823 m 1,4,-1
 120 823 l 1,5,-1
 120 480 l 1,6,-1
 62 480 l 1,7,-1
 62 823 l 1,4,-1
EndSplineSet
Validated: 1
EndChar

StartChar: section
Encoding: 167 167 169
Width: 329
GlyphClass: 2
Flags: W
LayerCount: 2
Fore
SplineSet
85 481 m 0,0,1
 85 597 85 597 156 598 c 2,2,-1
 169 598 l 2,3,4
 179 598 179 598 204 588 c 1,5,6
 204 548 204 548 151 548 c 0,7,8
 141 548 141 548 127 552 c 1,9,10
 130 459 130 459 133 446.5 c 128,-1,11
 136 434 136 434 137.5 427 c 128,-1,12
 139 420 139 420 146.5 420 c 128,-1,13
 154 420 154 420 156.5 422.5 c 128,-1,14
 159 425 159 425 171 424 c 0,15,16
 210 421 210 421 239 393.5 c 128,-1,17
 268 366 268 366 268 321.5 c 128,-1,18
 268 277 268 277 223 247 c 1,19,20
 225 230 225 230 225 216 c 0,21,22
 225 52 225 52 146 51 c 0,23,24
 124 51 124 51 97 64 c 1,25,26
 97 96 97 96 132 100 c 1,27,-1
 144 100 l 2,28,29
 156 100 156 100 176 94 c 1,30,31
 181 158 181 158 181 176.5 c 128,-1,32
 181 195 181 195 178.5 204.5 c 128,-1,33
 176 214 176 214 175 222 c 128,-1,34
 174 230 174 230 169 230 c 2,35,-1
 164 230 l 2,36,37
 122 230 122 230 92 258.5 c 128,-1,38
 62 287 62 287 62 327 c 128,-1,39
 62 367 62 367 92 396 c 1,40,41
 85 450 85 450 85 481 c 0,0,1
97 324.5 m 128,-1,43
 97 298 97 298 118 278 c 128,-1,44
 139 258 139 258 167.5 258 c 128,-1,45
 196 258 196 258 217 278 c 128,-1,46
 238 298 238 298 238 324.5 c 128,-1,47
 238 351 238 351 217 371 c 128,-1,48
 196 391 196 391 167.5 391 c 128,-1,49
 139 391 139 391 118 371 c 128,-1,42
 97 351 97 351 97 324.5 c 128,-1,43
EndSplineSet
Validated: 1
EndChar

StartChar: dieresis
Encoding: 168 168 170
Width: 251
GlyphClass: 2
Flags: W
LayerCount: 2
Fore
SplineSet
151 716 m 1,0,-1
 188 716 l 1,1,-1
 190 670 l 1,2,-1
 152 670 l 1,3,-1
 151 716 l 1,0,-1
62 716 m 1,4,-1
 102 716 l 1,5,-1
 103 670 l 1,6,-1
 63 670 l 1,7,-1
 62 716 l 1,4,-1
EndSplineSet
Validated: 1
EndChar

StartChar: copyright
Encoding: 169 169 171
Width: 429
GlyphClass: 2
Flags: W
LayerCount: 2
Fore
SplineSet
143 533 m 0,0,1
 143 607 143 607 225 606 c 2,2,-1
 227 606 l 2,3,4
 263 606 263 606 263 594 c 0,5,6
 263 589 263 589 258.5 577 c 128,-1,7
 254 565 254 565 251.5 565 c 128,-1,8
 249 565 249 565 241.5 568.5 c 128,-1,9
 234 572 234 572 224 572 c 0,10,11
 186 572 186 572 186 534 c 0,12,13
 186 514 186 514 196 503.5 c 128,-1,14
 206 493 206 493 218.5 493 c 128,-1,15
 231 493 231 493 241 498 c 2,16,-1
 252 503 l 1,17,-1
 260 493 l 2,18,19
 265 484 265 484 264 478 c 128,-1,20
 263 472 263 472 249.5 465 c 128,-1,21
 236 458 236 458 218 458 c 0,22,23
 174 458 174 458 153 493 c 0,24,25
 143 510 143 510 143 533 c 0,0,1
130 594 m 0,26,27
 114 568 114 568 114 530.5 c 128,-1,28
 114 493 114 493 147 462 c 1,29,-1
 122 414 l 1,30,-1
 121 412 l 1,31,32
 62 458 62 458 62 543 c 0,33,34
 62 581 62 581 86 620 c 0,35,36
 130 691 130 691 209 690 c 2,37,-1
 222 690 l 2,38,39
 235 690 235 690 260 683 c 1,40,-1
 258 680 l 1,41,-1
 236 637 l 1,42,43
 225 639 225 639 214 639 c 0,44,45
 158 640 158 640 130 594 c 0,26,27
311 654 m 1,46,47
 367 606 367 606 367 533 c 2,48,-1
 367 522 l 2,49,50
 368 478 368 478 329 430 c 128,-1,51
 290 382 290 382 218 381 c 0,52,53
 203 381 203 381 186 383 c 2,54,-1
 168 386 l 1,55,-1
 191 438 l 1,56,57
 204 436 204 436 215 436 c 0,58,59
 253 437 253 437 277 462 c 0,60,61
 313 500 313 500 313 540 c 128,-1,62
 313 580 313 580 286 608 c 1,63,-1
 287 608 l 1,64,-1
 311 654 l 1,46,47
EndSplineSet
Validated: 33
EndChar

StartChar: ordfeminine
Encoding: 170 170 172
Width: 398
GlyphClass: 2
Flags: W
LayerCount: 2
Fore
SplineSet
65 430 m 1,0,1
 70 451 70 451 110 539.5 c 128,-1,2
 150 628 150 628 153 628 c 0,3,4
 160 628 160 628 170 596 c 2,5,-1
 178 566 l 1,6,-1
 163 528 l 2,7,8
 145 492 145 492 145.5 484 c 128,-1,9
 146 476 146 476 180 476 c 2,10,-1
 213 476 l 1,11,-1
 220 456 l 2,12,13
 226 436 226 436 223 433 c 128,-1,14
 220 430 220 430 141 430 c 2,15,-1
 65 430 l 1,0,1
215 533 m 2,16,17
 169 646 169 646 168.5 651 c 128,-1,18
 168 656 168 656 200 656 c 2,19,-1
 232 656 l 1,20,-1
 242 637 l 2,21,22
 245 631 245 631 289.5 534.5 c 128,-1,23
 334 438 334 438 334 435 c 128,-1,24
 334 432 334 432 314 432 c 2,25,-1
 297 432 l 1,26,-1
 257 433 l 1,27,-1
 215 533 l 2,16,17
62 415 m 1,28,-1
 336 415 l 1,29,-1
 336 379 l 1,30,-1
 62 379 l 1,31,-1
 62 415 l 1,28,-1
EndSplineSet
Validated: 33
EndChar

StartChar: guillemotleft
Encoding: 171 171 173
Width: 588
GlyphClass: 1
Flags: W
LayerCount: 2
Fore
SplineSet
313 460 m 1,0,1
 307 460 307 460 245 376.5 c 128,-1,2
 183 293 183 293 183 287 c 128,-1,3
 183 281 183 281 252.5 202 c 128,-1,4
 322 123 322 123 325 105 c 0,5,6
 325 100 325 100 311 99 c 128,-1,7
 297 98 297 98 275.5 79.5 c 128,-1,8
 254 61 254 61 243 64 c 128,-1,9
 232 67 232 67 147 175.5 c 128,-1,10
 62 284 62 284 62 293 c 128,-1,11
 62 302 62 302 151.5 412.5 c 128,-1,12
 241 523 241 523 248 523 c 1,13,-1
 313 460 l 1,0,1
464 62 m 0,14,15
 447 68 447 68 358.5 179 c 128,-1,16
 270 290 270 290 270 299 c 128,-1,17
 270 308 270 308 358 416.5 c 128,-1,18
 446 525 446 525 461 525 c 0,19,20
 467 525 467 525 496 497 c 2,21,-1
 520 469 l 1,22,-1
 505 451 l 2,23,24
 491 435 491 435 440.5 360.5 c 128,-1,25
 390 286 390 286 390 281 c 128,-1,26
 390 276 390 276 458.5 195.5 c 128,-1,27
 527 115 527 115 527 103 c 0,28,29
 527 100 527 100 522 100 c 128,-1,30
 517 100 517 100 493.5 81 c 128,-1,31
 470 62 470 62 464 62 c 0,14,15
EndSplineSet
Validated: 33
EndChar

StartChar: logicalnot
Encoding: 172 172 174
Width: 491
GlyphClass: 2
Flags: W
LayerCount: 2
Fore
SplineSet
359 396 m 1,0,-1
 430 396 l 1,1,-1
 430 229 l 1,2,-1
 359 229 l 1,3,-1
 359 396 l 1,0,-1
62 394 m 1,4,-1
 320 394 l 1,5,-1
 320 321 l 1,6,-1
 62 321 l 1,7,-1
 62 394 l 1,4,-1
EndSplineSet
Validated: 1
EndChar

StartChar: registered
Encoding: 174 174 176
Width: 475
GlyphClass: 2
Flags: W
LayerCount: 2
Fore
SplineSet
155 662 m 0,0,1
 140 636 140 636 139.5 598 c 128,-1,2
 139 560 139 560 172 529 c 1,3,-1
 148 482 l 1,4,-1
 146 480 l 1,5,6
 87 526 87 526 87 611 c 0,7,8
 87 648 87 648 112 687 c 0,9,10
 155 758 155 758 235 758 c 2,11,-1
 248 758 l 2,12,13
 261 758 261 758 285 751 c 1,14,-1
 284 748 l 1,15,-1
 261 705 l 1,16,17
 250 707 250 707 239 707 c 0,18,19
 184 707 184 707 155 662 c 0,0,1
336 722 m 1,20,21
 392 674 392 674 392 601 c 2,22,-1
 392 590 l 2,23,24
 393 546 393 546 354 498 c 128,-1,25
 315 450 315 450 243 449 c 0,26,27
 228 449 228 449 212 451 c 2,28,-1
 194 454 l 1,29,-1
 217 506 l 1,30,31
 230 503 230 503 240 503 c 0,32,33
 278 504 278 504 302 529 c 0,34,35
 338 567 338 567 338 607.5 c 128,-1,36
 338 648 338 648 311 675 c 1,37,-1
 312 677 l 1,38,-1
 336 722 l 1,20,21
228 643 m 1,39,40
 225 653 225 653 225 658 c 0,41,42
 226 664 226 664 244.5 662.5 c 128,-1,43
 263 661 263 661 269 651 c 2,44,-1
 281 636 l 1,45,-1
 281 625 l 2,46,47
 281 617 281 617 272 607 c 128,-1,48
 263 597 263 597 266.5 595 c 128,-1,49
 270 593 270 593 277.5 573 c 128,-1,50
 285 553 285 553 269 553 c 2,51,-1
 255 553 l 1,52,-1
 245 572 l 2,53,54
 238 588 238 588 233 590.5 c 128,-1,55
 228 593 228 593 228 597 c 2,56,-1
 228 601 l 1,57,-1
 228 611 l 1,58,59
 253 614 253 614 251 626 c 0,60,61
 251 638 251 638 228 643 c 1,39,40
196 662 m 1,62,63
 204 661 204 661 220 662 c 1,64,-1
 220 607 l 1,65,-1
 220 553 l 1,66,-1
 195 553 l 1,67,-1
 195 607 l 1,68,-1
 196 662 l 1,62,63
115 720 m 1,69,-1
 62 786 l 1,70,-1
 74 795 l 1,71,-1
 126 730 l 1,72,-1
 115 720 l 1,69,-1
338 467 m 1,73,-1
 350 477 l 1,74,-1
 414 403 l 1,75,-1
 402 393 l 1,76,-1
 338 467 l 1,73,-1
EndSplineSet
Validated: 33
EndChar

StartChar: macron
Encoding: 175 175 177
Width: 433
GlyphClass: 2
Flags: W
LayerCount: 2
Fore
SplineSet
62 707 m 1,0,-1
 371 707 l 1,1,-1
 371 665 l 1,2,-1
 62 665 l 1,3,-1
 62 707 l 1,0,-1
EndSplineSet
Validated: 1
EndChar

StartChar: degree
Encoding: 176 176 178
Width: 306
GlyphClass: 2
Flags: W
LayerCount: 2
Fore
SplineSet
146 579 m 1,0,1
 119 582 119 582 117 612 c 0,2,3
 117 630 117 630 126.5 639.5 c 128,-1,4
 136 649 136 649 146 651 c 1,5,-1
 146 579 l 1,0,1
155 579 m 1,6,-1
 155 649 l 1,7,8
 165 648 165 648 175 638.5 c 128,-1,9
 185 629 185 629 185 613 c 128,-1,10
 185 597 185 597 175 588.5 c 128,-1,11
 165 580 165 580 155 579 c 1,6,-1
145 514 m 1,12,13
 111 517 111 517 86.5 544.5 c 128,-1,14
 62 572 62 572 62 613 c 128,-1,15
 62 654 62 654 86.5 681 c 128,-1,16
 111 708 111 708 147 712 c 1,17,-1
 147 697 l 1,18,19
 119 696 119 696 97 672.5 c 128,-1,20
 75 649 75 649 75 615.5 c 128,-1,21
 75 582 75 582 96 558.5 c 128,-1,22
 117 535 117 535 146 533 c 1,23,-1
 145 514 l 1,12,13
152 514 m 1,24,-1
 152 533 l 1,25,26
 183 533 183 533 206.5 556.5 c 128,-1,27
 230 580 230 580 230 614 c 128,-1,28
 230 648 230 648 207.5 672 c 128,-1,29
 185 696 185 696 155 697 c 1,30,-1
 157 712 l 1,31,32
 195 711 195 711 220 683.5 c 128,-1,33
 245 656 245 656 245 614 c 128,-1,34
 245 572 245 572 218.5 543 c 128,-1,35
 192 514 192 514 155 514 c 2,36,-1
 152 514 l 1,24,-1
EndSplineSet
Validated: 1
EndChar

StartChar: plusminus
Encoding: 177 177 179
Width: 354
GlyphClass: 2
Flags: W
LayerCount: 2
Fore
SplineSet
78 314 m 1,0,-1
 281 314 l 1,1,-1
 281 239 l 1,2,-1
 78 239 l 1,3,-1
 78 314 l 1,0,-1
291 450 m 1,4,-1
 62 450 l 1,5,-1
 62 493 l 1,6,-1
 105 494 l 2,7,8
 150 495 150 495 220 496 c 2,9,-1
 292 498 l 1,10,-1
 291 450 l 1,4,-1
163 605 m 1,11,-1
 200 605 l 1,12,-1
 198 511 l 1,13,-1
 151 511 l 1,14,-1
 163 605 l 1,11,-1
156 345 m 1,15,-1
 156 435 l 1,16,-1
 178 435 l 1,17,-1
 198 433 l 1,18,-1
 198 348 l 1,19,-1
 178 347 l 1,20,-1
 156 345 l 1,15,-1
EndSplineSet
Validated: 1
EndChar

StartChar: uni00B2
Encoding: 178 178 180
Width: 354
GlyphClass: 2
Flags: W
LayerCount: 2
Fore
SplineSet
75 727 m 2,0,1
 85 737 85 737 109.5 747.5 c 128,-1,2
 134 758 134 758 147 758 c 128,-1,3
 160 758 160 758 162.5 754 c 128,-1,4
 165 750 165 750 165 731 c 128,-1,5
 165 712 165 712 162 708 c 128,-1,6
 159 704 159 704 140.5 699 c 128,-1,7
 122 694 122 694 113 684.5 c 128,-1,8
 104 675 104 675 99 675 c 128,-1,9
 94 675 94 675 78 696 c 2,10,-1
 62 717 l 1,11,-1
 75 727 l 2,0,1
214 671 m 0,12,13
 214 684 214 684 199.5 696.5 c 128,-1,14
 185 709 185 709 185 729.5 c 128,-1,15
 185 750 185 750 187.5 754 c 128,-1,16
 190 758 190 758 209 758 c 128,-1,17
 228 758 228 758 257.5 736 c 128,-1,18
 287 714 287 714 287 676 c 0,19,20
 287 623 287 623 213 570 c 2,21,-1
 177 543 l 1,22,-1
 135 543 l 2,23,24
 95 543 95 543 95 546.5 c 128,-1,25
 95 550 95 550 129 576 c 0,26,27
 214 644 214 644 214 671 c 0,12,13
67 474 m 1,28,-1
 67 528 l 1,29,30
 67 527 67 527 180 527 c 2,31,-1
 292 525 l 1,32,-1
 292 477 l 1,33,-1
 180 476 l 1,34,-1
 67 474 l 1,28,-1
EndSplineSet
Validated: 1
EndChar

StartChar: uni00B3
Encoding: 179 179 181
Width: 354
GlyphClass: 2
Flags: W
LayerCount: 2
Fore
SplineSet
83 640.5 m 128,-1,1
 70 660 70 660 70 666.5 c 128,-1,2
 70 673 70 673 99.5 685.5 c 128,-1,3
 129 698 129 698 149 698 c 2,4,-1
 168 698 l 1,5,-1
 168 676 l 2,6,7
 168 657 168 657 162 650.5 c 128,-1,8
 156 644 156 644 137.5 639.5 c 128,-1,9
 119 635 119 635 113.5 628 c 128,-1,10
 108 621 108 621 102 621 c 128,-1,0
 96 621 96 621 83 640.5 c 128,-1,1
134 527 m 1,11,12
 131 550 131 550 131 562 c 0,13,14
 131 580 131 580 157 580 c 128,-1,15
 183 580 183 580 198 590 c 128,-1,16
 213 600 213 600 213 610 c 128,-1,17
 213 620 213 620 198 635 c 128,-1,18
 183 650 183 650 185 673 c 2,19,-1
 185 699 l 1,20,-1
 203 696 l 2,21,22
 236 691 236 691 258 668 c 128,-1,23
 280 645 280 645 280 617.5 c 128,-1,24
 280 590 280 590 259 571 c 0,25,26
 258 571 258 571 240 557 c 1,27,-1
 256 548 l 2,28,29
 292 528 292 528 292 486.5 c 128,-1,30
 292 445 292 445 261 420.5 c 128,-1,31
 230 396 230 396 209 396 c 128,-1,32
 188 396 188 396 186.5 401.5 c 128,-1,33
 185 407 185 407 185 423.5 c 128,-1,34
 185 440 185 440 187.5 447 c 128,-1,35
 190 454 190 454 204 464.5 c 128,-1,36
 218 475 218 475 218 488.5 c 128,-1,37
 218 502 218 502 209.5 512 c 128,-1,38
 201 522 201 522 167 525 c 2,39,-1
 134 527 l 1,11,12
139 399 m 2,40,41
 119 399 119 399 90.5 409.5 c 128,-1,42
 62 420 62 420 62 432 c 0,43,44
 62 438 62 438 72 458.5 c 128,-1,45
 82 479 82 479 84 479 c 128,-1,46
 86 479 86 479 101 469.5 c 128,-1,47
 116 460 116 460 128.5 457.5 c 128,-1,48
 141 455 141 455 165 450 c 1,49,-1
 165 399 l 1,50,-1
 139 399 l 2,40,41
EndSplineSet
Validated: 33
EndChar

StartChar: acute
Encoding: 180 180 182
Width: 275
GlyphClass: 2
Flags: W
LayerCount: 2
Fore
SplineSet
113 489 m 1,0,-1
 73 514 l 1,1,-1
 62 553 l 1,2,3
 135 566 135 566 135 696 c 0,4,5
 135 708 135 708 134 722 c 1,6,-1
 213 670 l 1,7,8
 214 650 214 650 214 632 c 0,9,10
 214 525 214 525 152 496 c 1,11,-1
 113 489 l 1,0,-1
EndSplineSet
Validated: 1
EndChar

StartChar: mu
Encoding: 181 181 183
Width: 484
GlyphClass: 2
Flags: W
LayerCount: 2
Fore
SplineSet
274 229 m 2,0,-1
 274 331 l 1,1,-1
 351 331 l 1,2,-1
 351 222 l 2,3,4
 351 131 351 131 344 104.5 c 128,-1,5
 337 78 337 78 309 57.5 c 128,-1,6
 281 37 281 37 243 32 c 2,7,-1
 220 29 l 1,8,-1
 220 58 l 2,9,10
 220 78 220 78 223.5 84.5 c 128,-1,11
 227 91 227 91 240 96 c 0,12,13
 268 106 268 106 269 147 c 0,14,15
 269 158 269 158 271.5 160.5 c 128,-1,16
 274 163 274 163 274 229 c 2,0,-1
62 233 m 2,17,-1
 62 331 l 1,18,-1
 102 329 l 1,19,-1
 141 327 l 1,20,-1
 145 226 l 2,21,22
 148 150 148 150 151.5 125.5 c 128,-1,23
 155 101 155 101 180 93 c 0,24,25
 190 90 190 90 194.5 85 c 128,-1,26
 199 80 199 80 199 60.5 c 128,-1,27
 199 41 199 41 197 35.5 c 128,-1,28
 195 30 195 30 185 30 c 128,-1,29
 175 30 175 30 146 38.5 c 128,-1,30
 117 47 117 47 96.5 69 c 128,-1,31
 76 91 76 91 69 111 c 128,-1,32
 62 131 62 131 62 233 c 2,17,-1
64 96 m 1,33,-1
 113 39 l 1,34,-1
 117 -43 l 1,35,-1
 64 -43 l 1,36,-1
 64 96 l 1,33,-1
422 12 m 1,37,-1
 412 -4 l 1,38,-1
 398 -19 l 1,39,40
 390 -19 390 -19 376 -19 c 0,41,42
 322 -17 322 -17 299 32 c 1,43,-1
 314 40 l 2,44,45
 321 45 321 45 329 46 c 128,-1,46
 337 47 337 47 353 28 c 128,-1,47
 369 9 369 9 389 9 c 128,-1,48
 409 9 409 9 422 12 c 1,37,-1
EndSplineSet
Validated: 1
EndChar

StartChar: paragraph
Encoding: 182 182 184
Width: 503
GlyphClass: 2
Flags: W
LayerCount: 2
Fore
SplineSet
259 369 m 2,0,-1
 299 365 l 1,1,-1
 299 256 l 1,2,-1
 241 258 l 2,3,4
 154 262 154 262 108 315.5 c 128,-1,5
 62 369 62 369 62 470 c 128,-1,6
 62 571 62 571 112 619 c 0,7,8
 138 644 138 644 181.5 659 c 128,-1,9
 225 674 225 674 260.5 674 c 128,-1,10
 296 674 296 674 301 657 c 0,11,12
 303 649 303 649 303 613.5 c 128,-1,13
 303 578 303 578 297 568 c 128,-1,14
 291 558 291 558 258.5 555.5 c 128,-1,15
 226 553 226 553 210.5 543.5 c 128,-1,16
 195 534 195 534 186.5 509 c 128,-1,17
 178 484 178 484 178 453.5 c 128,-1,18
 178 423 178 423 199 398.5 c 128,-1,19
 220 374 220 374 259 369 c 2,0,-1
329 56 m 1,20,-1
 334 668 l 1,21,22
 347 669 347 669 375 670 c 1,23,-1
 372 56 l 1,24,-1
 329 56 l 1,20,-1
402 56 m 1,25,-1
 407 673 l 1,26,27
 430 674 430 674 441 675 c 1,28,-1
 441 56 l 1,29,-1
 402 56 l 1,25,-1
EndSplineSet
Validated: 1
EndChar

StartChar: periodcentered
Encoding: 183 183 185
Width: 185
GlyphClass: 2
Flags: W
LayerCount: 2
Fore
SplineSet
62 365.5 m 128,-1,1
 62 378 62 378 71 387.5 c 128,-1,2
 80 397 80 397 92.5 397 c 128,-1,3
 105 397 105 397 114.5 387.5 c 128,-1,4
 124 378 124 378 124 365.5 c 128,-1,5
 124 353 124 353 114.5 343.5 c 128,-1,6
 105 334 105 334 92.5 334 c 128,-1,7
 80 334 80 334 71 343.5 c 128,-1,0
 62 353 62 353 62 365.5 c 128,-1,1
EndSplineSet
Validated: 1
EndChar

StartChar: cedilla
Encoding: 184 184 186
Width: 184
GlyphClass: 2
Flags: W
LayerCount: 2
Fore
SplineSet
103 113 m 1,0,-1
 123 113 l 1,1,-1
 123 33 l 1,2,-1
 107 33 l 1,3,-1
 62 33 l 1,4,-1
 62 52 l 1,5,-1
 103 52 l 1,6,-1
 103 113 l 1,0,-1
EndSplineSet
Validated: 1
EndChar

StartChar: uni00B9
Encoding: 185 185 187
Width: 234
GlyphClass: 2
Flags: W
LayerCount: 2
Fore
SplineSet
116 700 m 2,0,-1
 80 683 l 2,1,2
 79 683 79 683 70.5 699 c 128,-1,3
 62 715 62 715 62 719 c 0,4,5
 62 727 62 727 121 751 c 2,6,-1
 141 759 l 2,7,8
 149 760 149 760 151 760 c 2,9,-1
 154 760 l 2,10,11
 172 757 172 757 172 652 c 2,12,-1
 172 545 l 1,13,-1
 120 545 l 1,14,-1
 120 621 l 2,15,16
 120 700 120 700 116 700 c 2,0,-1
EndSplineSet
Validated: 1
EndChar

StartChar: ordmasculine
Encoding: 186 186 188
Width: 306
GlyphClass: 2
Flags: W
LayerCount: 2
Fore
SplineSet
65 497 m 1,0,-1
 242 497 l 1,1,-1
 242 477 l 1,2,-1
 65 477 l 1,3,-1
 65 497 l 1,0,-1
152 515 m 1,4,-1
 152 534 l 1,5,6
 183 534 183 534 206.5 557.5 c 128,-1,7
 230 581 230 581 230 615 c 128,-1,8
 230 649 230 649 207.5 673.5 c 128,-1,9
 185 698 185 698 155 698 c 1,10,-1
 157 713 l 1,11,12
 195 713 195 713 220 685.5 c 128,-1,13
 245 658 245 658 245 615.5 c 128,-1,14
 245 573 245 573 218.5 544 c 128,-1,15
 192 515 192 515 155 515 c 2,16,-1
 152 515 l 1,4,-1
145 515 m 1,17,18
 111 518 111 518 86.5 545.5 c 128,-1,19
 62 573 62 573 62 614 c 128,-1,20
 62 655 62 655 86.5 682 c 128,-1,21
 111 709 111 709 147 713 c 1,22,-1
 147 698 l 1,23,24
 119 698 119 698 97 674 c 128,-1,25
 75 650 75 650 75 616.5 c 128,-1,26
 75 583 75 583 96 560 c 128,-1,27
 117 537 117 537 146 534 c 1,28,-1
 145 515 l 1,17,18
155 580 m 1,29,-1
 155 650 l 1,30,31
 165 649 165 649 175 639.5 c 128,-1,32
 185 630 185 630 185 614 c 128,-1,33
 185 598 185 598 175 589.5 c 128,-1,34
 165 581 165 581 155 580 c 1,29,-1
146 580 m 1,35,36
 119 583 119 583 117 613 c 0,37,38
 117 631 117 631 126.5 640.5 c 128,-1,39
 136 650 136 650 146 652 c 1,40,-1
 146 580 l 1,35,36
EndSplineSet
Validated: 1
EndChar

StartChar: guillemotright
Encoding: 187 187 189
Width: 509
GlyphClass: 1
Flags: W
LayerCount: 2
Fore
SplineSet
117 428 m 2,0,1
 63 500 63 500 62.5 503 c 128,-1,2
 62 506 62 506 90 525.5 c 128,-1,3
 118 545 118 545 123 545 c 0,4,5
 131 545 131 545 206 455.5 c 128,-1,6
 281 366 281 366 281 358.5 c 128,-1,7
 281 351 281 351 213.5 269 c 128,-1,8
 146 187 146 187 137 179 c 128,-1,9
 128 171 128 171 122.5 171 c 128,-1,10
 117 171 117 171 89.5 188 c 128,-1,11
 62 205 62 205 62 211.5 c 128,-1,12
 62 218 62 218 116.5 286 c 128,-1,13
 171 354 171 354 171 358 c 2,14,-1
 117 428 l 2,0,1
447 358.5 m 128,-1,16
 447 351 447 351 380.5 269 c 128,-1,17
 314 187 314 187 304.5 179 c 128,-1,18
 295 171 295 171 289.5 171 c 128,-1,19
 284 171 284 171 257 188 c 128,-1,20
 230 205 230 205 230 211.5 c 128,-1,21
 230 218 230 218 282.5 285.5 c 128,-1,22
 335 353 335 353 335 358 c 128,-1,23
 335 363 335 363 282.5 431.5 c 128,-1,24
 230 500 230 500 230 503 c 128,-1,25
 230 506 230 506 257 525.5 c 128,-1,26
 284 545 284 545 289 545 c 0,27,28
 297 545 297 545 372 455.5 c 128,-1,15
 447 366 447 366 447 358.5 c 128,-1,16
EndSplineSet
Validated: 33
EndChar

StartChar: onequarter
Encoding: 188 188 190
Width: 344
GlyphClass: 2
Flags: W
LayerCount: 2
Fore
SplineSet
225 351 m 1,0,-1
 225 513 l 1,1,-1
 262 513 l 1,2,-1
 262 414 l 1,3,-1
 282 414 l 1,4,-1
 282 382 l 1,5,-1
 262 382 l 1,6,-1
 262 351 l 1,7,-1
 225 351 l 1,0,-1
80 466 m 1,8,-1
 230 584 l 1,9,-1
 251 558 l 1,10,-1
 100 440 l 1,11,-1
 80 466 l 1,8,-1
113 605 m 2,12,13
 113 671 113 671 111 672 c 128,-1,14
 109 673 109 673 77 658 c 0,15,16
 76 658 76 658 69 671.5 c 128,-1,17
 62 685 62 685 62 689 c 0,18,19
 62 696 62 696 113 717 c 2,20,-1
 130 723 l 2,21,22
 135 724 135 724 137.5 723.5 c 128,-1,23
 140 723 140 723 141 723 c 0,24,25
 156 722 156 722 156 643 c 2,26,-1
 156 540 l 1,27,-1
 113 540 l 1,28,-1
 113 605 l 2,12,13
215 411 m 1,29,-1
 216 382 l 1,30,-1
 149 382 l 1,31,-1
 149 397 l 1,32,-1
 149 399 l 2,33,34
 149 409 149 409 154.5 419 c 128,-1,35
 160 429 160 429 197 482 c 2,36,-1
 215 510 l 1,37,-1
 215 500 l 2,38,39
 215 492 215 492 216 462 c 1,40,41
 200 439 200 439 185 415 c 1,42,-1
 200 414 l 1,43,-1
 215 411 l 1,29,-1
EndSplineSet
Validated: 33
EndChar

StartChar: onehalf
Encoding: 189 189 191
Width: 355
GlyphClass: 2
Flags: W
LayerCount: 2
Fore
SplineSet
172 468 m 1,0,1
 195 489 195 489 219 489 c 0,2,3
 224 489 224 489 225 487 c 128,-1,4
 226 485 226 485 226 475 c 128,-1,5
 226 465 226 465 224 463.5 c 128,-1,6
 222 462 222 462 213 458.5 c 128,-1,7
 204 455 204 455 199 450 c 128,-1,8
 194 445 194 445 191.5 445 c 128,-1,9
 189 445 189 445 180 457 c 2,10,-1
 172 468 l 1,0,1
244.5 457.5 m 128,-1,12
 237 465 237 465 237 475 c 128,-1,13
 237 485 237 485 238.5 487 c 128,-1,14
 240 489 240 489 249.5 489 c 128,-1,15
 259 489 259 489 274.5 477 c 128,-1,16
 290 465 290 465 290 442.5 c 128,-1,17
 290 420 290 420 251 391 c 2,18,-1
 232 376 l 1,19,-1
 210 376 l 2,20,21
 190 376 190 376 189.5 378.5 c 128,-1,22
 189 381 189 381 220.5 405.5 c 128,-1,23
 252 430 252 430 252 440 c 128,-1,11
 252 450 252 450 244.5 457.5 c 128,-1,12
175 342 m 1,24,-1
 175 369 l 1,25,-1
 234 369 l 1,26,-1
 293 368 l 1,27,-1
 293 343 l 1,28,-1
 234 342 l 1,29,-1
 175 342 l 1,24,-1
80 465 m 1,30,-1
 230 583 l 1,31,-1
 251 557 l 1,32,-1
 100 440 l 1,33,-1
 80 465 l 1,30,-1
112 604 m 2,34,35
 112 671 112 671 110.5 671.5 c 128,-1,36
 109 672 109 672 76 657 c 0,37,38
 75 657 75 657 68.5 671 c 128,-1,39
 62 685 62 685 62 688 c 0,40,41
 62 696 62 696 112 716 c 2,42,-1
 130 723 l 2,43,44
 135 724 135 724 137.5 723.5 c 128,-1,45
 140 723 140 723 141 723 c 0,46,47
 156 722 156 722 155 642 c 2,48,-1
 155 540 l 1,49,-1
 112 540 l 1,50,-1
 112 604 l 2,34,35
EndSplineSet
Validated: 33
EndChar

StartChar: threequarters
Encoding: 190 190 192
Width: 413
GlyphClass: 2
Flags: W
LayerCount: 2
Fore
SplineSet
143.5 763.5 m 128,-1,1
 138 758 138 758 123 754 c 128,-1,2
 108 750 108 750 103.5 744.5 c 128,-1,3
 99 739 99 739 93.5 739 c 128,-1,4
 88 739 88 739 78 754.5 c 128,-1,5
 68 770 68 770 68 775.5 c 128,-1,6
 68 781 68 781 91.5 791.5 c 128,-1,7
 115 802 115 802 131 802 c 2,8,-1
 149 802 l 1,9,-1
 149 784 l 2,10,0
 149 769 149 769 143.5 763.5 c 128,-1,1
119 662 m 1,11,12
 117 682 117 682 117 690 c 0,13,14
 117 706 117 706 138.5 705.5 c 128,-1,15
 160 705 160 705 171 714.5 c 128,-1,16
 182 724 182 724 182 731.5 c 128,-1,17
 182 739 182 739 175 748 c 0,18,19
 160 761 160 761 160 782 c 2,20,-1
 160 802 l 1,21,-1
 176 801 l 2,22,23
 204 796 204 796 222 777 c 128,-1,24
 240 758 240 758 240 736.5 c 128,-1,25
 240 715 240 715 221 699 c 2,26,-1
 207 686 l 1,27,-1
 220 679 l 2,28,29
 249 662 249 662 249 628.5 c 128,-1,30
 249 595 249 595 223.5 575 c 128,-1,31
 198 555 198 555 181 555 c 128,-1,32
 164 555 164 555 162 560 c 128,-1,33
 160 565 160 565 160 581.5 c 128,-1,34
 160 598 160 598 173.5 609 c 128,-1,35
 187 620 187 620 187 630.5 c 128,-1,36
 187 641 187 641 181 649 c 128,-1,37
 175 657 175 657 147 661 c 2,38,-1
 119 662 l 1,11,12
124 558 m 2,39,40
 108 558 108 558 85 566.5 c 128,-1,41
 62 575 62 575 62 582 c 128,-1,42
 62 589 62 589 69.5 605 c 128,-1,43
 77 621 77 621 79.5 621 c 128,-1,44
 82 621 82 621 93.5 614.5 c 128,-1,45
 105 608 105 608 125 603 c 2,46,-1
 145 598 l 1,47,-1
 145 558 l 1,48,-1
 124 558 l 2,39,40
277 303 m 1,49,-1
 277 505 l 1,50,-1
 323 505 l 1,51,-1
 323 382 l 1,52,-1
 351 382 l 1,53,-1
 351 342 l 1,54,-1
 323 342 l 1,55,-1
 323 303 l 1,56,-1
 277 303 l 1,49,-1
95 447 m 1,57,-1
 283 594 l 1,58,-1
 309 561 l 1,59,-1
 120 414 l 1,60,-1
 95 447 l 1,57,-1
265 379 m 1,61,-1
 266 342 l 1,62,-1
 181 342 l 1,63,-1
 181 360 l 1,64,-1
 181 364 l 2,65,66
 181 376 181 376 188 388 c 128,-1,67
 195 400 195 400 241 467 c 2,68,-1
 265 501 l 1,69,-1
 265 490 l 2,70,71
 265 480 265 480 266 442 c 1,72,73
 246 413 246 413 227 384 c 1,74,-1
 245 382 l 1,75,-1
 265 379 l 1,61,-1
EndSplineSet
Validated: 33
EndChar

StartChar: questiondown
Encoding: 191 191 193
Width: 481
GlyphClass: 1
Flags: W
LayerCount: 2
Fore
SplineSet
266 555 m 0,0,1
 240 555 240 555 220 573 c 128,-1,2
 200 591 200 591 200 619 c 128,-1,3
 200 647 200 647 220.5 671.5 c 128,-1,4
 241 696 241 696 260 696 c 128,-1,5
 279 696 279 696 287 691 c 128,-1,6
 295 686 295 686 314 664 c 128,-1,7
 333 642 333 642 333 633.5 c 128,-1,8
 333 625 333 625 331 617 c 0,9,10
 316 555 316 555 266 555 c 0,0,1
62 215 m 2,11,12
 65 262 65 262 79 287.5 c 128,-1,13
 93 313 93 313 142.5 357 c 128,-1,14
 192 401 192 401 204 420.5 c 128,-1,15
 216 440 216 440 222 471 c 128,-1,16
 228 502 228 502 234 509.5 c 128,-1,17
 240 517 240 517 266.5 517 c 128,-1,18
 293 517 293 517 301.5 508.5 c 128,-1,19
 310 500 310 500 310 473 c 0,20,21
 310 391 310 391 214 307 c 0,22,23
 148 248 148 248 149 212 c 0,24,25
 149 197 149 197 157 182 c 0,26,27
 180 139 180 139 250 139 c 0,28,29
 288 139 288 139 325 152.5 c 128,-1,30
 362 166 362 166 371.5 166 c 128,-1,31
 381 166 381 166 388 158 c 128,-1,32
 395 150 395 150 406 129 c 2,33,-1
 420 103 l 1,34,-1
 402 88 l 2,35,36
 359 50 359 50 241 51 c 0,37,38
 182 51 182 51 155.5 60.5 c 128,-1,39
 129 70 129 70 106 93 c 0,40,41
 62 137 62 137 62 205 c 2,42,-1
 62 215 l 2,11,12
EndSplineSet
Validated: 33
EndChar

StartChar: Agrave
Encoding: 192 192 194
Width: 752
GlyphClass: 2
Flags: W
LayerCount: 2
Fore
SplineSet
387 780 m 1,0,-1
 434 638 l 1,1,-1
 362 622 l 1,2,-1
 327 753 l 1,3,-1
 387 780 l 1,0,-1
689 10 m 0,4,5
 689 -3 689 -3 656 -3 c 128,-1,6
 623 -3 623 -3 610 -1 c 2,7,-1
 543 2 l 1,8,-1
 507 99 l 2,9,10
 318 605 318 605 319 616 c 0,11,12
 319 619 319 619 347.5 619.5 c 128,-1,13
 376 620 376 620 389 618 c 2,14,-1
 461 616 l 1,15,-1
 480 567 l 1,16,17
 559 381 559 381 624 208.5 c 128,-1,18
 689 36 689 36 689 10 c 0,4,5
265 -3 m 2,19,20
 63 -3 63 -3 63 5 c 128,-1,21
 63 13 63 13 164 277.5 c 128,-1,22
 265 542 265 542 271 562.5 c 128,-1,23
 277 583 277 583 287 583 c 2,24,-1
 288 583 l 1,25,26
 294 577 294 577 324 493 c 2,27,-1
 352 408 l 1,28,-1
 303 273 l 2,29,30
 255 142 255 142 255 127 c 128,-1,31
 255 112 255 112 272 108.5 c 128,-1,32
 289 105 289 105 354.5 105 c 128,-1,33
 420 105 420 105 434.5 95 c 128,-1,34
 449 85 449 85 465 23 c 2,35,-1
 471 -3 l 1,36,-1
 265 -3 l 2,19,20
EndSplineSet
Validated: 33
EndChar

StartChar: Aacute
Encoding: 193 193 195
Width: 752
GlyphClass: 1
Flags: W
LayerCount: 2
Fore
SplineSet
398 799 m 1,0,-1
 465 773 l 1,1,-1
 426 636 l 1,2,-1
 344 653 l 1,3,-1
 398 799 l 1,0,-1
689 8 m 0,4,5
 689 -5 689 -5 656 -5 c 128,-1,6
 623 -5 623 -5 610 -4 c 2,7,-1
 543 0 l 1,8,-1
 507 96 l 2,9,10
 318 602 318 602 319 614 c 0,11,12
 319 617 319 617 347.5 617 c 128,-1,13
 376 617 376 617 389 616 c 2,14,-1
 461 614 l 1,15,-1
 480 565 l 1,16,17
 559 379 559 379 624 206.5 c 128,-1,18
 689 34 689 34 689 8 c 0,4,5
265 -5 m 2,19,20
 63 -5 63 -5 63 3 c 128,-1,21
 63 11 63 11 164 275.5 c 128,-1,22
 265 540 265 540 271 560.5 c 128,-1,23
 277 581 277 581 287 581 c 2,24,-1
 288 581 l 1,25,26
 294 575 294 575 324 491 c 2,27,-1
 352 405 l 1,28,-1
 303 271 l 2,29,30
 255 140 255 140 255 125 c 128,-1,31
 255 110 255 110 272 106.5 c 128,-1,32
 289 103 289 103 354.5 103 c 128,-1,33
 420 103 420 103 434.5 93 c 128,-1,34
 449 83 449 83 465 21 c 2,35,-1
 471 -5 l 1,36,-1
 265 -5 l 2,19,20
EndSplineSet
Validated: 33
EndChar

StartChar: Acircumflex
Encoding: 194 194 196
Width: 752
GlyphClass: 2
Flags: W
LayerCount: 2
Fore
SplineSet
372 817 m 1,0,-1
 523 683 l 1,1,-1
 512 631 l 1,2,-1
 371 746 l 1,3,-1
 245 623 l 1,4,-1
 233 684 l 1,5,-1
 372 817 l 1,0,-1
689 11 m 0,6,7
 689 -2 689 -2 656 -2.5 c 128,-1,8
 623 -3 623 -3 610 -2 c 2,9,-1
 543 2 l 1,10,-1
 507 98 l 2,11,12
 318 605 318 605 319 616 c 0,13,14
 319 619 319 619 347.5 619.5 c 128,-1,15
 376 620 376 620 389 618 c 2,16,-1
 461 616 l 1,17,-1
 480 568 l 1,18,19
 559 381 559 381 624 208.5 c 128,-1,20
 689 36 689 36 689 11 c 0,6,7
265 -3 m 2,21,22
 63 -3 63 -3 63 5 c 128,-1,23
 63 13 63 13 164 277 c 128,-1,24
 265 541 265 541 271 562.5 c 128,-1,25
 277 584 277 584 287 584 c 2,26,-1
 288 584 l 1,27,28
 294 578 294 578 324 494 c 2,29,-1
 352 408 l 1,30,-1
 303 273 l 2,31,32
 255 142 255 142 255 127 c 128,-1,33
 255 112 255 112 272 108.5 c 128,-1,34
 289 105 289 105 354.5 105 c 128,-1,35
 420 105 420 105 434.5 95 c 128,-1,36
 449 85 449 85 465 23 c 2,37,-1
 471 -3 l 1,38,-1
 265 -3 l 2,21,22
EndSplineSet
Validated: 33
EndChar

StartChar: Atilde
Encoding: 195 195 197
Width: 752
GlyphClass: 2
Flags: W
LayerCount: 2
Fore
SplineSet
356 771 m 1,0,-1
 389 716 l 1,1,-1
 522 740 l 1,2,-1
 522 673 l 1,3,-1
 389 652 l 1,4,-1
 356 706 l 1,5,-1
 233 673 l 1,6,-1
 233 740 l 1,7,-1
 352 770 l 1,8,-1
 356 771 l 1,0,-1
689 8 m 0,9,10
 689 -6 689 -6 656 -6.5 c 128,-1,11
 623 -7 623 -7 610 -5 c 2,12,-1
 543 -2 l 1,13,-1
 507 95 l 2,14,15
 318 601 318 601 319 612 c 0,16,17
 319 616 319 616 347.5 616 c 128,-1,18
 376 616 376 616 389 615 c 2,19,-1
 461 612 l 1,20,-1
 480 565 l 2,21,22
 559 378 559 378 624 205.5 c 128,-1,23
 689 33 689 33 689 8 c 0,9,10
265 -7 m 2,24,25
 63 -7 63 -7 63 1.5 c 128,-1,26
 63 10 63 10 164 274 c 128,-1,27
 265 538 265 538 271 559 c 128,-1,28
 277 580 277 580 287 580 c 2,29,-1
 288 580 l 1,30,31
 294 575 294 575 324 490 c 2,32,-1
 352 405 l 1,33,-1
 303 269 l 2,34,35
 255 138 255 138 255 123 c 128,-1,36
 255 108 255 108 272 105 c 128,-1,37
 289 102 289 102 354.5 102 c 128,-1,38
 420 102 420 102 434.5 92 c 128,-1,39
 449 82 449 82 465 20 c 2,40,-1
 471 -7 l 1,41,-1
 265 -7 l 2,24,25
EndSplineSet
Validated: 33
EndChar

StartChar: Adieresis
Encoding: 196 196 198
Width: 752
GlyphClass: 2
Flags: W
LayerCount: 2
Fore
SplineSet
396 751 m 1,0,-1
 432 751 l 1,1,-1
 432 707 l 1,2,-1
 396 707 l 1,3,-1
 396 751 l 1,0,-1
307 753 m 1,4,-1
 346 753 l 1,5,-1
 346 706 l 1,6,-1
 307 706 l 1,7,-1
 307 753 l 1,4,-1
689 10 m 0,8,9
 689 -3 689 -3 656 -3.5 c 128,-1,10
 623 -4 623 -4 610 -2 c 2,11,-1
 543 1 l 1,12,-1
 507 98 l 2,13,14
 318 604 318 604 319 615 c 0,15,16
 319 618 319 618 347.5 618.5 c 128,-1,17
 376 619 376 619 389 618 c 2,18,-1
 461 615 l 1,19,-1
 480 567 l 1,20,21
 559 380 559 380 624 207.5 c 128,-1,22
 689 35 689 35 689 10 c 0,8,9
265 -4 m 2,23,24
 63 -4 63 -4 63 4.5 c 128,-1,25
 63 13 63 13 164 277 c 128,-1,26
 265 541 265 541 271 562 c 128,-1,27
 277 583 277 583 287 583 c 2,28,-1
 288 583 l 1,29,30
 294 578 294 578 324 493 c 2,31,-1
 352 407 l 1,32,-1
 303 272 l 2,33,34
 255 141 255 141 255 126 c 128,-1,35
 255 111 255 111 272 107.5 c 128,-1,36
 289 104 289 104 354.5 104 c 128,-1,37
 420 104 420 104 434.5 94.5 c 128,-1,38
 449 85 449 85 465 22 c 2,39,-1
 471 -4 l 1,40,-1
 265 -4 l 2,23,24
EndSplineSet
Validated: 33
EndChar

StartChar: Aring
Encoding: 197 197 199
Width: 752
GlyphClass: 2
Flags: W
LayerCount: 2
Fore
SplineSet
375 660 m 1,0,-1
 375 677 l 1,1,2
 403 677 403 677 425 698 c 128,-1,3
 447 719 447 719 447 749.5 c 128,-1,4
 447 780 447 780 426.5 801.5 c 128,-1,5
 406 823 406 823 378 824 c 1,6,-1
 378 837 l 1,7,8
 413 836 413 836 437 810.5 c 128,-1,9
 461 785 461 785 461 747 c 128,-1,10
 461 709 461 709 437.5 684.5 c 128,-1,11
 414 660 414 660 378 660 c 2,12,-1
 375 660 l 1,0,-1
367 660 m 1,13,14
 337 663 337 663 314 687 c 128,-1,15
 291 711 291 711 291 748 c 128,-1,16
 291 785 291 785 314 810 c 128,-1,17
 337 835 337 835 370 837 c 1,18,-1
 371 824 l 1,19,20
 343 823 343 823 323 801.5 c 128,-1,21
 303 780 303 780 303 750 c 128,-1,22
 303 720 303 720 322.5 699 c 128,-1,23
 342 678 342 678 368 677 c 1,24,-1
 367 660 l 1,13,14
377 716 m 1,25,-1
 378 780 l 1,26,27
 387 780 387 780 395.5 771.5 c 128,-1,28
 404 763 404 763 404 748.5 c 128,-1,29
 404 734 404 734 395.5 725.5 c 128,-1,30
 387 717 387 717 377 716 c 1,25,-1
368 718 m 1,31,32
 342 721 342 721 342 747 c 0,33,34
 342 763 342 763 351 771.5 c 128,-1,35
 360 780 360 780 368 782 c 1,36,-1
 368 718 l 1,31,32
689 18 m 0,37,38
 689 5 689 5 656 5 c 128,-1,39
 623 5 623 5 610 6 c 2,40,-1
 543 10 l 1,41,-1
 507 106 l 2,42,43
 318 612 318 612 319 624 c 0,44,45
 319 627 319 627 347.5 627 c 128,-1,46
 376 627 376 627 389 626 c 2,47,-1
 461 624 l 1,48,-1
 480 575 l 1,49,50
 559 388 559 388 624 215.5 c 128,-1,51
 689 43 689 43 689 18 c 0,37,38
265 5 m 2,52,53
 63 5 63 5 63 13 c 128,-1,54
 63 21 63 21 164 285 c 128,-1,55
 265 549 265 549 271 570 c 128,-1,56
 277 591 277 591 287 591 c 2,57,-1
 288 591 l 1,58,59
 294 585 294 585 324 501 c 2,60,-1
 352 415 l 1,61,-1
 303 281 l 2,62,63
 255 150 255 150 255 135 c 128,-1,64
 255 120 255 120 272 116 c 128,-1,65
 289 112 289 112 354.5 112 c 128,-1,66
 420 112 420 112 434.5 102 c 128,-1,67
 449 92 449 92 465 31 c 2,68,-1
 471 5 l 1,69,-1
 265 5 l 2,52,53
EndSplineSet
Validated: 33
EndChar

StartChar: AE
Encoding: 198 198 200
Width: 874
GlyphClass: 2
Flags: W
LayerCount: 2
Fore
SplineSet
722 -35 m 1,0,-1
 678 95 l 1,1,-1
 812 95 l 1,2,-1
 812 -35 l 1,3,-1
 722 -35 l 1,0,-1
634 223 m 1,4,-1
 591 352 l 1,5,-1
 801 352 l 1,6,-1
 801 223 l 1,7,-1
 634 223 l 1,4,-1
550 471 m 1,8,-1
 510 589 l 1,9,-1
 801 589 l 1,10,-1
 801 471 l 1,11,-1
 550 471 l 1,8,-1
689 -15 m 0,12,13
 689 -29 689 -29 656.5 -29.5 c 128,-1,14
 624 -30 624 -30 610 -28 c 2,15,-1
 543 -25 l 1,16,-1
 508 72 l 1,17,18
 319 578 319 578 320 589 c 0,19,20
 320 593 320 593 348.5 593 c 128,-1,21
 377 593 377 593 390 592 c 2,22,-1
 462 589 l 1,23,-1
 481 542 l 2,24,25
 560 355 560 355 624.5 182.5 c 128,-1,26
 689 10 689 10 689 -15 c 0,12,13
265 -30 m 2,27,28
 63 -30 63 -30 63 -21.5 c 128,-1,29
 63 -13 63 -13 164 251 c 128,-1,30
 265 515 265 515 271 536.5 c 128,-1,31
 277 558 277 558 287 558 c 2,32,-1
 289 558 l 1,33,34
 295 552 295 552 325 467 c 2,35,-1
 353 382 l 1,36,-1
 303 246 l 2,37,38
 255 116 255 116 255 100.5 c 128,-1,39
 255 85 255 85 272.5 82 c 128,-1,40
 290 79 290 79 355.5 79 c 128,-1,41
 421 79 421 79 435 69 c 128,-1,42
 449 59 449 59 466 -3 c 2,43,-1
 472 -30 l 1,44,-1
 265 -30 l 2,27,28
EndSplineSet
Validated: 33
EndChar

StartChar: Ccedilla
Encoding: 199 199 201
Width: 649
GlyphClass: 2
Flags: W
LayerCount: 2
Fore
SplineSet
435 102 m 2,0,1
 481 110 481 110 503.5 126.5 c 128,-1,2
 526 143 526 143 531 143 c 0,3,4
 544 143 544 143 566 95 c 128,-1,5
 588 47 588 47 588 38 c 0,6,7
 588 22 588 22 537.5 1.5 c 128,-1,8
 487 -19 487 -19 440 -25 c 2,9,-1
 383 -33 l 1,10,-1
 385 31 l 1,11,-1
 389 95 l 1,12,-1
 435 102 l 2,0,1
384 499 m 1,13,-1
 384 619 l 1,14,-1
 446 614 l 2,15,16
 490 610 490 610 539 592 c 128,-1,17
 588 574 588 574 588 559 c 0,18,19
 588 548 588 548 564 501.5 c 128,-1,20
 540 455 540 455 528 455 c 0,21,22
 521 455 521 455 489 470.5 c 128,-1,23
 457 486 457 486 425 492 c 2,24,-1
 384 499 l 1,13,-1
243 594 m 0,25,26
 291 616 291 616 317 616 c 128,-1,27
 343 616 343 616 346.5 607.5 c 128,-1,28
 350 599 350 599 350 556.5 c 128,-1,29
 350 514 350 514 345 503.5 c 128,-1,30
 340 493 340 493 314 479 c 0,31,32
 209 423 209 423 209 296 c 128,-1,33
 209 169 209 169 314 108 c 0,34,35
 335 97 335 97 342.5 87.5 c 128,-1,36
 350 78 350 78 350 42 c 128,-1,37
 350 6 350 6 343 -10.5 c 128,-1,38
 336 -27 336 -27 318 -27 c 128,-1,39
 300 -27 300 -27 265 -13 c 0,40,41
 139 36 139 36 84 152 c 0,42,43
 61 202 61 202 61 272 c 0,44,45
 61 409 61 409 104.5 479.5 c 128,-1,46
 148 550 148 550 243 594 c 0,25,26
331 -51 m 1,47,-1
 381 -51 l 1,48,-1
 381 -101 l 1,49,-1
 383 -101 l 1,50,-1
 383 -140 l 1,51,-1
 271 -140 l 1,52,-1
 271 -101 l 1,53,-1
 331 -101 l 1,54,-1
 331 -51 l 1,47,-1
EndSplineSet
Validated: 1
EndChar

StartChar: Egrave
Encoding: 200 200 202
Width: 546
GlyphClass: 2
Flags: W
LayerCount: 2
Fore
SplineSet
269 727 m 1,0,-1
 317 602 l 1,1,-1
 246 586 l 1,2,-1
 210 701 l 1,3,-1
 269 727 l 1,0,-1
63 464 m 1,4,-1
 63 583 l 1,5,-1
 471 583 l 1,6,-1
 471 464 l 1,7,-1
 63 464 l 1,4,-1
63 217 m 1,8,-1
 63 345 l 1,9,-1
 471 345 l 1,10,-1
 471 217 l 1,11,-1
 63 217 l 1,8,-1
63 -42 m 1,12,-1
 63 88 l 1,13,-1
 483 88 l 1,14,-1
 483 -42 l 1,15,-1
 63 -42 l 1,12,-1
EndSplineSet
Validated: 1
EndChar

StartChar: Eacute
Encoding: 201 201 203
Width: 546
GlyphClass: 1
Flags: W
LayerCount: 2
Fore
SplineSet
246 758 m 1,0,-1
 313 732 l 1,1,-1
 274 596 l 1,2,-1
 192 612 l 1,3,-1
 246 758 l 1,0,-1
63 467 m 1,4,-1
 63 585 l 1,5,-1
 471 585 l 1,6,-1
 471 467 l 1,7,-1
 63 467 l 1,4,-1
63 219 m 1,8,-1
 63 348 l 1,9,-1
 471 348 l 1,10,-1
 471 219 l 1,11,-1
 63 219 l 1,8,-1
63 -41 m 1,12,-1
 63 90 l 1,13,-1
 483 90 l 1,14,-1
 483 -41 l 1,15,-1
 63 -41 l 1,12,-1
EndSplineSet
Validated: 1
EndChar

StartChar: Ecircumflex
Encoding: 202 202 204
Width: 546
GlyphClass: 2
Flags: W
LayerCount: 2
Fore
SplineSet
257 792 m 1,0,-1
 408 656 l 1,1,-1
 397 604 l 1,2,-1
 256 720 l 1,3,-1
 130 597 l 1,4,-1
 118 657 l 1,5,-1
 257 792 l 1,0,-1
63 470 m 1,6,-1
 63 588 l 1,7,-1
 471 588 l 1,8,-1
 471 470 l 1,9,-1
 63 470 l 1,6,-1
63 222 m 1,10,-1
 63 350 l 1,11,-1
 471 350 l 1,12,-1
 471 222 l 1,13,-1
 63 222 l 1,10,-1
63 -37 m 1,14,-1
 63 94 l 1,15,-1
 483 94 l 1,16,-1
 483 -37 l 1,17,-1
 63 -37 l 1,14,-1
EndSplineSet
Validated: 1
EndChar

StartChar: Edieresis
Encoding: 203 203 205
Width: 546
GlyphClass: 2
Flags: W
LayerCount: 2
Fore
SplineSet
63 -31 m 1,0,-1
 63 99 l 1,1,-1
 483 99 l 1,2,-1
 483 -31 l 1,3,-1
 63 -31 l 1,0,-1
63 228 m 1,4,-1
 63 357 l 1,5,-1
 471 357 l 1,6,-1
 471 228 l 1,7,-1
 63 228 l 1,4,-1
63 475 m 1,8,-1
 63 594 l 1,9,-1
 471 594 l 1,10,-1
 471 475 l 1,11,-1
 63 475 l 1,8,-1
209 692 m 1,12,-1
 248 692 l 1,13,-1
 248 645 l 1,14,-1
 209 645 l 1,15,-1
 209 692 l 1,12,-1
298 690 m 1,16,-1
 335 690 l 1,17,-1
 335 646 l 1,18,-1
 298 646 l 1,19,-1
 298 690 l 1,16,-1
EndSplineSet
Validated: 1
EndChar

StartChar: Igrave
Encoding: 204 204 206
Width: 430
GlyphClass: 2
Flags: W
LayerCount: 2
Fore
SplineSet
228 770 m 1,0,-1
 276 629 l 1,1,-1
 204 613 l 1,2,-1
 169 744 l 1,3,-1
 228 770 l 1,0,-1
298 493 m 1,4,-1
 293 65 l 1,5,-1
 330 65 l 2,6,7
 357 65 357 65 362 59.5 c 128,-1,8
 367 54 367 54 367 25 c 2,9,-1
 367 15 l 1,10,-1
 367 -32 l 1,11,-1
 63 -32 l 1,12,-1
 68 13 l 2,13,14
 71 45 71 45 76 53 c 128,-1,15
 81 61 81 61 102 65 c 2,16,-1
 135 70 l 1,17,-1
 140 278 l 1,18,-1
 140 486 l 1,19,-1
 102 493 l 2,20,21
 74 499 74 499 70 506 c 128,-1,22
 66 513 66 513 66 548 c 2,23,-1
 66 598 l 1,24,-1
 367 598 l 1,25,-1
 367 549 l 2,26,27
 367 514 367 514 362 507 c 128,-1,28
 357 500 357 500 332 497 c 2,29,-1
 298 493 l 1,4,-1
EndSplineSet
Validated: 1
EndChar

StartChar: Iacute
Encoding: 205 205 207
Width: 430
GlyphClass: 1
Flags: W
LayerCount: 2
Fore
SplineSet
226 757 m 1,0,-1
 293 731 l 1,1,-1
 253 595 l 1,2,-1
 172 611 l 1,3,-1
 226 757 l 1,0,-1
297 482 m 1,4,-1
 292 54 l 1,5,-1
 330 54 l 2,6,7
 357 54 357 54 362 48 c 128,-1,8
 367 42 367 42 367 13 c 2,9,-1
 367 4 l 1,10,-1
 367 -44 l 1,11,-1
 63 -44 l 1,12,-1
 66 2 l 2,13,14
 69 34 69 34 75 42 c 128,-1,15
 81 50 81 50 102 54 c 2,16,-1
 135 59 l 1,17,-1
 138 267 l 1,18,-1
 140 475 l 1,19,-1
 102 482 l 2,20,21
 74 488 74 488 69 495 c 128,-1,22
 64 502 64 502 64 536 c 2,23,-1
 64 586 l 1,24,-1
 367 586 l 1,25,-1
 367 538 l 2,26,27
 367 503 367 503 362 495.5 c 128,-1,28
 357 488 357 488 332 486 c 2,29,-1
 297 482 l 1,4,-1
EndSplineSet
Validated: 1
EndChar

StartChar: Icircumflex
Encoding: 206 206 208
Width: 430
GlyphClass: 2
Flags: W
LayerCount: 2
Fore
SplineSet
298 493 m 1,0,-1
 293 66 l 1,1,-1
 330 66 l 2,2,3
 357 66 357 66 362 60.5 c 128,-1,4
 367 55 367 55 367 25 c 2,5,-1
 367 16 l 1,6,-1
 367 -32 l 1,7,-1
 63 -32 l 1,8,-1
 68 14 l 2,9,10
 71 46 71 46 76 54 c 128,-1,11
 81 62 81 62 102 66 c 2,12,-1
 135 71 l 1,13,-1
 140 278 l 1,14,-1
 140 487 l 1,15,-1
 102 493 l 2,16,17
 74 499 74 499 70 506 c 128,-1,18
 66 513 66 513 66 548 c 2,19,-1
 66 598 l 1,20,-1
 367 598 l 1,21,-1
 367 549 l 2,22,23
 367 514 367 514 362 507 c 128,-1,24
 357 500 357 500 332 498 c 2,25,-1
 298 493 l 1,0,-1
215 772 m 1,26,-1
 359 659 l 1,27,-1
 347 615 l 1,28,-1
 214 712 l 1,29,-1
 94 609 l 1,30,-1
 83 659 l 1,31,-1
 215 772 l 1,26,-1
EndSplineSet
Validated: 1
EndChar

StartChar: Idieresis
Encoding: 207 207 209
Width: 430
GlyphClass: 2
Flags: W
LayerCount: 2
Fore
SplineSet
298 499 m 1,0,-1
 293 71 l 1,1,-1
 330 71 l 2,2,3
 357 71 357 71 362 65 c 128,-1,4
 367 59 367 59 367 30 c 2,5,-1
 367 21 l 1,6,-1
 367 -28 l 1,7,-1
 63 -28 l 1,8,-1
 68 18 l 2,9,10
 71 51 71 51 76 59 c 128,-1,11
 81 67 81 67 102 71 c 2,12,-1
 135 76 l 1,13,-1
 140 283 l 1,14,-1
 140 491 l 1,15,-1
 102 499 l 2,16,17
 74 504 74 504 70 511.5 c 128,-1,18
 66 519 66 519 66 553 c 2,19,-1
 66 603 l 1,20,-1
 367 603 l 1,21,-1
 367 555 l 2,22,23
 367 519 367 519 362 512 c 128,-1,24
 357 505 357 505 332 503 c 2,25,-1
 298 499 l 1,0,-1
155 690 m 1,26,-1
 194 690 l 1,27,-1
 196 642 l 1,28,-1
 156 642 l 1,29,-1
 155 690 l 1,26,-1
244 688 m 1,30,-1
 281 688 l 1,31,-1
 282 644 l 1,32,-1
 245 644 l 1,33,-1
 244 688 l 1,30,-1
EndSplineSet
Validated: 1
EndChar

StartChar: Eth
Encoding: 208 208 210
Width: 763
GlyphClass: 2
Flags: W
LayerCount: 2
Fore
SplineSet
285 194 m 1,0,-1
 285 161 l 1,1,-1
 283 -93 l 1,2,-1
 143 -93 l 1,3,-1
 143 194 l 1,4,-1
 61 194 l 1,5,-1
 61 290 l 1,6,-1
 143 290 l 1,7,-1
 143 534 l 1,8,-1
 288 526 l 1,9,-1
 288 470 l 1,10,-1
 286 290 l 1,11,-1
 425 290 l 1,12,-1
 425 194 l 1,13,-1
 285 194 l 1,0,-1
326 414 m 1,14,-1
 326 536 l 1,15,-1
 405 530 l 2,16,17
 546 520 546 520 624 440 c 128,-1,18
 702 360 702 360 702 224 c 0,19,20
 702 50 702 50 582 -29 c 0,21,22
 538 -57 538 -57 476 -75 c 128,-1,23
 414 -93 414 -93 367 -93 c 2,24,-1
 326 -93 l 1,25,-1
 326 24 l 1,26,-1
 383 32 l 2,27,28
 470 44 470 44 507.5 88.5 c 128,-1,29
 545 133 545 133 545.5 220.5 c 128,-1,30
 546 308 546 308 511 353 c 0,31,32
 467 414 467 414 378 414 c 2,33,-1
 326 414 l 1,14,-1
EndSplineSet
Validated: 33
EndChar

StartChar: Ntilde
Encoding: 209 209 211
Width: 623
GlyphClass: 1
Flags: W
LayerCount: 2
Fore
SplineSet
115 623 m 1,0,-1
 115 715 l 1,1,-1
 506 715 l 1,2,-1
 506 623 l 1,3,-1
 115 623 l 1,0,-1
358 47 m 2,4,5
 299 139 299 139 186 323.5 c 128,-1,6
 73 508 73 508 73 513.5 c 128,-1,7
 73 519 73 519 140 519 c 2,8,-1
 206 519 l 1,9,-1
 236 476 l 2,10,11
 282 404 282 404 325 330 c 128,-1,12
 368 256 368 256 536 2 c 1,13,-1
 560 -37 l 1,14,-1
 414 -37 l 1,15,-1
 358 47 l 2,4,5
434 519 m 1,16,-1
 558 519 l 1,17,-1
 558 281 l 2,18,19
 558 45 558 45 550 45 c 0,20,21
 547 45 547 45 514 95.5 c 128,-1,22
 481 146 481 146 476.5 152 c 128,-1,23
 472 158 472 158 456 184 c 128,-1,24
 440 210 440 210 438.5 223 c 128,-1,25
 437 236 437 236 435.5 249 c 128,-1,26
 434 262 434 262 434 273 c 2,27,-1
 434 519 l 1,16,-1
63 196 m 2,28,29
 63 437 63 437 73 437 c 0,30,31
 79 437 79 437 138 337 c 2,32,-1
 196 237 l 1,33,-1
 196 -47 l 1,34,-1
 63 -47 l 1,35,-1
 63 196 l 2,28,29
EndSplineSet
Validated: 1
EndChar

StartChar: Ograve
Encoding: 210 210 212
Width: 760
GlyphClass: 2
Flags: W
LayerCount: 2
Fore
SplineSet
368 771 m 1,0,-1
 415 629 l 1,1,-1
 343 613 l 1,2,-1
 309 744 l 1,3,-1
 368 771 l 1,0,-1
61 273 m 1,4,-1
 63 298 l 1,5,6
 73 513 73 513 283 585 c 0,7,8
 316 598 316 598 333 598 c 128,-1,9
 350 598 350 598 355 585 c 128,-1,10
 360 572 360 572 362 539 c 2,11,-1
 365 482 l 1,12,-1
 317 462 l 1,13,14
 237 423 237 423 223 362 c 0,15,16
 217 336 217 336 217 279 c 128,-1,17
 217 222 217 222 222 199 c 128,-1,18
 227 176 227 176 244 151 c 0,19,20
 294 80 294 80 388 80 c 128,-1,21
 482 80 482 80 524 166 c 0,22,23
 547 215 547 215 547 280 c 128,-1,24
 547 345 547 345 512.5 403 c 128,-1,25
 478 461 478 461 432 470 c 0,26,27
 409 475 409 475 402.5 488.5 c 128,-1,28
 396 502 396 502 396 523 c 2,29,-1
 396 556 l 2,30,31
 396 588 396 588 401 594.5 c 128,-1,32
 406 601 406 601 421 601 c 128,-1,33
 436 601 436 601 467 593 c 0,34,35
 552 567 552 567 607 512 c 128,-1,36
 662 457 662 457 681 401.5 c 128,-1,37
 700 346 700 346 700 264.5 c 128,-1,38
 700 183 700 183 657 106 c 0,39,40
 577 -42 577 -42 380 -43 c 2,41,-1
 362 -43 l 2,42,43
 291 -43 291 -43 225 -11 c 0,44,45
 61 65 61 65 61 273 c 1,4,-1
436 327 m 128,-1,47
 460 303 460 303 460 273 c 128,-1,48
 460 243 460 243 438.5 221 c 128,-1,49
 417 199 417 199 381 199 c 128,-1,50
 345 199 345 199 323.5 225.5 c 128,-1,51
 302 252 302 252 302 279 c 128,-1,52
 302 306 302 306 328.5 328.5 c 128,-1,53
 355 351 355 351 383.5 351 c 128,-1,46
 412 351 412 351 436 327 c 128,-1,47
EndSplineSet
Validated: 1
EndChar

StartChar: Oacute
Encoding: 211 211 213
Width: 760
GlyphClass: 1
Flags: W
LayerCount: 2
Fore
SplineSet
61 252 m 1,0,-1
 63 277 l 1,1,2
 73 492 73 492 283 566 c 0,3,4
 313 576 313 576 331.5 576 c 128,-1,5
 350 576 350 576 355 564 c 128,-1,6
 360 552 360 552 362 519 c 2,7,-1
 365 461 l 1,8,-1
 317 442 l 1,9,10
 237 403 237 403 223 341 c 0,11,12
 217 315 217 315 217 258.5 c 128,-1,13
 217 202 217 202 222 179 c 128,-1,14
 227 156 227 156 244 131 c 0,15,16
 294 59 294 59 388 59 c 128,-1,17
 482 59 482 59 524 146 c 0,18,19
 547 194 547 194 547 259 c 128,-1,20
 547 324 547 324 512.5 382 c 128,-1,21
 478 440 478 440 432 450 c 0,22,23
 409 456 409 456 402.5 470 c 128,-1,24
 396 484 396 484 396 524 c 128,-1,25
 396 564 396 564 401 572.5 c 128,-1,26
 406 581 406 581 421 581 c 128,-1,27
 436 581 436 581 467 571 c 0,28,29
 552 546 552 546 607 491.5 c 128,-1,30
 662 437 662 437 681 381 c 128,-1,31
 700 325 700 325 700 243.5 c 128,-1,32
 700 162 700 162 657 85 c 0,33,34
 577 -63 577 -63 380 -63 c 2,35,-1
 362 -63 l 2,36,37
 291 -63 291 -63 225 -32 c 0,38,39
 61 44 61 44 61 252 c 1,0,-1
436 306 m 128,-1,41
 460 282 460 282 460 252.5 c 128,-1,42
 460 223 460 223 438.5 200.5 c 128,-1,43
 417 178 417 178 381 178 c 128,-1,44
 345 178 345 178 323.5 204.5 c 128,-1,45
 302 231 302 231 302 257.5 c 128,-1,46
 302 284 302 284 328.5 307 c 128,-1,47
 355 330 355 330 383.5 330 c 128,-1,40
 412 330 412 330 436 306 c 128,-1,41
384 767 m 1,48,-1
 451 741 l 1,49,-1
 411 605 l 1,50,-1
 330 621 l 1,51,-1
 384 767 l 1,48,-1
EndSplineSet
Validated: 1
EndChar

StartChar: Ocircumflex
Encoding: 212 212 214
Width: 760
GlyphClass: 2
Flags: W
LayerCount: 2
Fore
SplineSet
370 776 m 1,0,-1
 521 641 l 1,1,-1
 511 590 l 1,2,-1
 370 705 l 1,3,-1
 243 582 l 1,4,-1
 232 643 l 1,5,-1
 370 776 l 1,0,-1
61 273 m 1,6,-1
 63 298 l 1,7,8
 73 513 73 513 283 585 c 0,9,10
 316 597 316 597 333 597 c 128,-1,11
 350 597 350 597 355 584.5 c 128,-1,12
 360 572 360 572 362 539 c 2,13,-1
 365 482 l 1,14,-1
 317 462 l 1,15,16
 237 423 237 423 223 362 c 0,17,18
 217 336 217 336 217 279 c 128,-1,19
 217 222 217 222 222 199 c 128,-1,20
 227 176 227 176 244 152 c 0,21,22
 294 80 294 80 388 79.5 c 128,-1,23
 482 79 482 79 524 166 c 0,24,25
 547 214 547 214 547 279 c 128,-1,26
 547 344 547 344 512.5 402.5 c 128,-1,27
 478 461 478 461 432 470 c 0,28,29
 409 475 409 475 402.5 488.5 c 128,-1,30
 396 502 396 502 396 523 c 2,31,-1
 396 555 l 2,32,33
 396 588 396 588 401 594.5 c 128,-1,34
 406 601 406 601 421 601 c 128,-1,35
 436 601 436 601 467 592 c 0,36,37
 552 567 552 567 607 512 c 128,-1,38
 662 457 662 457 681 401.5 c 128,-1,39
 700 346 700 346 700 264.5 c 128,-1,40
 700 183 700 183 657 106 c 0,41,42
 577 -42 577 -42 380 -42 c 2,43,-1
 362 -42 l 2,44,45
 291 -42 291 -42 225 -12 c 0,46,47
 61 65 61 65 61 273 c 1,6,-1
436 326.5 m 128,-1,49
 460 303 460 303 460 273 c 128,-1,50
 460 243 460 243 438.5 221 c 128,-1,51
 417 199 417 199 381 199 c 128,-1,52
 345 199 345 199 323.5 225.5 c 128,-1,53
 302 252 302 252 302 278.5 c 128,-1,54
 302 305 302 305 328.5 327.5 c 128,-1,55
 355 350 355 350 383.5 350 c 128,-1,48
 412 350 412 350 436 326.5 c 128,-1,49
EndSplineSet
Validated: 33
EndChar

StartChar: Otilde
Encoding: 213 213 215
Width: 760
GlyphClass: 2
Flags: W
LayerCount: 2
Fore
SplineSet
363 747 m 1,0,-1
 396 692 l 1,1,-1
 529 717 l 1,2,-1
 529 649 l 1,3,-1
 396 628 l 1,4,-1
 363 682 l 1,5,-1
 240 649 l 1,6,-1
 240 717 l 1,7,-1
 360 746 l 1,8,-1
 363 747 l 1,0,-1
61 275 m 1,9,-1
 63 299 l 1,10,11
 73 514 73 514 283 587 c 0,12,13
 316 599 316 599 333 599 c 128,-1,14
 350 599 350 599 355 586.5 c 128,-1,15
 360 574 360 574 362 541 c 2,16,-1
 365 484 l 1,17,-1
 317 464 l 1,18,19
 237 425 237 425 223 364 c 0,20,21
 217 338 217 338 217 281 c 128,-1,22
 217 224 217 224 222 201 c 128,-1,23
 227 178 227 178 244 153 c 0,24,25
 294 81 294 81 388 81 c 128,-1,26
 482 81 482 81 524 168 c 0,27,28
 547 216 547 216 547 281 c 128,-1,29
 547 346 547 346 512.5 404 c 128,-1,30
 478 462 478 462 432 471 c 0,31,32
 409 476 409 476 402.5 489.5 c 128,-1,33
 396 503 396 503 396 525 c 2,34,-1
 396 557 l 2,35,36
 396 590 396 590 401 596 c 128,-1,37
 406 602 406 602 421 602 c 128,-1,38
 436 602 436 602 467 594 c 0,39,40
 552 569 552 569 607 514 c 128,-1,41
 662 459 662 459 681 403 c 128,-1,42
 700 347 700 347 700 265.5 c 128,-1,43
 700 184 700 184 657 107 c 0,44,45
 577 -41 577 -41 380 -41 c 2,46,-1
 362 -41 l 2,47,48
 291 -41 291 -41 225 -11 c 0,49,50
 61 67 61 67 61 275 c 1,9,-1
436 328 m 128,-1,52
 460 304 460 304 460 274.5 c 128,-1,53
 460 245 460 245 438.5 222.5 c 128,-1,54
 417 200 417 200 381 200 c 128,-1,55
 345 200 345 200 323.5 227 c 128,-1,56
 302 254 302 254 302 280 c 128,-1,57
 302 306 302 306 328.5 329 c 128,-1,58
 355 352 355 352 383.5 352 c 128,-1,51
 412 352 412 352 436 328 c 128,-1,52
EndSplineSet
Validated: 1
EndChar

StartChar: Odieresis
Encoding: 214 214 216
Width: 760
GlyphClass: 2
Flags: W
LayerCount: 2
Fore
SplineSet
398 689 m 1,0,-1
 435 689 l 1,1,-1
 435 645 l 1,2,-1
 398 645 l 1,3,-1
 398 689 l 1,0,-1
309 690 m 1,4,-1
 348 690 l 1,5,-1
 348 643 l 1,6,-1
 309 643 l 1,7,-1
 309 690 l 1,4,-1
61 278 m 1,8,-1
 63 303 l 1,9,10
 73 518 73 518 283 590 c 0,11,12
 316 602 316 602 333 602 c 128,-1,13
 350 602 350 602 355 589.5 c 128,-1,14
 360 577 360 577 362 544 c 2,15,-1
 365 487 l 1,16,-1
 317 467 l 1,17,18
 237 428 237 428 223 367 c 0,19,20
 217 341 217 341 217 284 c 128,-1,21
 217 227 217 227 222 204.5 c 128,-1,22
 227 182 227 182 244 157 c 0,23,24
 294 85 294 85 388 85 c 128,-1,25
 482 85 482 85 524 172 c 0,26,27
 547 220 547 220 547 284.5 c 128,-1,28
 547 349 547 349 512.5 407.5 c 128,-1,29
 478 466 478 466 432 474 c 0,30,31
 409 479 409 479 402.5 493 c 128,-1,32
 396 507 396 507 396 528 c 2,33,-1
 396 560 l 2,34,35
 396 593 396 593 401 599.5 c 128,-1,36
 406 606 406 606 421 606 c 128,-1,37
 436 606 436 606 467 597 c 0,38,39
 552 572 552 572 607 517 c 128,-1,40
 662 462 662 462 681 406.5 c 128,-1,41
 700 351 700 351 700 269.5 c 128,-1,42
 700 188 700 188 657 111 c 0,43,44
 577 -38 577 -38 380 -38 c 2,45,-1
 362 -38 l 2,46,47
 291 -38 291 -38 225 -7 c 0,48,49
 61 70 61 70 61 278 c 1,8,-1
436 332 m 128,-1,51
 460 308 460 308 460 278 c 128,-1,52
 460 248 460 248 438.5 225.5 c 128,-1,53
 417 203 417 203 381 203 c 128,-1,54
 345 203 345 203 323.5 230 c 128,-1,55
 302 257 302 257 302 283.5 c 128,-1,56
 302 310 302 310 328.5 333 c 128,-1,57
 355 356 355 356 383.5 356 c 128,-1,50
 412 356 412 356 436 332 c 128,-1,51
EndSplineSet
Validated: 1
EndChar

StartChar: multiply
Encoding: 215 215 217
Width: 561
GlyphClass: 2
Flags: W
LayerCount: 2
Fore
SplineSet
225 397 m 1,0,1
 71 559 71 559 70 565 c 128,-1,2
 69 571 69 571 101 571 c 2,3,-1
 129 571 l 1,4,-1
 192 569 l 1,5,-1
 344 409 l 2,6,7
 497 248 497 248 497 242.5 c 128,-1,8
 497 237 497 237 435 237 c 2,9,-1
 371 237 l 1,10,-1
 225 397 l 1,0,1
342 534 m 2,11,-1
 378 573 l 1,12,-1
 499 573 l 1,13,-1
 482 554 l 2,14,15
 476 549 476 549 412 478 c 2,16,-1
 360 424 l 1,17,-1
 333 453 l 2,18,19
 306 481 306 481 306 487.5 c 128,-1,20
 306 494 306 494 342 534 c 2,11,-1
126 318 m 128,-1,22
 190 384 190 384 197.5 384 c 128,-1,23
 205 384 205 384 231 356 c 2,24,-1
 259 327 l 1,25,-1
 181 240 l 1,26,-1
 120 238 l 2,27,28
 100 236 100 236 81 236.5 c 128,-1,29
 62 237 62 237 62 243 c 0,30,21
 62 252 62 252 126 318 c 128,-1,22
EndSplineSet
Validated: 33
EndChar

StartChar: Oslash
Encoding: 216 216 218
Width: 760
GlyphClass: 2
Flags: W
LayerCount: 2
Fore
SplineSet
61 283 m 1,0,-1
 63 308 l 1,1,2
 73 523 73 523 283 595 c 0,3,4
 316 607 316 607 333 607 c 128,-1,5
 350 607 350 607 355 594.5 c 128,-1,6
 360 582 360 582 362 549 c 2,7,-1
 365 492 l 1,8,-1
 317 472 l 1,9,10
 237 433 237 433 223 372 c 0,11,12
 217 346 217 346 217 289.5 c 128,-1,13
 217 233 217 233 222.5 206.5 c 128,-1,14
 228 180 228 180 254 148 c 1,15,-1
 317 243 l 1,16,17
 301 266 301 266 301 290 c 128,-1,18
 301 314 301 314 328 337.5 c 128,-1,19
 355 361 355 361 383 361 c 0,20,21
 389 361 389 361 395 359 c 1,22,-1
 465 466 l 1,23,24
 450 474 450 474 429.5 479 c 128,-1,25
 409 484 409 484 402.5 498 c 128,-1,26
 396 512 396 512 396 533 c 2,27,-1
 396 565 l 2,28,29
 396 598 396 598 401 604.5 c 128,-1,30
 406 611 406 611 421 611 c 128,-1,31
 436 611 436 611 470 601 c 128,-1,32
 504 591 504 591 536 574 c 1,33,-1
 592 658 l 1,34,-1
 652 617 l 1,35,-1
 597 532 l 1,36,37
 661 478 661 478 680.5 417 c 128,-1,38
 700 356 700 356 700 274.5 c 128,-1,39
 700 193 700 193 657 116 c 0,40,41
 577 -33 577 -33 380 -33 c 2,42,-1
 362 -33 l 2,43,44
 299 -33 299 -33 239 -8 c 1,45,-1
 187 -86 l 1,46,-1
 127 -45 l 1,47,-1
 175 28 l 1,48,49
 61 109 61 109 61 283 c 1,0,-1
312 103 m 1,50,51
 343 90 343 90 383 90 c 0,52,53
 482 90 482 90 524 177 c 0,54,55
 547 225 547 225 547 289.5 c 128,-1,56
 547 354 547 354 516 409 c 1,57,-1
 452 314 l 1,58,59
 460 299 460 299 460 276 c 128,-1,60
 460 253 460 253 438.5 230.5 c 128,-1,61
 417 208 417 208 383 208 c 1,62,-1
 312 103 l 1,50,51
EndSplineSet
Validated: 1
EndChar

StartChar: Ugrave
Encoding: 217 217 219
Width: 654
GlyphClass: 2
Flags: W
LayerCount: 2
Fore
SplineSet
330 728 m 1,0,-1
 376 587 l 1,1,-1
 305 570 l 1,2,-1
 270 702 l 1,3,-1
 330 728 l 1,0,-1
61 401 m 2,4,-1
 61 608 l 1,5,-1
 135 605 l 1,6,-1
 207 601 l 1,7,-1
 213 384 l 2,8,9
 215 259 215 259 220 210 c 128,-1,10
 225 161 225 161 236.5 139.5 c 128,-1,11
 248 118 248 118 274.5 106.5 c 128,-1,12
 301 95 301 95 306 84 c 128,-1,13
 311 73 311 73 311 32.5 c 128,-1,14
 311 -8 311 -8 308 -20.5 c 128,-1,15
 305 -33 305 -33 292.5 -33 c 128,-1,16
 280 -33 280 -33 254 -25 c 0,17,18
 174 -2 174 -2 130.5 45 c 128,-1,19
 87 92 87 92 74 145 c 128,-1,20
 61 198 61 198 61 401 c 2,4,-1
452 394 m 2,21,-1
 452 608 l 1,22,-1
 593 608 l 1,23,-1
 593 378 l 2,24,25
 593 183 593 183 580.5 126.5 c 128,-1,26
 568 70 568 70 511 23 c 0,27,28
 486 2 486 2 463 -8 c 128,-1,29
 440 -18 440 -18 395 -28 c 2,30,-1
 355 -35 l 1,31,-1
 355 28 l 2,32,33
 355 73 355 73 360 85 c 128,-1,34
 365 97 365 97 390 107.5 c 128,-1,35
 415 118 415 118 425 128 c 0,36,37
 448 152 448 152 450 261 c 0,38,39
 452 297 452 297 452 394 c 2,21,-1
EndSplineSet
Validated: 1
EndChar

StartChar: Uacute
Encoding: 218 218 220
Width: 654
GlyphClass: 1
Flags: W
LayerCount: 2
Fore
SplineSet
334 750 m 1,0,-1
 400 724 l 1,1,-1
 360 588 l 1,2,-1
 279 604 l 1,3,-1
 334 750 l 1,0,-1
61 391 m 2,4,-1
 61 598 l 1,5,-1
 135 596 l 1,6,-1
 207 592 l 1,7,-1
 213 376 l 2,8,9
 215 250 215 250 220 200.5 c 128,-1,10
 225 151 225 151 236.5 130 c 128,-1,11
 248 109 248 109 274.5 97.5 c 128,-1,12
 301 86 301 86 306 75 c 128,-1,13
 311 64 311 64 311 23 c 128,-1,14
 311 -18 311 -18 308 -29.5 c 128,-1,15
 305 -41 305 -41 292.5 -41 c 128,-1,16
 280 -41 280 -41 254 -34 c 0,17,18
 174 -11 174 -11 130.5 35.5 c 128,-1,19
 87 82 87 82 74 135.5 c 128,-1,20
 61 189 61 189 61 391 c 2,4,-1
452 384 m 2,21,-1
 452 598 l 1,22,-1
 593 598 l 1,23,-1
 593 368 l 2,24,25
 593 174 593 174 580.5 117.5 c 128,-1,26
 568 61 568 61 511 14 c 0,27,28
 486 -6 486 -6 463 -17 c 128,-1,29
 440 -28 440 -28 395 -36 c 2,30,-1
 355 -44 l 2,31,32
 355 -45 355 -45 355 19 c 0,33,34
 355 63 355 63 360 75 c 128,-1,35
 365 87 365 87 390 98 c 128,-1,36
 415 109 415 109 425 119 c 0,37,38
 448 143 448 143 450 251 c 0,39,40
 452 287 452 287 452 384 c 2,21,-1
EndSplineSet
Validated: 33
EndChar

StartChar: Ucircumflex
Encoding: 219 219 221
Width: 654
GlyphClass: 2
Flags: W
LayerCount: 2
Fore
SplineSet
315 784 m 1,0,-1
 465 675 l 1,1,-1
 453 634 l 1,2,-1
 314 726 l 1,3,-1
 189 628 l 1,4,-1
 176 676 l 1,5,-1
 315 784 l 1,0,-1
61 402 m 2,6,-1
 61 609 l 1,7,-1
 135 606 l 1,8,-1
 207 602 l 1,9,-1
 213 386 l 2,10,11
 215 261 215 261 220 211 c 128,-1,12
 225 161 225 161 236.5 140.5 c 128,-1,13
 248 120 248 120 274.5 108 c 128,-1,14
 301 96 301 96 306 85 c 128,-1,15
 311 74 311 74 311 33 c 128,-1,16
 311 -8 311 -8 308 -20 c 128,-1,17
 305 -32 305 -32 292.5 -32 c 128,-1,18
 280 -32 280 -32 254 -24 c 0,19,20
 174 -1 174 -1 130.5 45.5 c 128,-1,21
 87 92 87 92 74 145.5 c 128,-1,22
 61 199 61 199 61 402 c 2,6,-1
452 394 m 2,23,-1
 452 609 l 1,24,-1
 593 609 l 1,25,-1
 593 378 l 2,26,27
 593 184 593 184 580.5 127.5 c 128,-1,28
 568 71 568 71 511 24 c 0,29,30
 486 3 486 3 463 -7.5 c 128,-1,31
 440 -18 440 -18 395 -27 c 2,32,-1
 355 -34 l 1,33,-1
 355 29 l 2,34,35
 355 73 355 73 360 85 c 128,-1,36
 365 97 365 97 390 108.5 c 128,-1,37
 415 120 415 120 425 129 c 0,38,39
 448 152 448 152 450 262 c 0,40,41
 452 297 452 297 452 394 c 2,23,-1
EndSplineSet
Validated: 1
EndChar

StartChar: Udieresis
Encoding: 220 220 222
Width: 654
GlyphClass: 1
Flags: W
LayerCount: 2
Fore
SplineSet
358 686 m 1,0,-1
 395 686 l 1,1,-1
 395 641 l 1,2,-1
 358 641 l 1,3,-1
 358 686 l 1,0,-1
269 686 m 1,4,-1
 309 686 l 1,5,-1
 309 638 l 1,6,-1
 269 638 l 1,7,-1
 269 686 l 1,4,-1
61 396 m 2,8,-1
 61 602 l 1,9,-1
 135 599 l 1,10,-1
 207 597 l 1,11,-1
 213 379 l 2,12,13
 215 254 215 254 220 204.5 c 128,-1,14
 225 155 225 155 236.5 134.5 c 128,-1,15
 248 114 248 114 274.5 101.5 c 128,-1,16
 301 89 301 89 306 78 c 128,-1,17
 311 67 311 67 311 26 c 128,-1,18
 311 -15 311 -15 308 -26 c 128,-1,19
 305 -37 305 -37 292.5 -37 c 128,-1,20
 280 -37 280 -37 254 -30 c 0,21,22
 174 -6 174 -6 130.5 40 c 128,-1,23
 87 86 87 86 74 139.5 c 128,-1,24
 61 193 61 193 61 396 c 2,8,-1
452 388 m 2,25,-1
 452 602 l 1,26,-1
 593 602 l 1,27,-1
 593 371 l 2,28,29
 593 177 593 177 580.5 120.5 c 128,-1,30
 568 64 568 64 511 17 c 0,31,32
 486 -4 486 -4 463 -14.5 c 128,-1,33
 440 -25 440 -25 395 -32 c 2,34,-1
 355 -40 l 1,35,-1
 355 22 l 2,36,37
 355 66 355 66 360 78.5 c 128,-1,38
 365 91 365 91 390 102.5 c 128,-1,39
 415 114 415 114 425 124 c 0,40,41
 448 146 448 146 450 255 c 0,42,43
 452 291 452 291 452 388 c 2,25,-1
EndSplineSet
Validated: 1
EndChar

StartChar: Yacute
Encoding: 221 221 223
Width: 704
GlyphClass: 2
Flags: W
LayerCount: 2
Fore
SplineSet
346 778 m 1,0,-1
 413 752 l 1,1,-1
 374 616 l 1,2,-1
 292 632 l 1,3,-1
 346 778 l 1,0,-1
115 598 m 2,4,-1
 144 598 l 1,5,-1
 218 594 l 1,6,7
 308 428 308 428 419 228 c 1,8,-1
 419 -36 l 1,9,-1
 279 -36 l 1,10,-1
 279 82 l 1,11,-1
 279 113 l 2,12,13
 279 189 279 189 262.5 229 c 128,-1,14
 246 269 246 269 153 424.5 c 128,-1,15
 60 580 60 580 60 590 c 0,16,17
 61 598 61 598 115 598 c 2,4,-1
424 479 m 2,18,19
 478 576 478 576 488.5 588 c 128,-1,20
 499 600 499 600 572 600 c 128,-1,21
 645 600 645 600 645 589 c 128,-1,22
 645 578 645 578 549.5 425.5 c 128,-1,23
 454 273 454 273 445 273 c 0,24,25
 443 273 443 273 430 290 c 128,-1,26
 417 307 417 307 404 329 c 2,27,-1
 374 384 l 1,28,-1
 424 479 l 2,18,19
EndSplineSet
Validated: 1
EndChar

StartChar: Thorn
Encoding: 222 222 224
Width: 753
GlyphClass: 2
Flags: W
LayerCount: 2
Fore
SplineSet
365 135 m 2,0,1
 429 143 429 143 464.5 174.5 c 128,-1,2
 500 206 500 206 500 248 c 128,-1,3
 500 290 500 290 485 323 c 128,-1,4
 470 356 470 356 445 368.5 c 128,-1,5
 420 381 420 381 366.5 384.5 c 128,-1,6
 313 388 313 388 302 401.5 c 128,-1,7
 291 415 291 415 291 462 c 128,-1,8
 291 509 291 509 295 520 c 0,9,10
 304 543 304 543 362 543 c 128,-1,11
 420 543 420 543 492 523 c 0,12,13
 631 486 631 486 671 391 c 0,14,15
 692 341 692 341 692 270 c 0,16,17
 692 135 692 135 616.5 62.5 c 128,-1,18
 541 -10 541 -10 395 -13 c 2,19,-1
 296 -16 l 1,20,-1
 296 129 l 1,21,-1
 365 135 l 2,0,1
257 678 m 1,22,-1
 264 -204 l 1,23,-1
 61 -204 l 1,24,-1
 61 689 l 1,25,-1
 257 678 l 1,22,-1
EndSplineSet
Validated: 1
EndChar

StartChar: germandbls
Encoding: 223 223 225
Width: 571
GlyphClass: 2
Flags: W
LayerCount: 2
Fore
SplineSet
334 203 m 2,0,-1
 207 256 l 1,1,-1
 210 290 l 1,2,-1
 238 307 l 2,3,4
 340 367 340 367 340 385 c 0,5,6
 340 409 340 409 324 419.5 c 128,-1,7
 308 430 308 430 271 430 c 2,8,-1
 233 430 l 1,9,-1
 229 464 l 1,10,-1
 229 480 l 2,11,12
 229 498 229 498 240 506 c 0,13,14
 264 524 264 524 284 524 c 0,15,16
 285 524 285 524 296 524.5 c 128,-1,17
 307 525 307 525 343.5 518 c 128,-1,18
 380 511 380 511 381 509 c 0,19,20
 435 459 435 459 435 393 c 0,21,22
 435 319 435 319 310 284 c 0,23,24
 289 278 289 278 294 276 c 0,25,26
 333 258 333 258 405 234 c 0,27,28
 511 198 511 198 511 144 c 0,29,30
 511 137 511 137 502 105 c 0,31,32
 490 50 490 50 450 30 c 0,33,34
 385 -3 385 -3 300 -8 c 2,35,-1
 232 -13 l 1,36,-1
 235 28 l 1,37,-1
 237 69 l 1,38,-1
 283 72 l 2,39,40
 326 76 326 76 342 85 c 128,-1,41
 358 94 358 94 364 122 c 0,42,43
 365 127 365 127 365 131 c 0,44,45
 365 191 365 191 334 203 c 2,0,-1
61 -4 m 1,46,-1
 89 503 l 1,47,-1
 198 503 l 1,48,-1
 169 -4 l 1,49,-1
 61 -4 l 1,46,-1
EndSplineSet
Validated: 33
EndChar

StartChar: agrave
Encoding: 224 224 226
Width: 586
GlyphClass: 2
Flags: W
LayerCount: 2
Fore
SplineSet
274 555 m 1,0,-1
 322 413 l 1,1,-1
 250 397 l 2,2,3
 250 396 250 396 215 528 c 1,4,-1
 274 555 l 1,0,-1
241 375 m 0,5,6
 241 380 241 380 293 380 c 2,7,-1
 350 380 l 1,8,-1
 365 347 l 2,9,10
 368 336 368 336 445.5 163.5 c 128,-1,11
 523 -9 523 -9 523 -15 c 128,-1,12
 523 -21 523 -21 486 -21 c 2,13,-1
 457 -21 l 1,14,-1
 389 -18 l 1,15,-1
 320 161 l 2,16,17
 241 364 241 364 241 375 c 0,5,6
68 -1 m 2,18,19
 71 13 71 13 136 163 c 128,-1,20
 201 313 201 313 206 322 c 128,-1,21
 211 331 211 331 215 331 c 0,22,23
 226 331 226 331 243 273 c 2,24,-1
 258 221 l 1,25,-1
 231 153 l 2,26,27
 201 87 201 87 201 76 c 0,28,29
 201 60 201 60 261 60 c 2,30,-1
 317 60 l 1,31,-1
 327 24 l 2,32,33
 332 3 332 3 332 -7 c 128,-1,34
 332 -17 332 -17 329.5 -19.5 c 128,-1,35
 327 -22 327 -22 194 -22 c 2,36,-1
 63 -22 l 1,37,-1
 68 -1 l 2,18,19
EndSplineSet
Validated: 33
EndChar

StartChar: aacute
Encoding: 225 225 227
Width: 586
GlyphClass: 1
Flags: W
LayerCount: 2
Fore
SplineSet
304 549 m 1,0,-1
 371 523 l 1,1,-1
 332 388 l 1,2,-1
 250 403 l 1,3,-1
 304 549 l 1,0,-1
241 366 m 0,4,5
 241 372 241 372 293 372 c 2,6,-1
 350 372 l 1,7,-1
 365 338 l 2,8,9
 368 327 368 327 445.5 154.5 c 128,-1,10
 523 -18 523 -18 523 -23.5 c 128,-1,11
 523 -29 523 -29 486 -29 c 2,12,-1
 457 -29 l 1,13,-1
 389 -27 l 1,14,-1
 320 153 l 2,15,16
 241 355 241 355 241 366 c 0,4,5
68 -9 m 2,17,18
 73 9 73 9 137 156.5 c 128,-1,19
 201 304 201 304 206 313 c 128,-1,20
 211 322 211 322 215 322 c 0,21,22
 227 322 227 322 243 264 c 2,23,-1
 258 212 l 1,24,-1
 231 144 l 2,25,26
 201 70 201 70 201 67 c 0,27,28
 201 51 201 51 261 51 c 2,29,-1
 317 51 l 1,30,-1
 327 16 l 2,31,32
 333 -5 333 -5 333.5 -15 c 128,-1,33
 334 -25 334 -25 331.5 -27.5 c 128,-1,34
 329 -30 329 -30 194 -30 c 2,35,-1
 63 -30 l 1,36,-1
 68 -9 l 2,17,18
EndSplineSet
Validated: 1
EndChar

StartChar: acircumflex
Encoding: 226 226 228
Width: 586
GlyphClass: 2
Flags: W
LayerCount: 2
Fore
SplineSet
241 380 m 0,0,1
 241 386 241 386 293 386 c 2,2,-1
 350 386 l 1,3,-1
 365 352 l 2,4,5
 368 341 368 341 445.5 168.5 c 128,-1,6
 523 -4 523 -4 523 -9.5 c 128,-1,7
 523 -15 523 -15 486 -15 c 2,8,-1
 457 -15 l 1,9,-1
 389 -12 l 1,10,-1
 320 167 l 2,11,12
 241 369 241 369 241 380 c 0,0,1
68 4 m 2,13,14
 71 18 71 18 136 168 c 128,-1,15
 201 318 201 318 206 327 c 128,-1,16
 211 336 211 336 215 336 c 0,17,18
 226 336 226 336 243 278 c 2,19,-1
 258 226 l 1,20,-1
 231 158 l 2,21,22
 201 92 201 92 201 81 c 0,23,24
 201 65 201 65 261 65 c 2,25,-1
 317 65 l 1,26,-1
 327 29 l 2,27,28
 332 9 332 9 332 -1 c 128,-1,29
 332 -11 332 -11 329.5 -13.5 c 128,-1,30
 327 -16 327 -16 194 -16 c 2,31,-1
 63 -16 l 1,32,-1
 68 4 l 2,13,14
286 602 m 1,33,-1
 437 467 l 1,34,-1
 426 416 l 1,35,-1
 284 531 l 1,36,-1
 158 408 l 1,37,-1
 147 469 l 1,38,-1
 286 602 l 1,33,-1
EndSplineSet
Validated: 1
EndChar

StartChar: atilde
Encoding: 227 227 229
Width: 586
GlyphClass: 2
Flags: W
LayerCount: 2
Fore
SplineSet
241 383 m 0,0,1
 241 389 241 389 293 390 c 2,2,-1
 350 390 l 1,3,-1
 365 356 l 2,4,5
 368 345 368 345 445.5 172.5 c 128,-1,6
 523 0 523 0 523 -5.5 c 128,-1,7
 523 -11 523 -11 486 -11 c 2,8,-1
 457 -11 l 1,9,-1
 389 -9 l 1,10,-1
 320 171 l 2,11,12
 241 373 241 373 241 383 c 0,0,1
68 8 m 2,13,14
 71 21 71 21 136 171.5 c 128,-1,15
 201 322 201 322 206 331 c 128,-1,16
 211 340 211 340 215 340 c 0,17,18
 226 340 226 340 243 282 c 2,19,-1
 258 230 l 1,20,-1
 231 162 l 2,21,22
 201 96 201 96 201 85 c 0,23,24
 201 69 201 69 261 69 c 2,25,-1
 317 69 l 1,26,-1
 327 33 l 2,27,28
 332 12 332 12 332 2 c 128,-1,29
 332 -8 332 -8 329.5 -10.5 c 128,-1,30
 327 -13 327 -13 194 -13 c 2,31,-1
 63 -13 l 1,32,-1
 68 8 l 2,13,14
301 542 m 1,33,-1
 334 488 l 1,34,-1
 466 511 l 1,35,-1
 466 444 l 1,36,-1
 334 423 l 1,37,-1
 301 476 l 1,38,-1
 178 444 l 1,39,-1
 178 511 l 1,40,-1
 297 541 l 1,41,-1
 301 542 l 1,33,-1
EndSplineSet
Validated: 1
EndChar

StartChar: adieresis
Encoding: 228 228 230
Width: 586
GlyphClass: 2
Flags: W
LayerCount: 2
Fore
SplineSet
241 379 m 0,0,1
 241 385 241 385 293 386 c 2,2,-1
 350 386 l 1,3,-1
 365 352 l 2,4,5
 368 341 368 341 445.5 168.5 c 128,-1,6
 523 -4 523 -4 523 -9.5 c 128,-1,7
 523 -15 523 -15 486 -15 c 2,8,-1
 457 -15 l 1,9,-1
 389 -13 l 1,10,-1
 320 167 l 2,11,12
 241 368 241 368 241 379 c 0,0,1
68 4 m 2,13,14
 71 17 71 17 136 167 c 128,-1,15
 201 317 201 317 206 326.5 c 128,-1,16
 211 336 211 336 215 336 c 0,17,18
 226 336 226 336 243 277 c 2,19,-1
 258 226 l 1,20,-1
 231 157 l 2,21,22
 201 91 201 91 201 81 c 0,23,24
 201 65 201 65 261 65 c 2,25,-1
 317 65 l 1,26,-1
 327 29 l 2,27,28
 332 8 332 8 332 -2 c 128,-1,29
 332 -12 332 -12 329.5 -14.5 c 128,-1,30
 327 -17 327 -17 194 -17 c 2,31,-1
 63 -17 l 1,32,-1
 68 4 l 2,13,14
312 474 m 1,33,-1
 350 474 l 1,34,-1
 350 430 l 1,35,-1
 312 430 l 1,36,-1
 312 474 l 1,33,-1
224 476 m 1,37,-1
 263 476 l 1,38,-1
 263 428 l 1,39,-1
 224 428 l 1,40,-1
 224 476 l 1,37,-1
EndSplineSet
Validated: 1
EndChar

StartChar: aring
Encoding: 229 229 231
Width: 586
GlyphClass: 2
Flags: W
LayerCount: 2
Fore
SplineSet
241 381 m 0,0,1
 241 387 241 387 293 387 c 2,2,-1
 350 387 l 1,3,-1
 365 353 l 2,4,5
 368 343 368 343 445.5 170 c 128,-1,6
 523 -3 523 -3 523 -8.5 c 128,-1,7
 523 -14 523 -14 486 -14 c 2,8,-1
 457 -14 l 1,9,-1
 389 -11 l 1,10,-1
 320 168 l 2,11,12
 241 370 241 370 241 381 c 0,0,1
68 6 m 2,13,14
 71 19 71 19 136 169 c 128,-1,15
 201 319 201 319 206 328.5 c 128,-1,16
 211 338 211 338 215 338 c 0,17,18
 226 338 226 338 243 279 c 2,19,-1
 258 227 l 1,20,-1
 231 159 l 2,21,22
 201 93 201 93 201 82 c 0,23,24
 201 66 201 66 261 66 c 2,25,-1
 317 66 l 1,26,-1
 327 31 l 2,27,28
 332 10 332 10 332 0 c 128,-1,29
 332 -10 332 -10 329.5 -12.5 c 128,-1,30
 327 -15 327 -15 194 -15 c 2,31,-1
 63 -15 l 1,32,-1
 68 6 l 2,13,14
289 423 m 1,33,-1
 289 438 l 1,34,35
 317 438 317 438 337 457 c 128,-1,36
 357 476 357 476 357 504 c 128,-1,37
 357 532 357 532 338 552 c 128,-1,38
 319 572 319 572 293 573 c 1,39,-1
 293 585 l 1,40,41
 327 584 327 584 349 561.5 c 128,-1,42
 371 539 371 539 371 506 c 128,-1,43
 371 473 371 473 347.5 448 c 128,-1,44
 324 423 324 423 289 423 c 1,33,-1
283 423 m 1,45,46
 253 425 253 425 231 448 c 0,47,48
 211 470 211 470 210.5 503.5 c 128,-1,49
 210 537 210 537 232.5 559 c 128,-1,50
 255 581 255 581 284 584 c 1,51,-1
 286 573 l 1,52,53
 261 572 261 572 241.5 553 c 128,-1,54
 222 534 222 534 222 506 c 128,-1,55
 222 478 222 478 240 459 c 128,-1,56
 258 440 258 440 283 438 c 1,57,-1
 283 423 l 1,45,46
292 475 m 1,58,-1
 292 534 l 1,59,60
 300 533 300 533 308.5 525 c 128,-1,61
 317 517 317 517 317 504 c 0,62,63
 317 478 317 478 292 475 c 1,58,-1
283 475 m 1,64,65
 260 478 260 478 258 502 c 0,66,67
 258 517 258 517 266 525.5 c 128,-1,68
 274 534 274 534 283 534 c 1,69,-1
 283 475 l 1,64,65
EndSplineSet
Validated: 33
EndChar

StartChar: ae
Encoding: 230 230 232
Width: 677
GlyphClass: 2
Flags: W
LayerCount: 2
Fore
SplineSet
241 387 m 0,0,1
 241 393 241 393 293 394 c 2,2,-1
 347 394 l 1,3,-1
 362 360 l 2,4,5
 366 349 366 349 443.5 176.5 c 128,-1,6
 521 4 521 4 521 -1.5 c 128,-1,7
 521 -7 521 -7 486 -7 c 2,8,-1
 457 -7 l 1,9,-1
 389 -4 l 1,10,-1
 320 175 l 2,11,12
 241 377 241 377 241 387 c 0,0,1
68 12 m 2,13,14
 71 26 71 26 136 176 c 128,-1,15
 201 326 201 326 205 335 c 128,-1,16
 209 344 209 344 214 344 c 0,17,18
 224 344 224 344 241 286 c 2,19,-1
 256 234 l 1,20,-1
 228 166 l 2,21,22
 201 100 201 100 201 89 c 0,23,24
 201 73 201 73 258 73 c 2,25,-1
 315 73 l 1,26,-1
 325 37 l 2,27,28
 332 9 332 9 332 2.5 c 128,-1,29
 332 -4 332 -4 329.5 -6.5 c 128,-1,30
 327 -9 327 -9 194 -9 c 2,31,-1
 63 -9 l 1,32,-1
 68 12 l 2,13,14
540 3 m 1,33,-1
 503 86 l 1,34,35
 519 91 519 91 536.5 98.5 c 128,-1,36
 554 106 554 106 561.5 106 c 128,-1,37
 569 106 569 106 572.5 100 c 128,-1,38
 576 94 576 94 584.5 72.5 c 128,-1,39
 593 51 593 51 593 43 c 128,-1,40
 593 35 593 35 581 25 c 0,41,42
 565 11 565 11 540 3 c 1,33,-1
614 171 m 1,43,-1
 466 171 l 1,44,-1
 435 241 l 1,45,-1
 444 241 l 2,46,47
 500 241 500 241 499 265 c 0,48,49
 499 280 499 280 479.5 296 c 128,-1,50
 460 312 460 312 439 312 c 128,-1,51
 418 312 418 312 406 308 c 1,52,-1
 370 389 l 1,53,54
 396 397 396 397 430 397 c 0,55,56
 593 397 593 397 610 223 c 2,57,-1
 614 171 l 1,43,-1
EndSplineSet
Validated: 33
EndChar

StartChar: ccedilla
Encoding: 231 231 233
Width: 456
GlyphClass: 2
Flags: W
LayerCount: 2
Fore
SplineSet
91 300 m 0,0,1
 147 393 147 393 274 393 c 0,2,3
 313 393 313 393 353.5 384 c 128,-1,4
 394 375 394 375 394 356 c 0,5,6
 394 346 394 346 379.5 315 c 128,-1,7
 365 284 365 284 355 284 c 0,8,9
 352 284 352 284 332 293 c 128,-1,10
 312 302 312 302 272 302 c 128,-1,11
 232 302 232 302 206.5 274.5 c 128,-1,12
 181 247 181 247 181 199.5 c 128,-1,13
 181 152 181 152 207.5 122 c 128,-1,14
 234 92 234 92 269 92 c 128,-1,15
 304 92 304 92 331 105 c 2,16,-1
 363 122 l 1,17,-1
 383 92 l 2,18,19
 395 69 395 69 395 58 c 0,20,21
 395 38 395 38 357 19.5 c 128,-1,22
 319 1 319 1 266.5 1 c 128,-1,23
 214 1 214 1 166 22 c 128,-1,24
 118 43 118 43 89.5 90.5 c 128,-1,25
 61 138 61 138 61 195 c 128,-1,26
 61 252 61 252 91 300 c 0,0,1
244 -8 m 1,27,-1
 286 -8 l 1,28,-1
 286 -50 l 1,29,-1
 286 -74 l 1,30,-1
 244 -74 l 1,31,-1
 204 -74 l 1,32,-1
 204 -50 l 1,33,-1
 244 -50 l 1,34,-1
 244 -8 l 1,27,-1
EndSplineSet
Validated: 1
EndChar

StartChar: egrave
Encoding: 232 232 234
Width: 496
GlyphClass: 2
Flags: W
LayerCount: 2
Fore
SplineSet
215 537 m 1,0,-1
 262 396 l 1,1,-1
 190 379 l 1,2,-1
 155 511 l 1,3,-1
 215 537 l 1,0,-1
174 194 m 1,4,5
 173 194 173 194 174.5 166.5 c 128,-1,6
 176 139 176 139 183.5 126 c 128,-1,7
 191 113 191 113 213 93 c 128,-1,8
 235 73 235 73 274 73 c 128,-1,9
 313 73 313 73 341.5 85.5 c 128,-1,10
 370 98 370 98 377.5 98 c 128,-1,11
 385 98 385 98 388.5 92 c 128,-1,12
 392 86 392 86 401 64 c 128,-1,13
 410 42 410 42 410 34.5 c 128,-1,14
 410 27 410 27 399 17 c 0,15,16
 360 -16 360 -16 270 -15 c 0,17,18
 144 -15 144 -15 92 65 c 0,19,20
 61 111 61 111 61 187.5 c 128,-1,21
 61 264 61 264 112.5 320.5 c 128,-1,22
 164 377 164 377 247 377 c 128,-1,23
 330 377 330 377 375.5 336 c 128,-1,24
 421 295 421 295 430 203 c 2,25,-1
 435 152 l 1,26,-1
 208 152 l 1,27,-1
 208 221 l 1,28,-1
 265 221 l 2,29,30
 321 221 321 221 320 246 c 0,31,32
 320 261 320 261 300.5 277 c 128,-1,33
 281 293 281 293 259 293 c 0,34,35
 174 294 174 294 174 194 c 1,4,5
EndSplineSet
Validated: 33
EndChar

StartChar: eacute
Encoding: 233 233 235
Width: 496
GlyphClass: 1
Flags: W
LayerCount: 2
Fore
SplineSet
264 530 m 1,0,-1
 331 504 l 1,1,-1
 291 369 l 1,2,-1
 209 384 l 1,3,-1
 264 530 l 1,0,-1
259 278 m 0,4,5
 163 278 163 278 174 151 c 0,6,7
 175 123 175 123 183 111 c 128,-1,8
 191 99 191 99 213 79 c 128,-1,9
 235 59 235 59 275 59 c 2,10,-1
 295 59 l 2,11,12
 315 59 315 59 342 71 c 128,-1,13
 369 83 369 83 377 83 c 128,-1,14
 385 83 385 83 388.5 77.5 c 128,-1,15
 392 72 392 72 401 50 c 128,-1,16
 410 28 410 28 410 20 c 128,-1,17
 410 12 410 12 399 2 c 0,18,19
 360 -30 360 -30 270 -29 c 0,20,21
 144 -29 144 -29 92 51 c 0,22,23
 61 97 61 97 61 174 c 128,-1,24
 61 251 61 251 112.5 306.5 c 128,-1,25
 164 362 164 362 248 362 c 0,26,27
 249 362 249 362 250 363 c 0,28,29
 332 363 332 363 376.5 322 c 128,-1,30
 421 281 421 281 430 189 c 2,31,-1
 435 137 l 1,32,-1
 208 137 l 1,33,-1
 208 207 l 1,34,-1
 265 207 l 2,35,36
 321 207 321 207 320 232 c 0,37,38
 320 247 320 247 300.5 262.5 c 128,-1,39
 281 278 281 278 259 278 c 0,4,5
EndSplineSet
Validated: 33
EndChar

StartChar: ecircumflex
Encoding: 234 234 236
Width: 496
GlyphClass: 2
Flags: W
LayerCount: 2
Fore
SplineSet
231 547 m 1,0,-1
 383 412 l 1,1,-1
 371 360 l 1,2,-1
 230 475 l 1,3,-1
 104 353 l 1,4,-1
 93 414 l 1,5,-1
 231 547 l 1,0,-1
174 193 m 1,6,7
 173 193 173 193 174.5 165.5 c 128,-1,8
 176 138 176 138 183.5 124.5 c 128,-1,9
 191 111 191 111 213 91.5 c 128,-1,10
 235 72 235 72 274 72 c 128,-1,11
 313 72 313 72 341.5 84.5 c 128,-1,12
 370 97 370 97 377.5 97 c 128,-1,13
 385 97 385 97 388.5 91 c 128,-1,14
 392 85 392 85 401 63.5 c 128,-1,15
 410 42 410 42 410 34 c 128,-1,16
 410 26 410 26 399 16 c 0,17,18
 360 -17 360 -17 270 -16 c 0,19,20
 144 -16 144 -16 92 64 c 0,21,22
 61 110 61 110 61 186.5 c 128,-1,23
 61 263 61 263 112.5 319.5 c 128,-1,24
 164 376 164 376 247 376 c 128,-1,25
 330 376 330 376 375.5 335 c 128,-1,26
 421 294 421 294 430 203 c 2,27,-1
 435 151 l 1,28,-1
 208 151 l 1,29,-1
 208 220 l 1,30,-1
 265 220 l 2,31,32
 321 220 321 220 320 245 c 0,33,34
 320 260 320 260 300.5 276 c 128,-1,35
 281 292 281 292 259 292 c 0,36,37
 174 292 174 292 174 193 c 1,6,7
EndSplineSet
Validated: 33
EndChar

StartChar: edieresis
Encoding: 235 235 237
Width: 496
GlyphClass: 2
Flags: W
LayerCount: 2
Fore
SplineSet
271 465 m 1,0,-1
 308 465 l 1,1,-1
 308 421 l 1,2,-1
 271 421 l 1,3,-1
 271 465 l 1,0,-1
182 466 m 1,4,-1
 222 466 l 1,5,-1
 222 419 l 1,6,-1
 182 419 l 1,7,-1
 182 466 l 1,4,-1
174 198 m 1,8,9
 173 198 173 198 174.5 170.5 c 128,-1,10
 176 143 176 143 183.5 129.5 c 128,-1,11
 191 116 191 116 213 96 c 128,-1,12
 235 76 235 76 274 76 c 128,-1,13
 313 76 313 76 341.5 88.5 c 128,-1,14
 370 101 370 101 377.5 101 c 128,-1,15
 385 101 385 101 388.5 95.5 c 128,-1,16
 392 90 392 90 401 68.5 c 128,-1,17
 410 47 410 47 410 38.5 c 128,-1,18
 410 30 410 30 399 21 c 0,19,20
 360 -11 360 -11 270 -11 c 0,21,22
 144 -11 144 -11 92 69 c 0,23,24
 61 114 61 114 61 191 c 128,-1,25
 61 268 61 268 112.5 324.5 c 128,-1,26
 164 381 164 381 247 381 c 128,-1,27
 330 381 330 381 375.5 340 c 128,-1,28
 421 299 421 299 430 208 c 2,29,-1
 435 155 l 1,30,-1
 208 155 l 1,31,-1
 208 225 l 1,32,-1
 265 225 l 2,33,34
 321 225 321 225 320 250 c 0,35,36
 320 265 320 265 300.5 280.5 c 128,-1,37
 281 296 281 296 259 296 c 0,38,39
 174 297 174 297 174 198 c 1,8,9
EndSplineSet
Validated: 33
EndChar

StartChar: igrave
Encoding: 236 236 238
Width: 262
GlyphClass: 2
Flags: W
LayerCount: 2
Fore
SplineSet
104 185 m 2,0,1
 106 384 106 384 108.5 388 c 128,-1,2
 111 392 111 392 136 392 c 2,3,-1
 156 392 l 1,4,-1
 200 390 l 1,5,-1
 200 -14 l 1,6,-1
 101 -14 l 1,7,-1
 104 185 l 2,0,1
200 445 m 1,8,-1
 117 438 l 1,9,-1
 63 566 l 1,10,-1
 128 593 l 1,11,-1
 146 508 l 1,12,-1
 200 445 l 1,8,-1
EndSplineSet
Validated: 1
EndChar

StartChar: iacute
Encoding: 237 237 239
Width: 284
GlyphClass: 1
Flags: W
LayerCount: 2
Fore
SplineSet
66 175 m 2,0,1
 68 374 68 374 70.5 377.5 c 128,-1,2
 73 381 73 381 98 381 c 2,3,-1
 117 381 l 1,4,-1
 162 380 l 1,5,-1
 162 -25 l 1,6,-1
 63 -25 l 1,7,-1
 66 175 l 2,0,1
78 441 m 1,8,-1
 135 504 l 1,9,-1
 152 591 l 1,10,-1
 221 563 l 1,11,-1
 165 433 l 1,12,-1
 78 441 l 1,8,-1
EndSplineSet
Validated: 1
EndChar

StartChar: icircumflex
Encoding: 238 238 240
Width: 415
GlyphClass: 2
Flags: W
LayerCount: 2
Fore
SplineSet
201 549 m 1,0,-1
 352 414 l 1,1,-1
 342 362 l 1,2,-1
 201 477 l 1,3,-1
 74 355 l 1,4,-1
 63 415 l 1,5,-1
 201 549 l 1,0,-1
156 187 m 2,6,7
 158 387 158 387 160.5 390.5 c 128,-1,8
 163 394 163 394 188 394 c 2,9,-1
 208 394 l 1,10,-1
 252 393 l 1,11,-1
 252 -12 l 1,12,-1
 153 -12 l 1,13,-1
 156 187 l 2,6,7
EndSplineSet
Validated: 1
EndChar

StartChar: idieresis
Encoding: 239 239 241
Width: 252
GlyphClass: 2
Flags: W
LayerCount: 2
Fore
SplineSet
78 189 m 2,0,1
 81 389 81 389 83.5 392.5 c 128,-1,2
 86 396 86 396 111 396 c 2,3,-1
 130 396 l 1,4,-1
 175 394 l 1,5,-1
 175 -10 l 1,6,-1
 76 -10 l 1,7,-1
 78 189 l 2,0,1
63 521 m 1,8,-1
 103 521 l 1,9,-1
 103 474 l 1,10,-1
 63 474 l 1,11,-1
 63 521 l 1,8,-1
152 519 m 1,12,-1
 190 519 l 1,13,-1
 190 475 l 1,14,-1
 152 475 l 1,15,-1
 152 519 l 1,12,-1
EndSplineSet
Validated: 1
EndChar

StartChar: eth
Encoding: 240 240 242
Width: 502
GlyphClass: 2
Flags: W
LayerCount: 2
Fore
SplineSet
150 469 m 1,0,1
 120 513 120 513 85 550 c 1,2,-1
 204 543 l 1,3,4
 219 522 219 522 229 507 c 1,5,-1
 150 469 l 1,0,1
214 380 m 1,6,-1
 84 313 l 1,7,-1
 61 398 l 1,8,-1
 165 448 l 1,9,-1
 244 486 l 1,10,-1
 360 540 l 1,11,-1
 380 469 l 1,12,-1
 294 423 l 1,13,-1
 287 420 l 1,14,-1
 214 380 l 1,6,-1
359 -45 m 1,15,16
 320 -69 320 -69 270 -70 c 2,17,-1
 265 -70 l 2,18,19
 196 -70 196 -70 149 -19 c 0,20,21
 98 34 98 34 97.5 97 c 128,-1,22
 97 160 97 160 127 206 c 1,23,-1
 174 155 l 1,24,25
 159 132 159 132 159 107 c 0,26,27
 159 60 159 60 191.5 30.5 c 128,-1,28
 224 1 224 1 257 1 c 128,-1,29
 290 1 290 1 308 11 c 1,30,-1
 359 -45 l 1,15,16
400 -9 m 1,31,32
 350 40 350 40 350 42 c 2,33,-1
 373 109 l 1,34,35
 373 148 373 148 341.5 180 c 128,-1,36
 310 212 310 212 272 212 c 128,-1,37
 234 212 234 212 204 190 c 1,38,-1
 155 239 l 1,39,40
 201 283 201 283 264 284 c 1,41,-1
 260 285 l 1,42,43
 237 328 237 328 227 353 c 1,44,-1
 300 393 l 1,45,46
 303 388 303 388 398 228 c 1,47,48
 441 185 441 185 441 113.5 c 128,-1,49
 441 42 441 42 400 -9 c 1,31,32
EndSplineSet
Validated: 33
EndChar

StartChar: ntilde
Encoding: 241 241 243
Width: 467
GlyphClass: 1
Flags: W
LayerCount: 2
Fore
SplineSet
309.875 172.700195312 m 1,0,-1
 309.875 362.600585938 l 1,1,-1
 382.85546875 362.600585938 l 1,2,-1
 382.85546875 211.400390625 l 2,3,4
 382.85546875 85.400390625 382.85546875 85.400390625 368.615234375 86.30078125 c 0,5,6
 365.9453125 86.30078125 365.9453125 86.30078125 363.275390625 90.3505859375 c 128,-1,7
 360.60546875 94.400390625 360.60546875 94.400390625 342.8046875 121.400390625 c 2,8,-1
 309.875 172.700195312 l 1,0,-1
217.314453125 139.400390625 m 2,9,10
 129.205078125 284.30078125 129.205078125 284.30078125 109.625 312.650390625 c 128,-1,11
 90.044921875 341 90.044921875 341 90.044921875 347.30078125 c 128,-1,12
 90.044921875 353.600585938 90.044921875 353.600585938 124.310546875 353.600585938 c 128,-1,13
 158.57421875 353.600585938 158.57421875 353.600585938 167.029296875 349.55078125 c 128,-1,14
 175.484375 345.5 175.484375 345.5 195.509765625 318.5 c 128,-1,15
 215.53515625 291.5 215.53515625 291.5 299.1953125 154.25 c 128,-1,16
 382.85546875 17 382.85546875 17 382.85546875 7.1005859375 c 0,17,18
 382.85546875 1.7001953125 382.85546875 1.7001953125 354.375 1.7001953125 c 2,19,-1
 341.025390625 1.7001953125 l 1,20,-1
 299.1953125 3.5 l 1,21,-1
 217.314453125 139.400390625 l 2,9,10
81.14453125 148.400390625 m 2,22,23
 81.14453125 296 81.14453125 296 92.71484375 296 c 0,24,25
 98.9453125 296 98.9453125 296 129.205078125 242.900390625 c 2,26,-1
 163.025390625 188 l 1,27,-1
 163.025390625 -1 l 1,28,-1
 81.14453125 -1 l 1,29,-1
 81.14453125 148.400390625 l 2,22,23
106 384 m 5,30,-1
 106 448 l 5,31,-1
 362 448 l 5,32,-1
 362 384 l 5,33,-1
 106 384 l 5,30,-1
EndSplineSet
Validated: 33
EndChar

StartChar: ograve
Encoding: 242 242 244
Width: 564
GlyphClass: 2
Flags: W
LayerCount: 2
Fore
SplineSet
259 552 m 1,0,-1
 306 412 l 1,1,-1
 234 395 l 1,2,-1
 200 527 l 1,3,-1
 259 552 l 1,0,-1
282 113 m 0,4,5
 236 113 236 113 236 172 c 0,6,7
 236 193 236 193 250.5 204 c 128,-1,8
 265 215 265 215 281 215 c 128,-1,9
 297 215 297 215 313.5 199.5 c 128,-1,10
 330 184 330 184 330 164 c 128,-1,11
 330 144 330 144 316 128.5 c 128,-1,12
 302 113 302 113 282 113 c 0,4,5
192 367 m 0,13,14
 222 380 222 380 239 380.5 c 128,-1,15
 256 381 256 381 260 374 c 128,-1,16
 264 367 264 367 264 341.5 c 128,-1,17
 264 316 264 316 259 307.5 c 128,-1,18
 254 299 254 299 238 292 c 0,19,20
 203 276 203 276 181 239 c 128,-1,21
 159 202 159 202 157 166 c 0,22,23
 158 135 158 135 173.5 103 c 128,-1,24
 189 71 189 71 214 52 c 128,-1,25
 239 33 239 33 282 33 c 128,-1,26
 325 33 325 33 351 51 c 0,27,28
 400 82 400 82 400 156 c 0,29,30
 400 260 400 260 322 291 c 0,31,32
 304 299 304 299 299 307.5 c 128,-1,33
 294 316 294 316 294 342.5 c 128,-1,34
 294 369 294 369 297.5 375 c 128,-1,35
 301 381 301 381 326 381 c 128,-1,36
 351 381 351 381 394 356.5 c 128,-1,37
 437 332 437 332 470 285.5 c 128,-1,38
 503 239 503 239 503 167 c 0,39,40
 503 139 503 139 496 110 c 0,41,42
 478 32 478 32 421 -11.5 c 128,-1,43
 364 -55 364 -55 276 -55 c 2,44,-1
 273 -55 l 2,45,46
 181 -55 181 -55 121 5 c 128,-1,47
 61 65 61 65 61 162 c 0,48,49
 61 306 61 306 192 367 c 0,13,14
EndSplineSet
Validated: 1
EndChar

